SplineFontDB: 3.0
FontName: DaddyTimeMono
FullName: DaddyTimeMono
FamilyName: DaddyTimeMono
Weight: Book
Copyright: Copyright (C) 2017-2021 Jason Stewart, All Rights Reserved
UComments: "2018-01-11: Created.+AAoA-2021-02-13: Added enough latin chars for Vietnamese."
Version: 1.1
ItalicAngle: 0
UnderlinePosition: -147
UnderlineWidth: 74
Ascent: 812
Descent: 212
InvalidEm: 0
LayerCount: 2
Layer: 0 1 "Back" 1
Layer: 1 0 "Fore" 0
XUID: [1021 355 1717067722 2244829]
FSType: 0
OS2Version: 4
OS2_WeightWidthSlopeOnly: 0
OS2_UseTypoMetrics: 1
CreationTime: 1515680211
ModificationTime: 1613204145
PfmFamily: 49
TTFWeight: 400
TTFWidth: 5
LineGap: 0
VLineGap: 0
Panose: 0 0 5 9 0 0 0 0 0 0
OS2TypoAscent: 1004
OS2TypoAOffset: 0
OS2TypoDescent: -277
OS2TypoDOffset: 0
OS2TypoLinegap: 0
OS2WinAscent: 1004
OS2WinAOffset: 0
OS2WinDescent: 277
OS2WinDOffset: 0
HheadAscent: 1004
HheadAOffset: 0
HheadDescent: -277
HheadDOffset: 0
OS2XHeight: 471
OS2Vendor: 'EGSD'
MarkAttachClasses: 1
DEI: 91125
LangName: 1033 "" "" "" "" "" "" "" "" "Jason Stewart" "" "" "" "https://eggplant.pro" "" "" "" "DaddyTimeMono"
GaspTable: 1 65535 15 1
Encoding: UnicodeBmp
UnicodeInterp: none
NameList: AGL For New Fonts
DisplaySize: -48
AntiAlias: 1
FitToEm: 1
WinInfo: 0 19 14
BeginPrivate: 3
StdHW 4 [73]
StdVW 4 [82]
BlueValues 23 [-13 1 473 489 741 749]
EndPrivate
GridOrder2: 1
Grid
-40 -277 m 25,0,-1
 629 -277 l 1025
-40 1004 m 25,0,-1
 629 1004 l 1025
237 940 m 1025,6,-1
353 940 m 1049,4,-1
-102 942 m 25,8,-1
 691 942 l 1025
0 479 m 25,0,-1
 589 479 l 1025
295 1024 m 25,2,-1
 295 -205 l 1025
353 740 m 25,4,-1
 295 799 l 1,5,-1
 237 740 l 1,6,-1
 295 682 l 1,7,-1
 353 740 l 25,4,-1
-102 742 m 25,8,-1
 691 742 l 1025
0 678 m 25,10,-1
 589 678 l 1025
0 463 m 25,12,-1
 589 463 l 1025
-1024 1107 m 1,14,-1
 2048 1107 l 1025
EndSplineSet
TeXData: 1 0 0 602112 301990 200278 500171 1048576 200278 783286 444596 497025 792723 393216 433062 380633 303038 157286 324010 404750 52429 2506097 1059062 262144

StartChar: C
Encoding: 67 67 0
Width: 588
Flags: HMW
LayerCount: 2
Fore
SplineSet
497 742 m 5
 541 670 l 1
 316 670 l 2
 271 670 229 643 189 588 c 0
 149 533 129 472 129 406 c 0
 129 320 152 244 196 176 c 0
 240 108 290 74 347 74 c 2
 497 74 l 1
 541 0 l 1
 360 0 l 2
 269 0 194 38 135 115 c 0
 76 192 47 289 47 406 c 0
 47 457 58 508 81 560 c 0
 104 612 136 655 176 690 c 0
 216 725 258 742 303 742 c 2
 497 742 l 5
EndSplineSet
Validated: 1
EndChar

StartChar: D
Encoding: 68 68 1
Width: 588
Flags: HMW
LayerCount: 2
Fore
SplineSet
339 742 m 2
 363 742 390 726 421 694 c 0
 452 662 478 625 499 583 c 0
 531 520 547 443 547 353 c 0
 547 271 528 197 489 131 c 0
 470 98 444 68 412 41 c 0
 380 14 355 0 339 0 c 2
 42 0 l 1
 42 742 l 1
 339 742 l 2
465 353 m 0
 465 426 452 488 426 539 c 0
 408 574 387 604 364 630 c 0
 341 656 320 670 301 670 c 2
 124 670 l 1
 124 74 l 1
 301 74 l 2
 314 74 332 86 357 110 c 0
 382 134 402 160 419 187 c 0
 450 239 465 294 465 353 c 0
EndSplineSet
Validated: 1
EndChar

StartChar: zero
Encoding: 48 48 2
Width: 588
Flags: HMW
LayerCount: 2
Fore
SplineSet
530 749 m 1
 468 629 l 1
 513 554 536 468 536 373 c 0
 536 308 527 248 510 192 c 0
 493 136 466 89 428 51 c 0
 390 13 346 -6 295 -6 c 0
 246 -6 202 15 161 57 c 1
 124 0 l 1
 43 0 l 1
 113 120 l 1
 74 190 54 274 54 373 c 0
 54 439 62 500 78 555 c 0
 94 610 122 657 160 694 c 0
 198 731 242 749 295 749 c 0
 339 749 381 729 422 690 c 1
 450 749 l 1
 530 749 l 1
295 675 m 0
 266 675 240 666 218 648 c 0
 196 630 180 606 169 576 c 0
 158 546 149 513 144 480 c 0
 139 447 136 411 136 373 c 0
 136 306 144 250 161 204 c 1
 380 618 l 1
 357 656 328 675 295 675 c 0
201 129 m 1
 212 115 221 105 228 98 c 0
 235 91 245 84 257 78 c 0
 269 72 282 68 295 68 c 0
 324 68 348 78 370 96 c 0
 392 114 408 139 420 170 c 0
 432 201 441 232 446 266 c 0
 451 300 454 336 454 373 c 0
 454 435 443 493 422 547 c 1
 201 129 l 1
EndSplineSet
Validated: 1
EndChar

StartChar: one
Encoding: 49 49 3
Width: 588
Flags: HMW
LayerCount: 2
Fore
SplineSet
336 742 m 29
 336 0 l 1
 254 0 l 1
 254 568 l 1
 170 568 l 1
 275 742 l 1
 336 742 l 29
EndSplineSet
Validated: 1
EndChar

StartChar: slash
Encoding: 47 47 4
Width: 588
Flags: HMW
LayerCount: 2
Fore
SplineSet
536 888 m 25
 141 -146 l 1
 52 -146 l 1
 447 888 l 1
 536 888 l 25
EndSplineSet
Validated: 1
EndChar

StartChar: exclam
Encoding: 33 33 5
Width: 588
Flags: HMW
LayerCount: 2
Fore
SplineSet
295 126 m 24
 314 126 332 119 346 106 c 0
 360 93 367 78 367 59 c 0
 367 40 360 24 346 12 c 0
 332 0 314 -6 295 -6 c 0
 275 -6 258 0 243 12 c 0
 228 24 221 40 221 59 c 0
 221 78 228 94 243 107 c 0
 258 120 275 126 295 126 c 24
295 749 m 0
 310 749 323 747 336 742 c 0
 349 737 356 730 356 722 c 0
 356 680 353 594 346 464 c 0
 339 334 335 248 335 206 c 0
 335 189 322 180 295 180 c 0
 267 180 253 189 253 206 c 0
 253 248 249 334 242 464 c 0
 235 594 231 680 231 722 c 0
 231 730 238 737 252 742 c 0
 266 747 280 749 295 749 c 0
EndSplineSet
Validated: 1
EndChar

StartChar: quotedbl
Encoding: 34 34 6
Width: 588
Flags: HMW
LayerCount: 2
Fore
SplineSet
411 799 m 0
 426 799 440 794 451 785 c 0
 462 776 468 765 468 753 c 0
 468 736 467 711 464 679 c 0
 461 647 455 612 446 574 c 0
 437 536 425 518 411 518 c 0
 400 518 391 529 383 550 c 0
 375 571 370 596 366 626 c 0
 362 656 360 681 358 703 c 0
 356 725 355 742 355 753 c 0
 355 765 361 776 372 785 c 0
 383 794 396 799 411 799 c 0
176 799 m 0
 191 799 205 794 216 785 c 0
 227 776 233 765 233 753 c 0
 233 736 232 711 229 679 c 0
 226 647 220 612 211 574 c 0
 202 536 190 518 176 518 c 0
 165 518 156 529 148 550 c 0
 140 571 134 596 130 626 c 0
 126 656 124 682 123 703 c 0
 122 724 121 741 121 753 c 0
 121 765 126 776 137 785 c 0
 148 794 161 799 176 799 c 0
EndSplineSet
Validated: 1
EndChar

StartChar: numbersign
Encoding: 35 35 7
Width: 588
Flags: HMW
LayerCount: 2
Fore
SplineSet
402 158 m 1
 385 44 l 1
 308 44 l 1
 324 158 l 1
 195 158 l 1
 176 44 l 1
 97 44 l 1
 116 158 l 1
 36 158 l 1
 45 228 l 1
 126 228 l 1
 161 439 l 1
 65 439 l 1
 74 509 l 1
 170 509 l 1
 185 622 l 1
 262 622 l 1
 249 509 l 1
 378 509 l 1
 393 622 l 1
 470 622 l 1
 457 509 l 1
 554 509 l 1
 543 439 l 1
 446 439 l 1
 411 228 l 1
 525 228 l 1
 514 158 l 1
 402 158 l 1
335 228 m 1
 370 439 l 1
 238 439 l 1
 203 228 l 1
 335 228 l 1
EndSplineSet
Validated: 1
EndChar

StartChar: dollar
Encoding: 36 36 8
Width: 588
Flags: HMW
LayerCount: 2
Fore
SplineSet
503 741 m 1
 547 669 l 1
 335 669 l 1
 335 453 l 1
 402 453 454 432 491 389 c 0
 528 346 547 293 547 228 c 0
 547 163 528 110 490 66 c 0
 452 22 401 0 335 0 c 1
 335 -88 l 1
 253 -88 l 1
 253 0 l 1
 42 0 l 1
 86 74 l 1
 253 74 l 1
 253 379 l 1
 196 379 146 395 104 428 c 0
 62 461 42 505 42 560 c 0
 42 615 62 659 104 691 c 0
 146 723 196 739 253 739 c 1
 253 819 l 1
 335 819 l 1
 335 741 l 1
 503 741 l 1
253 669 m 1
 214 669 182 660 159 642 c 0
 136 624 124 596 124 561 c 0
 124 526 136 498 159 480 c 0
 182 462 214 453 253 453 c 1
 253 669 l 1
335 78 m 1
 378 78 410 92 432 120 c 0
 454 148 465 184 465 228 c 0
 465 273 454 309 433 337 c 0
 412 365 379 379 335 379 c 1
 335 78 l 1
EndSplineSet
Validated: 1
EndChar

StartChar: percent
Encoding: 37 37 9
Width: 588
Flags: HMW
LayerCount: 2
Fore
SplineSet
420 231 m 0
 408 231 398 228 390 223 c 0
 382 218 377 210 374 198 c 0
 371 186 370 176 369 168 c 0
 368 160 368 148 368 133 c 0
 368 118 368 107 369 99 c 0
 370 91 371 82 374 70 c 0
 377 58 382 49 390 44 c 0
 398 39 408 36 420 36 c 0
 432 36 442 39 450 44 c 0
 458 49 463 58 466 70 c 0
 469 82 470 91 471 99 c 0
 472 107 472 118 472 133 c 0
 472 148 472 160 471 168 c 0
 470 176 469 186 466 198 c 0
 463 210 458 218 450 223 c 0
 442 228 432 231 420 231 c 0
420 272 m 0
 455 272 484 258 506 230 c 0
 528 202 539 170 539 133 c 0
 539 96 528 64 506 36 c 0
 484 8 455 -6 420 -6 c 0
 385 -6 356 8 334 36 c 0
 312 64 301 96 301 133 c 0
 301 170 312 202 334 230 c 0
 356 258 385 272 420 272 c 0
539 678 m 25
 137 0 l 1
 56 0 l 1
 455 678 l 1
 539 678 l 25
170 641 m 0
 158 641 148 638 140 633 c 0
 132 628 127 620 124 608 c 0
 121 596 120 586 119 578 c 0
 118 570 118 559 118 544 c 0
 118 529 118 518 119 510 c 0
 120 502 121 492 124 480 c 0
 127 468 132 459 140 454 c 0
 148 449 158 446 170 446 c 0
 182 446 192 449 200 454 c 0
 208 459 213 468 216 480 c 0
 219 492 220 502 221 510 c 0
 222 518 222 529 222 544 c 0
 222 559 222 570 221 578 c 0
 220 586 219 596 216 608 c 0
 213 620 208 628 200 633 c 0
 192 638 182 641 170 641 c 0
170 684 m 0
 205 684 234 670 256 642 c 0
 278 614 289 581 289 544 c 0
 289 507 278 474 256 446 c 0
 234 418 205 404 170 404 c 0
 135 404 106 418 84 446 c 0
 62 474 51 507 51 544 c 0
 51 581 62 614 84 642 c 0
 106 670 135 684 170 684 c 0
EndSplineSet
Validated: 1
EndChar

StartChar: ampersand
Encoding: 38 38 10
Width: 588
Flags: HMW
LayerCount: 2
Fore
SplineSet
292 742 m 0
 338 742 376 723 408 686 c 0
 440 649 456 612 456 575 c 0
 456 500 419 431 345 368 c 1
 365 347 381 328 393 308 c 0
 405 288 413 272 417 260 c 0
 421 248 426 228 433 201 c 1
 440 210 446 218 450 224 c 0
 454 230 459 234 464 239 c 0
 469 244 472 248 474 250 c 0
 476 252 479 254 484 257 c 0
 489 260 491 262 492 262 c 0
 493 262 498 263 505 266 c 0
 512 269 517 270 519 271 c 2
 554 209 l 1
 533 208 513 200 492 184 c 0
 471 168 460 153 459 136 c 1
 482 96 513 76 554 75 c 1
 480 -1 l 1
 459 16 444 28 435 38 c 0
 426 48 417 63 406 83 c 1
 400 78 390 71 378 61 c 0
 366 51 357 44 351 39 c 0
 345 34 336 29 324 22 c 0
 312 15 300 9 290 6 c 0
 280 3 266 1 250 -2 c 0
 234 -5 218 -6 199 -6 c 0
 167 -6 132 15 93 58 c 0
 54 101 35 142 35 181 c 0
 36 221 48 257 73 288 c 0
 98 319 147 354 221 391 c 1
 191 414 167 445 150 484 c 0
 133 523 125 554 125 578 c 0
 125 622 142 660 177 693 c 0
 212 726 250 742 292 742 c 0
294 673 m 0
 273 673 252 664 233 647 c 0
 214 630 204 607 204 578 c 0
 204 553 209 530 218 510 c 0
 227 490 237 474 248 463 c 0
 259 452 273 439 292 424 c 1
 317 437 338 459 354 488 c 0
 370 517 378 546 381 575 c 0
 381 601 371 624 351 644 c 0
 331 664 312 673 294 673 c 0
270 335 m 1
 254 324 234 313 211 302 c 0
 188 291 170 282 159 276 c 0
 148 270 137 258 128 242 c 0
 119 226 114 206 114 181 c 0
 114 157 126 132 150 106 c 0
 174 80 197 66 220 66 c 0
 238 66 254 68 268 72 c 0
 282 76 297 85 311 97 c 0
 325 109 335 118 340 123 c 0
 345 128 356 140 371 157 c 1
 360 202 348 238 333 266 c 0
 318 294 297 318 270 335 c 1
EndSplineSet
Validated: 1
EndChar

StartChar: quotesingle
Encoding: 39 39 11
Width: 588
Flags: HMW
LayerCount: 2
Fore
SplineSet
293 799 m 0
 308 799 322 794 333 785 c 0
 344 776 350 765 350 753 c 0
 350 736 349 711 346 679 c 0
 343 647 337 612 328 574 c 0
 319 536 307 518 293 518 c 0
 282 518 273 529 265 550 c 0
 257 571 252 596 248 626 c 0
 244 656 241 682 240 703 c 0
 239 724 238 741 238 753 c 0
 238 765 243 776 254 785 c 0
 265 794 278 799 293 799 c 0
EndSplineSet
Validated: 1
EndChar

StartChar: parenleft
Encoding: 40 40 12
Width: 588
Flags: HMW
LayerCount: 2
Fore
SplineSet
416 888 m 13
 416 806 l 5
 321 806 274 659 274 365 c 4
 274 79 321 -64 416 -64 c 5
 416 -146 l 5
 267 -146 192 24 192 365 c 4
 192 713 267 887 416 888 c 13
EndSplineSet
Validated: 1
EndChar

StartChar: parenright
Encoding: 41 41 13
Width: 588
Flags: HMW
LayerCount: 2
Fore
SplineSet
172 888 m 21
 321 888 396 714 396 365 c 4
 396 24 321 -146 172 -146 c 5
 172 -64 l 5
 267 -64 314 79 314 365 c 4
 314 659 267 806 172 806 c 5
 172 888 l 21
EndSplineSet
Validated: 1
EndChar

StartChar: asterisk
Encoding: 42 42 14
Width: 588
Flags: HMW
LayerCount: 2
Fore
SplineSet
352 742 m 1
 322 612 l 1
 449 683 l 1
 481 592 l 1
 339 569 l 1
 453 467 l 1
 372 414 l 1
 295 539 l 1
 218 414 l 1
 135 467 l 1
 251 569 l 1
 109 592 l 1
 139 683 l 1
 268 612 l 1
 236 742 l 1
 352 742 l 1
EndSplineSet
Validated: 1
EndChar

StartChar: plus
Encoding: 43 43 15
Width: 588
Flags: HMW
LayerCount: 2
Fore
SplineSet
295 587 m 4
 322 587 336 578 336 559 c 2
 336 397 l 1
 495 397 l 2
 504 397 512 394 517 386 c 0
 522 378 525 368 525 356 c 0
 525 344 522 334 517 326 c 0
 512 318 504 315 495 315 c 2
 336 315 l 1
 336 157 l 2
 336 148 332 140 324 134 c 0
 316 128 307 126 295 126 c 0
 283 126 274 128 266 134 c 0
 258 140 254 148 254 157 c 2
 254 315 l 1
 92 315 l 2
 74 315 65 329 65 356 c 0
 65 383 74 397 92 397 c 2
 254 397 l 1
 254 559 l 2
 254 578 268 587 295 587 c 4
EndSplineSet
Validated: 1
EndChar

StartChar: comma
Encoding: 44 44 16
Width: 588
Flags: HMW
LayerCount: 2
Fore
SplineSet
297 130 m 0
 316 130 332 123 347 110 c 0
 362 97 369 81 369 61 c 0
 368 37 364 12 356 -16 c 0
 348 -44 334 -70 314 -94 c 0
 294 -118 270 -129 243 -129 c 0
 235 -129 231 -126 231 -119 c 0
 231 -116 234 -112 240 -107 c 0
 246 -102 254 -98 263 -92 c 0
 272 -86 281 -75 292 -58 c 0
 303 -41 312 -19 319 6 c 1
 315 -2 304 -6 287 -6 c 0
 272 -6 258 1 244 14 c 0
 230 27 223 42 223 61 c 0
 223 78 230 93 244 108 c 0
 258 123 276 130 297 130 c 0
EndSplineSet
Validated: 1
EndChar

StartChar: hyphen
Encoding: 45 45 17
Width: 588
Flags: HMW
LayerCount: 2
Fore
SplineSet
494 397 m 6
 503 397 511 394 516 386 c 0
 521 378 524 368 524 356 c 0
 524 344 521 334 516 326 c 0
 511 318 503 315 494 315 c 2
 91 315 l 2
 73 315 64 329 64 356 c 0
 64 383 73 397 91 397 c 2
 494 397 l 6
EndSplineSet
Validated: 1
EndChar

StartChar: period
Encoding: 46 46 18
Width: 588
Flags: HMW
LayerCount: 2
Fore
SplineSet
295 126 m 24
 314 126 332 119 346 106 c 0
 360 93 367 78 367 59 c 0
 367 40 360 24 346 12 c 0
 332 0 314 -6 295 -6 c 0
 275 -6 258 0 243 12 c 0
 228 24 221 40 221 59 c 0
 221 78 228 94 243 107 c 0
 258 120 275 126 295 126 c 24
EndSplineSet
Validated: 1
EndChar

StartChar: two
Encoding: 50 50 19
Width: 588
Flags: HMW
LayerCount: 2
Fore
SplineSet
295 749 m 4
 368 749 426 728 469 686 c 0
 512 644 534 594 535 539 c 0
 534 506 522 472 498 436 c 0
 474 400 445 367 410 336 c 0
 375 305 338 274 302 245 c 0
 266 216 232 186 202 156 c 0
 172 126 152 99 143 75 c 1
 451 75 l 1
 451 141 l 1
 535 141 l 1
 535 1 l 1
 54 1 l 1
 54 75 l 1
 63 104 83 136 114 170 c 0
 145 204 179 237 216 268 c 0
 253 299 290 330 326 361 c 0
 362 392 392 423 416 454 c 0
 440 485 453 514 453 539 c 0
 453 581 439 614 411 638 c 0
 383 662 344 675 295 675 c 0
 244 675 205 659 178 628 c 0
 151 597 137 557 136 507 c 1
 54 507 l 1
 55 572 77 628 120 676 c 0
 163 724 222 748 295 749 c 4
EndSplineSet
Validated: 1
EndChar

StartChar: three
Encoding: 51 51 20
Width: 588
Flags: HMW
LayerCount: 2
Fore
SplineSet
524 742 m 29
 524 669 l 1
 347 507 l 1
 376 506 401 502 424 493 c 0
 447 484 464 473 477 459 c 0
 490 445 500 431 508 417 c 0
 516 403 523 388 526 372 c 0
 529 356 531 345 532 338 c 0
 533 331 534 324 534 319 c 0
 534 278 527 242 512 208 c 0
 497 174 478 146 456 124 c 0
 434 102 408 84 377 67 c 0
 346 50 316 37 288 28 c 0
 260 19 231 12 200 7 c 0
 169 2 144 -2 126 -4 c 0
 108 -6 90 -6 75 -6 c 0
 70 -6 64 -3 58 3 c 0
 52 9 49 14 48 18 c 0
 48 23 50 28 55 35 c 0
 60 42 65 46 71 49 c 0
 96 54 115 58 126 60 c 0
 137 62 155 67 181 74 c 0
 207 81 227 87 240 92 c 0
 253 97 271 103 294 112 c 0
 317 121 334 129 346 138 c 0
 358 147 372 157 388 170 c 0
 404 183 416 197 424 211 c 0
 432 225 439 241 445 259 c 0
 451 277 454 296 454 317 c 0
 452 345 442 372 424 396 c 0
 406 420 377 432 336 433 c 0
 291 433 251 421 214 397 c 1
 158 434 l 1
 215 483 l 1
 422 669 l 1
 137 669 l 1
 137 606 l 1
 55 606 l 1
 55 742 l 1
 524 742 l 29
EndSplineSet
Validated: 1
EndChar

StartChar: four
Encoding: 52 52 21
Width: 588
Flags: HMW
LayerCount: 2
Fore
SplineSet
354 603 m 5
 187 305 l 1
 354 305 l 1
 354 603 l 5
436 742 m 5
 436 305 l 1
 536 305 l 1
 536 231 l 1
 436 231 l 1
 436 0 l 1
 354 0 l 1
 354 231 l 1
 54 231 l 1
 354 742 l 1
 436 742 l 5
EndSplineSet
Validated: 1
EndChar

StartChar: five
Encoding: 53 53 22
Width: 588
Flags: HMW
LayerCount: 2
Fore
SplineSet
525 742 m 25
 525 669 l 1
 138 669 l 1
 138 434 l 1
 146 442 l 2
 149 445 158 451 170 460 c 0
 182 469 196 476 210 482 c 0
 224 488 244 495 268 500 c 0
 292 505 318 508 345 508 c 0
 376 508 402 502 426 492 c 0
 450 482 469 470 482 456 c 0
 495 442 506 425 514 406 c 0
 522 387 528 371 531 357 c 0
 534 343 535 330 535 319 c 0
 535 278 527 240 512 206 c 0
 497 172 478 145 455 123 c 0
 432 101 404 82 372 65 c 0
 340 48 311 36 282 27 c 0
 253 18 223 11 192 6 c 0
 161 1 137 -3 120 -4 c 0
 103 -5 88 -6 76 -6 c 0
 71 -6 64 -3 58 3 c 0
 52 9 49 14 48 18 c 0
 48 23 51 28 56 35 c 0
 61 42 66 46 72 49 c 0
 146 64 209 82 260 101 c 0
 311 120 351 141 378 164 c 0
 405 187 425 209 436 232 c 0
 447 255 453 280 453 307 c 0
 452 342 443 371 425 396 c 0
 407 421 378 433 337 434 c 0
 294 434 257 424 224 405 c 0
 191 386 166 363 148 337 c 1
 56 379 l 1
 56 742 l 1
 525 742 l 25
EndSplineSet
Validated: 1
EndChar

StartChar: six
Encoding: 54 54 23
Width: 588
Flags: HMW
LayerCount: 2
Fore
SplineSet
136 220 m 28
 136 178 152 142 184 112 c 0
 216 82 255 68 301 68 c 0
 344 68 381 84 410 114 c 0
 439 144 453 179 453 220 c 0
 453 261 439 298 410 329 c 0
 381 360 344 376 301 376 c 0
 254 376 216 361 184 330 c 0
 152 299 136 263 136 220 c 28
462 724 m 4
 462 703 446 693 414 693 c 1
 361 688 305 652 248 586 c 0
 191 520 160 456 153 391 c 1
 154 392 157 396 164 402 c 0
 171 408 175 412 178 414 c 0
 181 416 185 419 192 424 c 0
 199 429 206 433 212 435 c 0
 218 437 226 439 235 442 c 0
 244 445 255 447 266 448 c 0
 277 449 288 450 301 450 c 0
 349 450 391 438 427 414 c 0
 463 390 489 360 506 326 c 0
 523 292 532 257 535 220 c 1
 535 159 512 106 466 61 c 0
 420 16 364 -6 301 -6 c 0
 236 -6 180 16 132 61 c 0
 84 106 57 159 54 220 c 1
 54 271 54 309 56 333 c 0
 58 357 64 387 75 422 c 0
 86 457 103 497 126 540 c 0
 155 597 198 647 254 688 c 0
 310 729 361 749 407 749 c 0
 444 748 462 740 462 724 c 4
EndSplineSet
Validated: 1
EndChar

StartChar: seven
Encoding: 55 55 24
Width: 588
Flags: HMW
LayerCount: 2
Fore
SplineSet
535 742 m 25
 535 545 l 2
 533 527 522 502 500 469 c 0
 478 436 455 404 431 373 c 0
 407 342 386 304 366 260 c 0
 346 216 336 176 336 138 c 2
 336 0 l 1
 249 0 l 1
 249 138 l 2
 249 177 256 215 270 252 c 0
 284 289 299 320 317 346 c 0
 335 372 358 406 386 446 c 0
 414 486 436 523 453 556 c 1
 453 669 l 1
 136 669 l 1
 136 588 l 1
 54 588 l 1
 54 742 l 1
 535 742 l 25
EndSplineSet
Validated: 1
EndChar

StartChar: eight
Encoding: 56 56 25
Width: 588
Flags: HMW
LayerCount: 2
Fore
SplineSet
136 206 m 24
 136 166 152 132 184 106 c 0
 216 80 252 67 295 67 c 0
 337 67 374 80 406 106 c 0
 438 132 453 166 453 206 c 0
 453 247 437 281 406 308 c 0
 375 335 338 349 295 349 c 0
 252 349 216 335 184 308 c 0
 152 281 136 247 136 206 c 24
158 548 m 24
 158 512 171 482 198 458 c 0
 225 434 258 422 295 422 c 0
 332 422 364 434 391 458 c 0
 418 482 431 512 431 548 c 0
 431 584 418 614 391 639 c 0
 364 664 332 676 295 676 c 0
 258 676 225 664 198 639 c 0
 171 614 158 584 158 548 c 24
295 749 m 24
 354 749 405 730 448 691 c 0
 491 652 513 605 513 548 c 0
 513 478 481 424 416 385 c 1
 495 343 535 283 535 206 c 0
 535 145 512 94 464 54 c 0
 416 14 360 -6 295 -6 c 0
 230 -6 174 14 126 54 c 0
 78 94 54 145 54 206 c 0
 54 284 93 344 172 385 c 1
 108 423 76 477 76 548 c 0
 76 605 98 652 141 691 c 0
 184 730 236 749 295 749 c 24
EndSplineSet
Validated: 1
EndChar

StartChar: nine
Encoding: 57 57 26
Width: 588
Flags: HMW
LayerCount: 2
Fore
SplineSet
453 519 m 28
 453 562 436 600 404 630 c 0
 372 660 334 675 289 675 c 0
 247 675 211 660 181 629 c 0
 151 598 136 562 136 519 c 0
 136 476 150 438 180 407 c 0
 210 376 246 360 289 360 c 0
 334 360 372 375 404 406 c 0
 436 437 453 475 453 519 c 28
289 749 m 28
 354 749 410 726 458 680 c 0
 506 634 532 580 535 519 c 1
 535 448 532 394 524 356 c 0
 516 318 495 268 462 205 c 0
 432 148 389 98 334 56 c 0
 279 14 229 -6 183 -6 c 0
 146 -5 128 3 128 19 c 0
 128 28 134 34 146 40 c 0
 158 46 168 49 176 49 c 0
 211 52 248 69 287 100 c 0
 326 131 360 169 388 214 c 0
 416 259 433 302 437 344 c 1
 436 343 433 340 427 335 c 0
 421 330 418 326 416 325 c 0
 414 324 410 321 404 316 c 0
 398 311 392 308 388 306 c 0
 384 304 378 302 370 299 c 0
 362 296 355 293 348 292 c 0
 341 291 332 289 322 288 c 0
 312 287 300 287 289 287 c 0
 219 287 163 310 122 358 c 0
 81 406 58 460 54 519 c 1
 54 581 78 634 124 680 c 0
 170 726 225 749 289 749 c 28
EndSplineSet
Validated: 1
EndChar

StartChar: colon
Encoding: 58 58 27
Width: 588
Flags: HMW
LayerCount: 2
Fore
SplineSet
294 469 m 28
 313 469 330 463 344 450 c 0
 358 437 366 421 366 402 c 0
 366 383 358 368 344 356 c 0
 330 344 313 337 294 337 c 0
 274 337 257 344 242 356 c 0
 227 368 220 383 220 402 c 0
 220 421 227 437 242 450 c 0
 257 463 274 469 294 469 c 28
294 126 m 24
 313 126 330 120 344 107 c 0
 358 94 366 79 366 60 c 0
 366 41 358 26 344 13 c 0
 330 0 313 -6 294 -6 c 0
 274 -6 257 0 242 12 c 0
 227 24 220 41 220 60 c 0
 220 79 227 96 242 108 c 0
 257 120 274 126 294 126 c 24
EndSplineSet
Validated: 1
EndChar

StartChar: semicolon
Encoding: 59 59 28
Width: 588
Flags: HMW
LayerCount: 2
Fore
SplineSet
298 130 m 0
 317 130 333 123 348 110 c 0
 363 97 370 81 370 61 c 0
 369 37 365 12 357 -16 c 0
 349 -44 335 -70 315 -94 c 0
 295 -118 271 -129 244 -129 c 0
 236 -129 232 -126 232 -119 c 0
 232 -116 236 -112 242 -107 c 0
 248 -102 255 -98 264 -92 c 0
 273 -86 283 -75 294 -58 c 0
 305 -41 314 -19 321 6 c 1
 317 -2 306 -6 288 -6 c 0
 273 -6 258 1 244 14 c 0
 230 27 224 42 224 61 c 0
 224 78 231 93 245 108 c 0
 259 123 277 130 298 130 c 0
296 469 m 24
 315 469 332 463 346 450 c 0
 360 437 368 421 368 402 c 0
 368 383 360 368 346 356 c 0
 332 344 315 337 296 337 c 0
 276 337 259 344 244 356 c 0
 229 368 222 383 222 402 c 0
 222 421 229 437 244 450 c 0
 259 463 276 469 296 469 c 24
EndSplineSet
Validated: 1
EndChar

StartChar: less
Encoding: 60 60 29
Width: 588
Flags: HMW
LayerCount: 2
Fore
SplineSet
518 888 m 29
 518 756 l 1
 203 371 l 1
 518 -14 l 1
 518 -146 l 1
 87 371 l 1
 518 888 l 29
EndSplineSet
Validated: 1
EndChar

StartChar: equal
Encoding: 61 61 30
Width: 588
Flags: HMW
LayerCount: 2
Fore
SplineSet
495 285 m 2
 504 285 512 282 517 274 c 0
 522 266 525 256 525 244 c 0
 525 232 522 222 517 214 c 0
 512 206 504 203 495 203 c 2
 92 203 l 2
 74 203 65 217 65 244 c 0
 65 271 74 285 92 285 c 2
 495 285 l 2
495 510 m 2
 504 510 512 506 517 498 c 0
 522 490 525 481 525 469 c 0
 525 457 522 448 517 440 c 0
 512 432 504 428 495 428 c 2
 92 428 l 2
 74 428 65 442 65 469 c 0
 65 496 74 510 92 510 c 2
 495 510 l 2
EndSplineSet
Validated: 1
EndChar

StartChar: greater
Encoding: 62 62 31
Width: 588
Flags: HMW
LayerCount: 2
Fore
SplineSet
70 888 m 25
 501 371 l 1
 70 -146 l 1
 70 -14 l 1
 385 371 l 1
 70 756 l 1
 70 888 l 25
EndSplineSet
Validated: 1
EndChar

StartChar: question
Encoding: 63 63 32
Width: 588
Flags: HMW
LayerCount: 2
Fore
SplineSet
295 126 m 24
 314 126 332 119 346 106 c 0
 360 93 367 78 367 59 c 0
 367 40 360 24 346 12 c 0
 332 0 314 -6 295 -6 c 0
 275 -6 258 0 243 12 c 0
 228 24 221 40 221 59 c 0
 221 78 228 94 243 107 c 0
 258 120 275 126 295 126 c 24
295 749 m 0
 372 749 432 730 473 694 c 0
 514 658 535 614 535 561 c 0
 535 539 525 516 504 492 c 0
 483 468 460 449 435 433 c 0
 410 417 387 401 366 385 c 0
 345 369 335 357 335 348 c 2
 335 205 l 2
 335 188 322 180 295 180 c 0
 267 180 253 188 253 205 c 2
 253 376 l 2
 254 385 266 398 287 415 c 0
 308 432 332 449 356 465 c 0
 380 481 402 498 422 516 c 0
 442 534 453 550 453 561 c 0
 453 564 453 569 452 574 c 0
 451 579 448 588 442 601 c 0
 436 614 429 626 419 636 c 0
 409 646 394 656 372 664 c 0
 350 672 324 677 295 677 c 0
 265 677 240 673 218 665 c 0
 196 657 180 647 170 636 c 0
 160 625 152 613 146 602 c 0
 140 591 138 581 137 573 c 2
 136 561 l 1
 54 561 l 1
 54 614 75 658 116 694 c 0
 157 730 217 749 295 749 c 0
EndSplineSet
Validated: 1
EndChar

StartChar: at
Encoding: 64 64 33
Width: 588
Flags: HMW
LayerCount: 2
Fore
SplineSet
288 659 m 4
 344 659 396 642 444 608 c 4
 492 574 529 532 555 482 c 4
 581 432 594 386 594 344 c 4
 594 302 586 260 570 222 c 4
 554 184 533 151 507 123 c 5
 463 137 l 6
 444 143 421 161 396 190 c 4
 394 192 390 198 384 207 c 5
 378 194 366 185 348 178 c 4
 329 171 309 168 288 168 c 4
 251 168 221 186 196 223 c 4
 171 260 159 295 159 328 c 4
 159 355 171 387 195 426 c 4
 219 466 250 486 287 486 c 4
 330 486 363 467 386 430 c 4
 409 394 421 360 422 328 c 4
 423 293 429 267 438 250 c 4
 447 234 462 224 482 219 c 5
 505 262 517 300 517 333 c 4
 516 399 498 453 462 496 c 4
 415 551 358 578 290 579 c 4
 221 578 165 551 124 498 c 4
 91 455 75 400 75 333 c 4
 75 295 82 255 96 214 c 4
 110 173 131 139 158 112 c 4
 185 85 211 71 235 71 c 5
 301 119 l 5
 461 0 l 5
 246 0 l 6
 199 0 155 18 115 54 c 4
 75 90 44 132 24 182 c 4
 4 232 -6 283 -6 333 c 4
 -6 383 6 433 29 482 c 4
 52 531 87 574 134 608 c 4
 181 642 232 659 288 659 c 4
290 424 m 4
 267 424 250 412 238 389 c 4
 226 367 220 347 220 328 c 4
 220 305 223 287 230 274 c 4
 246 245 265 230 287 230 c 4
 331 230 354 263 355 328 c 4
 355 343 350 363 339 388 c 4
 328 412 312 424 290 424 c 4
EndSplineSet
Validated: 1
EndChar

StartChar: A
Encoding: 65 65 34
Width: 588
Flags: HMW
LayerCount: 2
Back
SplineSet
267 777 m 1,0,-1
 25 33 l 1,1,-1
 103 7 l 1,2,-1
 345 751 l 1,3,-1
 267 777 l 1,0,-1
322 777 m 1,4,-1
 564 33 l 5,5,-1
 486 7 l 1,6,-1
 244 751 l 1,7,-1
 322 777 l 1,4,-1
EndSplineSet
Fore
SplineSet
333 742 m 5
 564 33 l 1
 564 0 l 1
 477 0 l 1
 477 33 l 1
 418 215 l 1
 170 215 l 1
 111 33 l 1
 111 0 l 1
 25 0 l 1
 25 33 l 1
 256 742 l 1
 333 742 l 5
194 288 m 5
 394 288 l 1
 294 595 l 1
 194 288 l 5
EndSplineSet
Validated: 1
EndChar

StartChar: B
Encoding: 66 66 35
Width: 588
Flags: HMW
LayerCount: 2
Fore
SplineSet
470 206 m 0
 470 253 455 292 426 323 c 0
 397 354 365 369 328 369 c 2
 125 369 l 1
 125 74 l 1
 341 74 l 2
 370 74 398 85 427 108 c 0
 456 131 470 164 470 206 c 0
409 563 m 0
 409 590 403 615 390 637 c 0
 377 659 358 670 335 670 c 2
 125 670 l 1
 125 442 l 1
 324 442 l 2
 343 442 362 456 381 484 c 0
 400 512 409 538 409 563 c 0
324 742 m 2
 355 742 381 737 404 726 c 0
 427 715 444 700 456 682 c 0
 468 664 477 646 482 626 c 0
 487 606 490 585 490 563 c 0
 490 533 481 502 463 470 c 0
 445 438 429 419 414 416 c 1
 414 401 l 1
 454 386 487 360 513 322 c 0
 539 284 552 246 552 206 c 0
 552 145 533 96 495 58 c 0
 457 20 406 0 343 0 c 2
 43 0 l 1
 43 742 l 1
 324 742 l 2
EndSplineSet
Validated: 1
EndChar

StartChar: E
Encoding: 69 69 36
Width: 588
Flags: HMW
LayerCount: 2
Fore
SplineSet
506 742 m 25
 550 670 l 1
 128 670 l 1
 128 437 l 1
 379 437 l 1
 423 364 l 1
 128 364 l 1
 128 74 l 1
 506 74 l 1
 550 0 l 1
 46 0 l 1
 46 742 l 5
 506 742 l 25
EndSplineSet
Validated: 1
EndChar

StartChar: F
Encoding: 70 70 37
Width: 588
Flags: HMW
LayerCount: 2
Fore
SplineSet
503 742 m 25
 547 670 l 1
 125 670 l 1
 125 446 l 1
 376 446 l 1
 420 374 l 1
 125 374 l 1
 125 0 l 1
 43 0 l 1
 43 742 l 1
 503 742 l 25
EndSplineSet
Validated: 1
EndChar

StartChar: G
Encoding: 71 71 38
Width: 588
Flags: HMW
LayerCount: 2
Fore
SplineSet
499 742 m 29
 543 670 l 1
 301 670 l 2
 268 668 240 658 216 640 c 0
 192 622 174 597 161 568 c 0
 148 539 140 509 134 478 c 0
 128 447 125 414 125 379 c 0
 125 342 128 307 135 273 c 0
 142 239 152 207 166 176 c 0
 180 145 199 121 224 102 c 0
 249 83 279 74 312 74 c 2
 465 74 l 1
 432 371 l 1
 305 371 l 1
 274 446 l 1
 501 446 l 1
 547 74 l 1
 547 0 l 1
 312 0 l 2
 255 0 205 19 163 58 c 0
 121 97 91 144 72 200 c 0
 53 256 43 316 43 379 c 0
 43 440 52 497 69 550 c 0
 86 603 115 649 154 686 c 0
 193 723 240 742 295 742 c 2
 499 742 l 29
EndSplineSet
Validated: 1
EndChar

StartChar: H
Encoding: 72 72 39
Width: 588
Flags: HMW
LayerCount: 2
Fore
SplineSet
465 437 m 1
 465 742 l 1
 547 742 l 1
 547 0 l 1
 465 0 l 1
 465 364 l 1
 125 364 l 1
 125 0 l 1
 43 0 l 1
 43 742 l 1
 125 742 l 1
 125 437 l 1
 465 437 l 1
EndSplineSet
Validated: 1
EndChar

StartChar: I
Encoding: 73 73 40
Width: 588
Flags: HMW
LayerCount: 2
Fore
SplineSet
513 742 m 25
 557 670 l 1
 334 670 l 1
 334 74 l 1
 513 74 l 1
 557 0 l 1
 75 0 l 1
 31 74 l 1
 252 74 l 1
 252 670 l 1
 75 670 l 1
 31 742 l 1
 513 742 l 25
EndSplineSet
Validated: 1
EndChar

StartChar: J
Encoding: 74 74 41
Width: 588
Flags: HMW
LayerCount: 2
Fore
SplineSet
545 741 m 25
 589 669 l 1
 500 669 l 1
 500 247 l 2
 500 80 432 -4 295 -4 c 0
 222 -4 170 19 136 64 c 0
 102 109 85 170 85 247 c 1
 167 247 l 1
 167 183 178 137 199 110 c 0
 220 83 252 69 295 69 c 0
 337 69 368 83 388 110 c 0
 408 137 418 182 418 247 c 2
 418 669 l 1
 129 669 l 1
 85 741 l 1
 545 741 l 25
EndSplineSet
Validated: 1
EndChar

StartChar: K
Encoding: 75 75 42
Width: 588
Flags: HMW
LayerCount: 2
Fore
SplineSet
542 742 m 5
 303 401 l 5
 553 0 l 5
 464 0 l 5
 233 364 l 5
 125 364 l 5
 125 0 l 5
 43 0 l 5
 43 742 l 5
 125 742 l 5
 125 437 l 5
 233 437 l 5
 453 742 l 5
 542 742 l 5
EndSplineSet
Validated: 1
EndChar

StartChar: L
Encoding: 76 76 43
Width: 588
Flags: HMW
LayerCount: 2
Fore
SplineSet
159 742 m 25
 159 74 l 1
 495 74 l 1
 538 0 l 1
 77 0 l 1
 77 742 l 1
 159 742 l 25
EndSplineSet
Validated: 1
EndChar

StartChar: M
Encoding: 77 77 44
Width: 588
Flags: HMW
LayerCount: 2
Fore
SplineSet
547 741 m 29
 547 0 l 5
 465 0 l 5
 465 600 l 5
 295 324 l 5
 125 600 l 5
 125 0 l 5
 43 0 l 5
 43 741 l 5
 125 741 l 5
 295 461 l 5
 465 741 l 5
 547 741 l 29
EndSplineSet
Validated: 1
EndChar

StartChar: N
Encoding: 78 78 45
Width: 588
Flags: HMW
LayerCount: 2
Fore
SplineSet
547 742 m 29
 547 0 l 5
 465 0 l 5
 125 590 l 5
 125 0 l 5
 43 0 l 5
 43 742 l 5
 125 742 l 5
 465 153 l 5
 465 742 l 5
 547 742 l 29
EndSplineSet
Validated: 1
EndChar

StartChar: O
Encoding: 79 79 46
Width: 588
Flags: HMW
LayerCount: 2
Fore
SplineSet
295 749 m 0
 340 749 381 738 416 715 c 0
 449 694 476 665 498 626 c 0
 517 595 530 554 539 504 c 0
 545 471 548 426 549 370 c 0
 549 307 542 248 529 193 c 0
 515 137 487 90 446 52 c 0
 405 13 354 -6 295 -6 c 0
 234 -6 183 13 142 52 c 0
 101 90 73 137 59 193 c 0
 46 248 39 307 39 370 c 0
 40 426 43 471 49 504 c 0
 58 554 71 595 90 626 c 0
 112 665 139 694 172 715 c 0
 207 738 248 749 295 749 c 0
295 679 m 256
 214 679 167 627 146 523 c 0
 135 471 130 420 130 370 c 0
 131 304 136 248 146 202 c 0
 167 110 214 64 295 64 c 256
 376 64 422 110 442 202 c 0
 452 245 457 301 458 370 c 0
 458 417 453 468 442 523 c 0
 422 627 376 679 295 679 c 256
EndSplineSet
Validated: 1
EndChar

StartChar: P
Encoding: 80 80 47
Width: 588
Flags: HMW
LayerCount: 2
Fore
SplineSet
454 548 m 24
 454 580 445 608 426 633 c 0
 407 658 382 670 353 670 c 2
 135 670 l 1
 135 418 l 1
 353 418 l 2
 384 418 408 431 426 457 c 0
 444 483 454 513 454 548 c 24
369 742 m 26
 418 742 458 723 489 684 c 0
 520 645 536 600 536 548 c 0
 536 494 520 447 489 406 c 0
 458 365 418 344 369 344 c 2
 135 344 l 1
 135 0 l 1
 53 0 l 1
 53 742 l 1
 369 742 l 26
EndSplineSet
Validated: 1
EndChar

StartChar: Q
Encoding: 81 81 48
Width: 588
Flags: HMW
LayerCount: 2
Fore
SplineSet
295 678 m 0
 262 678 234 666 210 644 c 0
 186 622 170 594 158 560 c 0
 146 526 137 492 132 460 c 0
 127 428 125 399 125 370 c 0
 125 163 182 60 295 60 c 0
 330 60 357 70 376 89 c 1
 330 156 l 1
 267 156 l 1
 214 225 l 1
 336 225 l 1
 412 126 l 1
 430 159 442 192 450 225 c 0
 458 258 462 306 462 370 c 0
 462 409 460 445 455 478 c 0
 450 511 442 543 431 575 c 0
 420 607 403 632 380 650 c 0
 357 668 328 678 295 678 c 0
295 752 m 0
 337 752 375 741 408 718 c 0
 441 695 467 664 486 626 c 0
 505 588 520 548 530 504 c 0
 540 460 544 416 544 370 c 0
 544 241 516 142 461 73 c 1
 530 73 l 1
 592 -13 l 1
 455 -13 l 1
 424 35 l 1
 393 3 350 -13 295 -13 c 0
 253 -13 215 -1 182 22 c 0
 149 45 122 75 102 113 c 0
 82 151 68 192 58 236 c 0
 48 280 43 324 43 370 c 0
 43 416 48 460 58 504 c 0
 68 548 82 588 102 626 c 0
 122 664 149 695 182 718 c 0
 215 741 253 752 295 752 c 0
EndSplineSet
Validated: 1
EndChar

StartChar: R
Encoding: 82 82 49
Width: 588
Flags: HMW
LayerCount: 2
Fore
SplineSet
329 742 m 6
 389 742 435 725 468 690 c 0
 501 655 517 614 517 569 c 0
 517 502 486 453 423 422 c 1
 423 409 l 1
 463 394 493 368 514 332 c 0
 535 296 546 254 546 206 c 2
 546 0 l 1
 464 0 l 1
 464 206 l 2
 464 249 447 288 414 322 c 0
 381 356 346 374 310 374 c 2
 125 374 l 1
 125 0 l 1
 43 0 l 1
 43 742 l 1
 329 742 l 6
435 569 m 4
 435 594 424 617 404 638 c 0
 384 659 360 670 333 670 c 2
 125 670 l 1
 125 446 l 1
 335 446 l 2
 360 446 382 458 403 482 c 0
 424 506 434 535 435 569 c 4
EndSplineSet
Validated: 1
EndChar

StartChar: S
Encoding: 83 83 50
Width: 588
Flags: HMW
LayerCount: 2
Fore
SplineSet
503 742 m 25
 547 668 l 1
 274 668 l 2
 182 668 136 628 136 548 c 0
 136 478 179 443 264 443 c 2
 320 443 l 2
 465 443 540 370 547 223 c 257
 534 74 450 0 295 0 c 2
 42 0 l 1
 86 74 l 1
 295 74 l 2
 395 74 452 124 465 223 c 257
 465 320 420 369 331 369 c 2
 268 369 l 2
 126 369 55 428 54 547 c 256
 54 677 127 742 274 742 c 2
 503 742 l 25
EndSplineSet
Validated: 1
EndChar

StartChar: T
Encoding: 84 84 51
Width: 588
Flags: HMW
LayerCount: 2
Fore
SplineSet
252 669 m 29
 75 669 l 1
 31 742 l 1
 513 742 l 1
 557 669 l 1
 335 669 l 1
 335 0 l 1
 252 0 l 1
 252 669 l 29
EndSplineSet
Validated: 1
EndChar

StartChar: U
Encoding: 85 85 52
Width: 588
Flags: HMW
LayerCount: 2
Fore
SplineSet
546 740 m 25
 546 289 l 2
 544 195 521 122 477 71 c 0
 433 20 372 -6 295 -6 c 0
 219 -6 159 20 114 72 c 0
 69 124 45 196 43 289 c 2
 43 740 l 1
 125 740 l 1
 125 289 l 2
 126 218 141 164 170 125 c 0
 199 86 240 67 295 67 c 0
 404 67 460 141 464 289 c 1
 464 740 l 1
 546 740 l 25
EndSplineSet
Validated: 1
EndChar

StartChar: V
Encoding: 86 86 53
Width: 588
Flags: HMW
LayerCount: 2
Fore
SplineSet
547 742 m 29
 294 -15 l 5
 41 742 l 5
 123 742 l 5
 294 223 l 5
 465 742 l 5
 547 742 l 29
EndSplineSet
Validated: 1
EndChar

StartChar: W
Encoding: 87 87 54
Width: 588
Flags: HMW
LayerCount: 2
Fore
SplineSet
546 741 m 29
 501 0 l 5
 381 0 l 5
 294 279 l 5
 207 0 l 5
 87 0 l 5
 42 741 l 5
 124 741 l 5
 159 99 l 5
 294 494 l 5
 429 99 l 5
 464 741 l 5
 546 741 l 29
EndSplineSet
Validated: 1
EndChar

StartChar: X
Encoding: 88 88 55
Width: 588
Flags: HMW
LayerCount: 2
Fore
SplineSet
295 463 m 1
 463 742 l 1
 546 742 l 1
 343 396 l 1
 546 0 l 1
 463 0 l 1
 295 332 l 1
 125 0 l 1
 43 0 l 1
 245 396 l 1
 43 742 l 1
 125 742 l 1
 295 463 l 1
EndSplineSet
Validated: 1
EndChar

StartChar: Y
Encoding: 89 89 56
Width: 588
Flags: HMW
LayerCount: 2
Fore
SplineSet
547 742 m 25
 336 353 l 1
 336 0 l 1
 254 0 l 1
 254 353 l 1
 42 742 l 1
 124 742 l 1
 295 434 l 1
 465 742 l 1
 547 742 l 25
EndSplineSet
Validated: 1
EndChar

StartChar: Z
Encoding: 90 90 57
Width: 588
Flags: HMW
LayerCount: 2
Fore
SplineSet
503 742 m 29
 547 669 l 5
 134 74 l 5
 503 74 l 5
 547 0 l 5
 87 0 l 5
 43 74 l 5
 455 669 l 5
 87 669 l 5
 43 742 l 5
 503 742 l 29
EndSplineSet
Validated: 1
EndChar

StartChar: bracketleft
Encoding: 91 91 58
Width: 588
Flags: HMW
LayerCount: 2
Fore
SplineSet
395 888 m 29
 395 806 l 1
 277 806 l 1
 277 -64 l 1
 395 -64 l 1
 395 -146 l 1
 195 -146 l 1
 195 888 l 1
 395 888 l 29
EndSplineSet
Validated: 1
EndChar

StartChar: backslash
Encoding: 92 92 59
Width: 588
Flags: HMW
LayerCount: 2
Fore
SplineSet
52 888 m 25
 141 888 l 1
 536 -146 l 1
 447 -146 l 1
 52 888 l 25
EndSplineSet
Validated: 1
EndChar

StartChar: bracketright
Encoding: 93 93 60
Width: 588
Flags: HMW
LayerCount: 2
Fore
SplineSet
193 888 m 29
 393 888 l 1
 393 -146 l 1
 193 -146 l 1
 193 -64 l 1
 311 -64 l 1
 311 806 l 1
 193 806 l 1
 193 888 l 29
EndSplineSet
Validated: 1
EndChar

StartChar: asciicircum
Encoding: 94 94 61
Width: 588
Flags: HMW
LayerCount: 2
Fore
SplineSet
295 819 m 25
 538 555 l 1
 441 555 l 1
 295 722 l 1
 148 555 l 1
 51 555 l 1
 295 819 l 25
EndSplineSet
Validated: 1
EndChar

StartChar: underscore
Encoding: 95 95 62
Width: 588
Flags: HMW
LayerCount: 2
Fore
SplineSet
546 0 m 25
 42 0 l 1
 42 73 l 1
 546 73 l 1
 546 0 l 25
EndSplineSet
Validated: 1
EndChar

StartChar: a
Encoding: 97 97 64
Width: 588
Flags: HMW
LayerCount: 2
Fore
SplineSet
496 473 m 5
 470 446 l 5
 470 152 l 6
 470 103 484 74 513 63 c 5
 565 63 l 5
 506 -8 l 5
 447 0 417 46 417 129 c 5
 391 39 347 -6 285 -6 c 4
 220 -6 166 18 123 67 c 4
 76 120 53 178 53 241 c 4
 53 298 73 352 112 403 c 4
 151 454 199 479 256 479 c 4
 277 479 303 471 332 456 c 4
 361 441 379 430 388 421 c 5
 388 473 l 5
 496 473 l 5
253 410 m 4
 235 410 214 402 191 385 c 4
 176 374 163 358 154 335 c 4
 141 304 135 268 135 227 c 4
 135 180 149 138 177 102 c 4
 196 79 228 67 274 67 c 4
 315 67 351 110 382 196 c 4
 392 225 397 258 397 296 c 4
 397 322 387 344 367 362 c 4
 347 380 329 393 312 400 c 4
 295 407 276 410 253 410 c 4
EndSplineSet
Validated: 1
EndChar

StartChar: b
Encoding: 98 98 65
Width: 588
Flags: HMW
LayerCount: 2
Fore
SplineSet
80 742 m 1
 187 742 l 1
 187 421 l 1
 194 428 217 439 257 455 c 0
 297 471 325 479 340 479 c 0
 401 479 448 458 482 416 c 0
 516 374 533 315 533 241 c 0
 533 176 505 118 450 68 c 0
 395 18 335 -6 271 -6 c 0
 223 -6 181 22 145 78 c 1
 144 29 126 0 90 -8 c 1
 26 54 l 1
 72 54 l 1
 92 75 103 104 105 142 c 2
 105 717 l 1
 80 742 l 1
359 407 m 0
 343 407 321 403 294 396 c 0
 267 389 242 376 218 358 c 0
 194 340 183 320 183 296 c 0
 183 276 184 260 184 249 c 0
 184 238 185 221 186 200 c 0
 187 179 190 163 193 150 c 0
 196 137 200 123 206 109 c 0
 212 95 220 85 230 78 c 0
 240 71 251 67 264 67 c 0
 311 67 355 84 394 119 c 0
 433 154 452 192 452 234 c 0
 452 349 421 407 359 407 c 0
EndSplineSet
Validated: 1
EndChar

StartChar: c
Encoding: 99 99 66
Width: 588
Flags: HMW
LayerCount: 2
Fore
SplineSet
297 479 m 31
 342 479 387 462 432 430 c 0
 477 398 500 370 500 345 c 1
 413 263 l 1
 413 331 l 1
 406 350 390 368 366 384 c 0
 342 400 320 407 297 407 c 0
 251 407 216 392 191 360 c 0
 166 328 154 289 154 243 c 0
 154 194 165 152 188 118 c 0
 211 84 248 67 297 67 c 0
 327 67 354 76 379 94 c 0
 404 112 422 133 433 159 c 1
 526 159 l 1
 511 118 481 80 438 46 c 0
 395 12 347 -6 295 -6 c 0
 230 -6 177 18 135 66 c 0
 93 114 72 172 72 243 c 0
 72 314 93 371 136 414 c 0
 179 457 232 479 297 479 c 31
EndSplineSet
Validated: 1
EndChar

StartChar: d
Encoding: 100 100 67
Width: 588
Flags: HMW
LayerCount: 2
Fore
SplineSet
508 742 m 5
 483 717 l 1
 483 142 l 2
 485 104 496 75 516 54 c 1
 562 54 l 1
 498 -8 l 1
 462 0 444 29 443 78 c 1
 407 22 365 -6 317 -6 c 0
 253 -6 193 18 138 68 c 0
 83 118 55 176 55 241 c 0
 55 315 72 374 106 416 c 0
 140 458 187 479 248 479 c 0
 263 479 291 471 331 455 c 0
 371 439 394 428 401 421 c 1
 401 742 l 1
 508 742 l 5
229 407 m 4
 167 407 136 349 136 234 c 0
 136 192 155 154 194 119 c 0
 233 84 277 67 324 67 c 0
 337 67 348 71 358 78 c 0
 368 85 376 95 382 109 c 0
 388 123 392 137 395 150 c 0
 398 163 401 179 402 200 c 0
 403 221 404 238 404 249 c 0
 404 260 405 276 405 296 c 0
 405 320 394 340 370 358 c 0
 346 376 321 389 294 396 c 0
 267 403 245 407 229 407 c 4
EndSplineSet
Validated: 1
EndChar

StartChar: e
Encoding: 101 101 68
Width: 588
Flags: HMW
LayerCount: 2
Fore
SplineSet
295 479 m 4
 320 479 343 475 366 467 c 0
 389 459 408 449 423 437 c 0
 438 425 452 412 464 398 c 0
 476 384 485 367 492 350 c 0
 499 333 502 319 502 310 c 1
 176 126 l 1
 179 113 191 99 210 83 c 0
 218 76 230 70 245 64 c 0
 260 58 277 56 295 56 c 0
 332 56 363 65 390 82 c 0
 417 99 431 117 431 134 c 1
 537 165 l 1
 520 121 490 81 448 46 c 0
 406 11 355 -6 295 -6 c 0
 230 -6 176 16 134 62 c 0
 92 108 72 166 72 236 c 0
 72 307 92 366 134 411 c 0
 176 456 230 479 295 479 c 4
408 350 m 5
 408 352 407 355 406 358 c 0
 405 361 403 366 398 374 c 0
 393 382 386 388 379 394 c 0
 372 400 361 405 346 410 c 0
 331 415 314 417 295 417 c 0
 260 417 230 407 208 386 c 0
 186 365 171 342 164 317 c 0
 157 292 154 265 154 236 c 0
 154 215 155 198 156 185 c 1
 408 350 l 5
EndSplineSet
Validated: 1
EndChar

StartChar: f
Encoding: 102 102 69
Width: 588
Flags: HMW
LayerCount: 2
Fore
SplineSet
377 745 m 0
 400 745 421 740 440 730 c 0
 459 720 474 708 486 694 c 0
 498 680 506 666 513 654 c 0
 520 642 524 631 527 620 c 1
 445 552 l 1
 445 601 l 2
 445 649 422 673 377 673 c 0
 329 673 305 649 305 601 c 2
 305 463 l 1
 499 463 l 1
 461 390 l 1
 305 390 l 1
 305 34 l 1
 334 0 l 1
 194 0 l 1
 223 34 l 1
 223 390 l 1
 83 390 l 1
 83 463 l 1
 223 463 l 1
 223 621 l 2
 223 654 236 683 264 708 c 0
 292 733 330 745 377 745 c 0
EndSplineSet
Validated: 1
EndChar

StartChar: g
Encoding: 103 103 70
Width: 588
Flags: HMW
LayerCount: 2
Fore
SplineSet
404 118 m 1
 401 111 401 111 398 104 c 0
 387 83 372 66 353 54 c 0
 330 40 304 33 277 33 c 0
 219 33 170 56 130 102 c 0
 90 148 70 200 70 259 c 0
 70 316 90 367 129 412 c 0
 168 457 218 479 277 479 c 0
 304 479 330 472 353 459 c 0
 376 446 393 425 404 397 c 1
 404 473 l 1
 510 473 l 1
 486 446 l 1
 486 -110 l 2
 486 -134 468 -158 430 -182 c 0
 392 -206 342 -217 279 -218 c 0
 223 -218 177 -205 140 -178 c 0
 103 -151 79 -124 70 -99 c 1
 152 -31 l 1
 152 -99 l 1
 158 -106 163 -110 167 -113 c 0
 174 -118 188 -126 210 -134 c 0
 232 -142 255 -146 279 -146 c 0
 318 -145 349 -138 371 -125 c 0
 393 -112 404 -95 404 -75 c 2
 404 118 l 1
277 407 m 256
 232 407 201 394 182 368 c 0
 162 341 152 305 152 259 c 0
 152 213 162 176 183 148 c 0
 204 120 235 105 277 105 c 256
 318 105 348 117 368 140 c 0
 388 163 398 202 398 257 c 0
 398 357 358 407 277 407 c 256
EndSplineSet
Validated: 1
EndChar

StartChar: h
Encoding: 104 104 71
Width: 588
Flags: HMW
LayerCount: 2
Fore
SplineSet
172 742 m 5
 172 413 l 5
 189 432 211 448 236 460 c 4
 261 472 285 479 308 479 c 4
 371 479 419 457 452 412 c 4
 485 367 501 313 502 252 c 6
 502 30 l 5
 524 0 l 5
 393 0 l 5
 420 30 l 5
 420 252 l 6
 420 355 383 407 308 407 c 4
 273 407 241 394 214 368 c 4
 187 342 174 304 174 255 c 6
 174 30 l 5
 196 0 l 5
 67 0 l 5
 90 30 l 5
 90 720 l 5
 65 742 l 5
 172 742 l 5
EndSplineSet
Validated: 1
EndChar

StartChar: i
Encoding: 105 105 72
Width: 588
Flags: HMW
LayerCount: 2
Fore
SplineSet
270 693 m 24
 284 693 298 687 312 674 c 0
 326 661 334 647 334 630 c 0
 334 613 326 599 312 586 c 0
 298 573 284 567 270 567 c 0
 256 567 242 574 227 586 c 0
 212 598 205 613 205 630 c 0
 205 647 212 662 227 674 c 0
 242 686 256 693 270 693 c 24
327 473 m 25
 327 83 l 1
 413 83 l 1
 375 0 l 1
 247 0 l 1
 247 390 l 1
 182 390 l 1
 182 473 l 1
 327 473 l 25
EndSplineSet
Validated: 1
EndChar

StartChar: j
Encoding: 106 106 73
Width: 588
Flags: HMW
LayerCount: 2
Fore
SplineSet
464 697 m 28
 483 697 500 691 514 678 c 4
 528 665 536 650 536 631 c 4
 536 612 528 597 514 584 c 4
 500 571 483 565 464 565 c 4
 444 565 426 572 412 584 c 4
 398 596 391 612 391 631 c 4
 391 650 398 666 412 678 c 4
 426 690 444 697 464 697 c 28
80 35 m 4
 80 52 85 69 95 85 c 4
 105 101 120 109 140 109 c 4
 150 109 163 106 180 99 c 4
 197 92 205 85 205 78 c 4
 205 71 198 63 184 55 c 4
 170 47 162 37 162 25 c 4
 162 -75 219 -125 293 -125 c 4
 328 -125 376 -112 394 -87 c 4
 412 -62 423 -29 423 12 c 6
 423 443 l 5
 400 473 l 5
 527 473 l 5
 505 443 l 5
 505 12 l 6
 505 -47 486 -100 447 -141 c 4
 408 -182 342 -198 293 -198 c 4
 238 -198 173 -178 136 -140 c 4
 99 -102 80 -44 80 35 c 4
EndSplineSet
Validated: 1
EndChar

StartChar: k
Encoding: 107 107 74
Width: 588
Flags: HMW
LayerCount: 2
Fore
SplineSet
388 441 m 5
 364 473 l 1
 493 473 l 1
 470 441 l 1
 469 374 430 319 353 274 c 1
 394 246 427 210 452 166 c 0
 477 122 490 77 493 30 c 1
 516 0 l 1
 388 0 l 1
 414 30 l 1
 412 113 375 182 302 237 c 1
 177 237 l 1
 177 30 l 1
 199 0 l 1
 73 0 l 1
 95 30 l 1
 95 714 l 1
 73 742 l 1
 199 742 l 1
 177 714 l 1
 177 309 l 1
 281 309 l 1
 322 326 350 346 365 368 c 0
 380 390 388 414 388 441 c 5
EndSplineSet
Validated: 1
EndChar

StartChar: l
Encoding: 108 108 75
Width: 588
Flags: HMW
LayerCount: 2
Fore
SplineSet
289 742 m 29
 264 714 l 5
 264 158 l 6
 264 135 267 118 272 106 c 4
 277 94 285 85 294 78 c 4
 303 71 315 67 331 67 c 4
 374 67 396 86 396 123 c 6
 396 191 l 5
 478 108 l 5
 471 83 455 58 429 32 c 4
 403 6 369 -6 327 -6 c 4
 278 -6 244 4 224 24 c 4
 213 35 205 45 198 56 c 4
 191 68 187 85 184 106 c 4
 180 138 178 181 178 234 c 6
 178 714 l 5
 153 742 l 5
 289 742 l 29
EndSplineSet
Validated: 1
EndChar

StartChar: m
Encoding: 109 109 76
Width: 588
Flags: HMW
LayerCount: 2
Fore
SplineSet
122 473 m 25
 122 432 l 1
 127 443 138 454 155 464 c 0
 172 474 186 479 197 479 c 0
 218 478 235 472 250 462 c 0
 265 452 281 436 297 415 c 1
 329 457 364 478 402 479 c 0
 431 479 458 470 482 451 c 0
 506 432 522 409 530 380 c 0
 538 351 543 326 546 303 c 0
 549 280 551 259 551 240 c 2
 551 30 l 1
 576 0 l 1
 446 0 l 1
 469 30 l 1
 469 240 l 2
 469 351 447 407 402 407 c 0
 360 407 339 351 339 240 c 2
 339 30 l 1
 360 0 l 1
 231 0 l 1
 257 30 l 1
 257 240 l 2
 257 351 236 407 195 407 c 0
 146 407 122 351 122 240 c 2
 122 30 l 1
 145 0 l 1
 15 0 l 1
 40 30 l 1
 40 448 l 1
 14 473 l 1
 122 473 l 25
EndSplineSet
Validated: 1
EndChar

StartChar: n
Encoding: 110 110 77
Width: 588
Flags: HMW
LayerCount: 2
Fore
SplineSet
306 479 m 0
 351 479 389 467 420 442 c 0
 451 417 473 388 486 352 c 0
 499 316 506 276 506 232 c 2
 506 30 l 1
 530 0 l 1
 399 0 l 1
 424 30 l 1
 424 232 l 2
 424 288 414 332 394 364 c 0
 374 396 344 411 306 411 c 0
 260 411 229 396 212 366 c 0
 195 336 186 291 186 232 c 2
 186 30 l 1
 210 0 l 1
 83 0 l 1
 104 30 l 1
 104 448 l 1
 79 473 l 1
 185 473 l 1
 185 420 l 1
 221 459 261 479 306 479 c 0
EndSplineSet
Validated: 1
EndChar

StartChar: o
Encoding: 111 111 78
Width: 588
Flags: HMW
LayerCount: 2
Fore
SplineSet
289 417 m 4
 206 417 164 355 164 230 c 0
 164 175 173 132 192 102 c 0
 211 72 243 56 289 56 c 0
 336 56 370 71 392 102 c 0
 414 133 425 176 425 230 c 0
 425 285 414 330 392 365 c 0
 370 400 335 417 289 417 c 4
289 479 m 4
 352 479 406 453 450 402 c 0
 494 351 517 294 517 230 c 0
 517 167 495 112 451 65 c 0
 407 18 353 -6 289 -6 c 0
 226 -6 174 17 133 64 c 0
 92 111 72 166 72 230 c 0
 72 295 93 352 134 403 c 0
 175 454 226 479 289 479 c 4
EndSplineSet
Validated: 1
EndChar

StartChar: p
Encoding: 112 112 79
Width: 588
Flags: HMW
LayerCount: 2
Fore
SplineSet
321 479 m 0
 378 479 425 453 462 401 c 0
 499 349 518 293 518 234 c 0
 518 176 499 121 462 70 c 0
 425 19 378 -6 321 -6 c 0
 292 -6 265 1 239 14 c 0
 213 27 195 47 184 74 c 1
 184 -181 l 1
 208 -212 l 1
 76 -212 l 1
 102 -181 l 1
 102 448 l 1
 76 473 l 1
 184 473 l 1
 184 401 l 1
 204 453 250 479 321 479 c 0
312 406 m 0
 268 406 237 388 218 353 c 0
 199 318 189 278 189 234 c 0
 189 191 199 152 218 118 c 0
 237 84 268 67 311 67 c 0
 354 67 386 83 405 116 c 0
 424 149 434 189 434 234 c 0
 434 280 425 320 406 354 c 0
 387 388 356 406 312 406 c 0
EndSplineSet
Validated: 1
EndChar

StartChar: q
Encoding: 113 113 80
Width: 588
Flags: HMW
LayerCount: 2
Fore
SplineSet
505 473 m 1
 482 450 l 1
 482 -9 l 2
 482 -99 499 -144 533 -145 c 0
 568 -145 586 -116 586 -59 c 1
 667 -102 l 1
 660 -127 644 -152 620 -178 c 0
 596 -204 565 -218 528 -218 c 0
 443 -217 400 -148 400 -9 c 2
 400 74 l 1
 389 47 372 27 346 14 c 0
 320 1 293 -6 264 -6 c 0
 207 -6 160 19 124 70 c 0
 88 121 70 176 70 234 c 0
 70 272 77 309 92 346 c 0
 107 383 130 414 160 440 c 0
 190 466 225 479 264 479 c 0
 335 479 380 453 400 402 c 1
 400 473 l 1
 505 473 l 1
270 406 m 4
 228 406 197 390 180 356 c 4
 163 322 154 281 154 234 c 0
 154 187 163 148 180 116 c 0
 197 84 228 67 270 67 c 0
 312 67 344 84 366 118 c 0
 388 152 398 191 398 234 c 0
 398 278 388 318 366 353 c 4
 344 388 312 406 270 406 c 4
EndSplineSet
Validated: 1
EndChar

StartChar: r
Encoding: 114 114 81
Width: 588
Flags: HMW
LayerCount: 2
Fore
SplineSet
316 479 m 0
 376 478 423 460 458 424 c 0
 493 388 510 353 511 319 c 0
 511 306 504 294 488 284 c 0
 472 274 453 269 430 269 c 0
 423 269 416 272 412 278 c 0
 408 284 406 289 406 293 c 0
 406 299 410 305 418 312 c 0
 426 319 429 325 429 330 c 0
 429 357 418 376 396 388 c 0
 374 400 347 407 316 407 c 0
 289 407 266 399 246 384 c 0
 226 369 211 351 202 329 c 0
 193 307 186 286 182 267 c 0
 178 248 175 230 175 215 c 2
 175 32 l 1
 200 0 l 1
 71 0 l 1
 93 32 l 1
 93 450 l 1
 77 463 69 470 69 473 c 1
 175 473 l 1
 175 399 l 1
 182 417 200 434 232 452 c 0
 264 470 292 479 316 479 c 0
EndSplineSet
Validated: 1
EndChar

StartChar: s
Encoding: 115 115 82
Width: 588
Flags: HMW
LayerCount: 2
Fore
SplineSet
386 479 m 6
 399 479 422 471 454 454 c 0
 466 448 477 436 486 418 c 0
 495 400 500 384 501 369 c 0
 501 355 497 344 488 338 c 0
 479 332 463 329 441 329 c 0
 433 329 426 330 420 332 c 0
 414 334 410 338 410 341 c 0
 410 347 414 352 422 356 c 0
 430 360 433 364 433 369 c 0
 433 376 428 385 416 394 c 0
 404 403 391 407 377 407 c 2
 236 407 l 2
 214 407 197 401 186 390 c 0
 175 379 169 364 169 345 c 0
 169 326 175 310 186 298 c 0
 197 286 214 281 236 281 c 2
 358 281 l 2
 398 281 432 267 460 239 c 0
 488 211 501 179 501 142 c 0
 501 105 486 71 458 40 c 0
 430 9 397 -6 358 -6 c 2
 201 -6 l 2
 191 -6 169 2 136 19 c 0
 124 25 113 38 103 56 c 0
 93 74 88 90 87 104 c 0
 87 131 110 144 155 144 c 0
 172 144 180 140 180 132 c 0
 180 126 176 122 168 118 c 0
 160 114 155 109 155 104 c 0
 155 97 162 89 174 80 c 0
 186 71 199 67 213 67 c 2
 360 67 l 2
 399 67 419 90 419 136 c 0
 419 157 414 174 404 188 c 0
 394 202 379 208 358 208 c 2
 245 208 l 2
 204 208 168 222 136 250 c 0
 104 278 87 310 87 345 c 0
 87 380 103 411 135 438 c 0
 167 465 204 479 245 479 c 2
 386 479 l 6
EndSplineSet
Validated: 1
EndChar

StartChar: t
Encoding: 116 116 83
Width: 588
Flags: HMW
LayerCount: 2
Fore
SplineSet
310 742 m 1
 288 713 l 1
 288 463 l 1
 510 463 l 1
 472 390 l 1
 288 390 l 1
 288 164 l 1
 288 132 l 2
 288 125 289 116 292 106 c 0
 295 96 298 90 302 85 c 0
 306 80 313 76 322 72 c 0
 331 68 341 67 354 67 c 0
 369 67 382 73 394 85 c 0
 406 97 415 109 420 121 c 2
 427 139 l 1
 427 208 l 1
 501 134 l 1
 497 119 489 102 477 82 c 0
 465 62 448 42 424 23 c 0
 400 4 375 -6 349 -6 c 0
 312 -6 279 6 250 28 c 0
 221 50 206 80 206 119 c 2
 206 390 l 1
 78 390 l 1
 78 463 l 1
 206 463 l 1
 206 713 l 1
 178 742 l 1
 310 742 l 1
EndSplineSet
Validated: 1
EndChar

StartChar: u
Encoding: 117 117 84
Width: 588
Flags: HMW
LayerCount: 2
Fore
SplineSet
520 473 m 25
 498 442 l 1
 498 15 l 1
 522 -6 l 1
 416 -6 l 1
 416 63 l 1
 374 17 332 -6 289 -6 c 0
 223 -6 173 18 140 66 c 0
 107 114 90 173 90 242 c 2
 90 442 l 1
 67 473 l 1
 198 473 l 1
 172 442 l 1
 172 248 l 2
 172 191 182 147 202 115 c 0
 222 83 251 67 289 67 c 0
 332 67 363 83 384 116 c 0
 405 149 416 193 416 248 c 2
 416 442 l 1
 393 473 l 1
 520 473 l 25
EndSplineSet
Validated: 1
EndChar

StartChar: v
Encoding: 118 118 85
Width: 588
Flags: HMW
LayerCount: 2
Fore
SplineSet
521 473 m 29
 496 441 l 1
 496 369 l 2
 496 315 474 246 432 163 c 0
 390 80 344 23 295 -6 c 1
 246 23 200 80 157 163 c 0
 114 246 93 315 93 369 c 2
 93 441 l 1
 68 473 l 1
 202 473 l 1
 175 441 l 1
 175 369 l 2
 175 332 188 280 214 213 c 0
 240 146 266 100 295 75 c 1
 323 100 350 146 376 213 c 0
 402 280 414 332 414 369 c 2
 414 441 l 1
 385 473 l 1
 521 473 l 29
EndSplineSet
Validated: 1
EndChar

StartChar: w
Encoding: 119 119 86
Width: 588
Flags: HMW
LayerCount: 2
Fore
SplineSet
556 473 m 25
 534 441 l 1
 534 217 l 2
 534 97 489 23 400 -6 c 1
 372 8 350 23 332 39 c 0
 314 55 301 75 294 99 c 1
 280 54 248 19 197 -6 c 1
 102 25 55 99 55 217 c 2
 55 441 l 1
 33 473 l 1
 161 473 l 1
 137 441 l 1
 137 217 l 2
 137 176 140 146 147 125 c 0
 154 104 170 85 197 67 c 1
 222 90 238 111 244 130 c 0
 250 149 254 178 254 217 c 2
 254 441 l 1
 228 473 l 1
 357 473 l 1
 335 441 l 1
 335 217 l 2
 335 181 340 153 348 133 c 0
 356 113 373 91 400 67 c 1
 417 78 428 92 436 109 c 0
 444 126 449 140 450 153 c 0
 451 166 451 187 452 217 c 2
 452 441 l 1
 427 473 l 1
 556 473 l 25
EndSplineSet
Validated: 1
EndChar

StartChar: x
Encoding: 120 120 87
Width: 588
Flags: HMW
LayerCount: 2
Fore
SplineSet
292 292 m 1
 420 447 l 1
 425 489 l 1
 517 399 l 1
 478 394 l 1
 346 236 l 1
 477 78 l 1
 517 74 l 1
 425 -27 l 1
 420 25 l 1
 292 180 l 1
 167 25 l 1
 162 -27 l 1
 70 74 l 1
 110 78 l 1
 241 236 l 1
 109 394 l 1
 70 399 l 1
 162 489 l 1
 167 447 l 1
 292 292 l 1
EndSplineSet
Validated: 1
EndChar

StartChar: y
Encoding: 121 121 88
Width: 588
Flags: HMW
LayerCount: 2
Fore
SplineSet
519 473 m 29
 496 442 l 5
 496 10 l 6
 496 -62 478 -116 442 -152 c 4
 406 -188 354 -205 288 -205 c 4
 241 -204 199 -191 162 -166 c 4
 125 -141 105 -105 103 -59 c 5
 166 -23 l 5
 166 -96 207 -132 288 -132 c 4
 334 -132 367 -120 387 -95 c 4
 407 -70 417 -32 417 20 c 6
 417 110 l 5
 409 87 392 70 366 58 c 4
 340 46 315 41 288 41 c 4
 222 41 172 64 140 108 c 4
 108 152 92 207 92 272 c 6
 92 442 l 5
 69 473 l 5
 201 473 l 5
 174 442 l 5
 174 272 l 6
 174 217 183 177 202 152 c 4
 221 127 249 114 288 114 c 4
 372 114 414 167 414 272 c 6
 414 442 l 5
 391 473 l 5
 519 473 l 29
EndSplineSet
Validated: 1
EndChar

StartChar: z
Encoding: 122 122 89
Width: 588
Flags: HMW
LayerCount: 2
Fore
SplineSet
517 471 m 21
 515 401 401 270 174 78 c 1
 396 65 l 1
 421 70 433 76 433 84 c 0
 433 89 429 94 421 97 c 0
 413 100 409 105 409 111 c 0
 409 120 417 124 433 124 c 0
 454 124 472 118 484 106 c 0
 496 94 502 82 502 67 c 0
 501 34 488 12 464 -1 c 0
 447 -10 428 -14 407 -14 c 0
 292 -1 207 5 152 5 c 0
 99 5 72 29 72 78 c 1
 87 97 118 129 166 172 c 0
 214 215 261 257 306 298 c 0
 351 339 380 373 393 399 c 1
 187 399 l 1
 164 394 152 388 152 380 c 0
 152 375 156 370 163 366 c 0
 170 362 174 357 174 351 c 0
 174 342 167 337 152 337 c 0
 131 337 114 343 101 354 c 0
 88 365 82 378 82 393 c 0
 83 422 97 444 122 457 c 0
 140 466 158 471 177 471 c 2
 517 471 l 21
EndSplineSet
Validated: 1
EndChar

StartChar: braceleft
Encoding: 123 123 90
Width: 588
Flags: HMW
LayerCount: 2
Fore
SplineSet
235 372 m 5
 245 355 260 333 281 306 c 4
 302 279 318 256 330 238 c 4
 342 220 347 203 347 189 c 6
 312 0 l 6
 312 -1 314 -5 319 -14 c 4
 333 -40 358 -53 395 -53 c 5
 395 -146 l 5
 371 -146 346 -140 321 -128 c 4
 296 -116 271 -93 246 -58 c 4
 235 -42 229 -31 226 -24 c 6
 222 -11 l 5
 244 100 255 164 255 182 c 4
 255 200 249 218 236 236 c 4
 223 254 205 278 182 305 c 4
 159 332 141 355 130 372 c 5
 141 389 159 411 182 438 c 4
 205 465 223 488 236 506 c 4
 249 524 256 543 256 561 c 4
 256 579 245 643 222 754 c 5
 226 767 l 6
 228 774 235 785 246 801 c 4
 285 859 334 888 395 888 c 5
 395 796 l 5
 359 796 334 783 319 758 c 4
 314 749 312 744 312 743 c 6
 347 554 l 6
 347 540 342 524 330 506 c 4
 318 488 302 465 281 438 c 4
 260 411 245 389 235 372 c 5
EndSplineSet
Validated: 1
EndChar

StartChar: bar
Encoding: 124 124 91
Width: 588
Flags: HMW
LayerCount: 2
Fore
SplineSet
335 888 m 29
 335 -146 l 1
 253 -146 l 1
 253 888 l 1
 335 888 l 29
EndSplineSet
Validated: 1
EndChar

StartChar: braceright
Encoding: 125 125 92
Width: 588
Flags: HMW
LayerCount: 2
Fore
SplineSet
353 372 m 5
 343 389 328 411 307 438 c 4
 286 465 270 488 258 506 c 4
 246 524 241 540 241 554 c 6
 276 743 l 6
 276 744 274 749 269 758 c 4
 254 783 229 796 193 796 c 5
 193 888 l 5
 254 888 303 859 342 801 c 4
 353 785 360 774 362 767 c 6
 366 754 l 5
 343 643 332 579 332 561 c 4
 332 543 339 524 352 506 c 4
 365 488 383 465 406 438 c 4
 429 411 447 389 458 372 c 5
 447 355 429 332 406 305 c 4
 383 278 365 254 352 236 c 4
 339 218 333 200 333 182 c 4
 333 164 344 100 366 -11 c 5
 362 -24 l 6
 359 -31 353 -42 342 -58 c 4
 317 -93 292 -116 267 -128 c 4
 242 -140 217 -146 193 -146 c 5
 193 -53 l 5
 230 -53 255 -40 269 -14 c 4
 274 -5 276 -1 276 0 c 6
 241 189 l 6
 241 203 246 220 258 238 c 4
 270 256 286 279 307 306 c 4
 328 333 343 355 353 372 c 5
EndSplineSet
Validated: 1
EndChar

StartChar: asciitilde
Encoding: 126 126 93
Width: 588
Flags: HMW
LayerCount: 2
Fore
SplineSet
505 424 m 1
 526 424 536 412 536 387 c 0
 536 370 521 350 491 327 c 0
 461 304 432 293 404 293 c 0
 389 293 350 309 290 342 c 0
 230 375 195 391 185 391 c 0
 175 390 161 385 144 376 c 0
 127 367 112 357 100 347 c 2
 82 332 l 1
 63 332 54 344 54 369 c 0
 54 386 68 406 98 429 c 0
 128 452 157 463 185 463 c 0
 200 463 238 446 298 414 c 0
 358 382 394 366 404 366 c 0
 414 366 427 371 444 380 c 0
 461 391 475 401 487 410 c 2
 505 424 l 1
EndSplineSet
Validated: 1
EndChar

StartChar: periodcentered
Encoding: 183 183 95
Width: 588
Flags: HMW
LayerCount: 2
Fore
SplineSet
294 431 m 28
 307 431 318 427 327 417 c 4
 336 407 341 394 341 380 c 4
 341 366 336 353 327 343 c 4
 318 333 307 329 294 329 c 4
 281 329 270 333 261 343 c 4
 252 353 247 366 247 380 c 4
 247 394 252 407 261 417 c 4
 270 427 281 431 294 431 c 28
EndSplineSet
Validated: 1
EndChar

StartChar: exclamdown
Encoding: 161 161 97
Width: 588
Flags: HMW
LayerCount: 2
Fore
SplineSet
367 692 m 0
 367 654 333 625 295 625 c 24
 256 625 221 653 221 692 c 0
 221 731 256 757 295 757 c 0
 334 757 367 731 367 692 c 0
356 29 m 0
 356 9 317 2 295 2 c 0
 273 2 231 9 231 29 c 0
 231 85 253 489 253 545 c 0
 253 562 267 571 295 571 c 0
 322 571 335 562 335 545 c 0
 335 489 356 86 356 29 c 0
EndSplineSet
Validated: 1
EndChar

StartChar: uniFF01
Encoding: 65281 65281 98
Width: 1176
Flags: HMW
LayerCount: 2
Fore
SplineSet
589 126 m 24
 617 126 645 119 666 106 c 0
 687 93 697 78 697 59 c 0
 697 40 687 24 666 12 c 0
 645 0 617 -6 589 -6 c 0
 559 -6 533 0 511 12 c 0
 489 24 479 40 479 59 c 0
 479 78 489 94 511 107 c 0
 533 120 559 126 589 126 c 24
589 749 m 0
 611 749 631 747 651 742 c 0
 671 737 681 730 681 722 c 0
 681 680 676 594 666 464 c 0
 656 334 649 248 649 206 c 0
 649 189 629 180 589 180 c 0
 547 180 527 189 527 206 c 0
 527 248 520 334 510 464 c 0
 500 594 493 680 493 722 c 0
 493 730 504 737 525 742 c 0
 546 747 567 749 589 749 c 0
EndSplineSet
Validated: 1
EndChar

StartChar: uniFF02
Encoding: 65282 65282 99
Width: 1176
Flags: HMW
LayerCount: 2
Fore
SplineSet
763 799 m 0
 785 799 807 794 823 785 c 0
 839 776 849 765 849 753 c 0
 849 736 847 711 843 679 c 0
 839 647 830 612 816 574 c 0
 802 536 784 518 763 518 c 0
 747 518 733 529 721 550 c 0
 709 571 702 596 696 626 c 0
 690 656 687 681 684 703 c 0
 681 725 679 742 679 753 c 0
 679 765 689 776 705 785 c 0
 721 794 741 799 763 799 c 0
411 799 m 0
 433 799 455 794 471 785 c 0
 487 776 497 765 497 753 c 0
 497 736 495 711 491 679 c 0
 487 647 477 612 463 574 c 0
 449 536 432 518 411 518 c 0
 395 518 381 529 369 550 c 0
 357 571 348 596 342 626 c 0
 336 656 333 682 331 703 c 0
 329 724 329 741 329 753 c 0
 329 765 337 776 353 785 c 0
 369 794 389 799 411 799 c 0
EndSplineSet
Validated: 1
EndChar

StartChar: uniFF03
Encoding: 65283 65283 100
Width: 1176
Flags: HMW
LayerCount: 2
Fore
SplineSet
750 158 m 1
 725 44 l 1
 609 44 l 1
 633 158 l 1
 439 158 l 1
 411 44 l 1
 293 44 l 1
 321 158 l 1
 201 158 l 1
 215 228 l 1
 336 228 l 1
 389 439 l 1
 245 439 l 1
 258 509 l 1
 402 509 l 1
 425 622 l 1
 540 622 l 1
 521 509 l 1
 714 509 l 1
 737 622 l 1
 852 622 l 1
 833 509 l 1
 978 509 l 1
 961 439 l 1
 816 439 l 1
 763 228 l 1
 935 228 l 1
 918 158 l 1
 750 158 l 1
649 228 m 1
 702 439 l 1
 504 439 l 1
 451 228 l 1
 649 228 l 1
EndSplineSet
Validated: 1
EndChar

StartChar: uniFF04
Encoding: 65284 65284 101
Width: 1176
Flags: HMW
LayerCount: 2
Fore
SplineSet
901 741 m 1
 967 669 l 1
 649 669 l 1
 649 453 l 1
 749 453 827 432 883 389 c 0
 939 346 967 293 967 228 c 0
 967 163 939 110 882 66 c 0
 825 22 748 0 649 0 c 1
 649 -88 l 1
 527 -88 l 1
 527 0 l 1
 210 0 l 1
 276 74 l 1
 527 74 l 1
 527 379 l 1
 441 379 366 395 303 428 c 0
 240 461 210 505 210 560 c 0
 210 615 240 659 303 691 c 0
 366 723 441 739 527 739 c 1
 527 819 l 1
 649 819 l 1
 649 741 l 1
 901 741 l 1
527 669 m 1
 469 669 419 660 385 642 c 0
 351 624 333 596 333 561 c 0
 333 526 351 498 385 480 c 0
 419 462 469 453 527 453 c 1
 527 669 l 1
649 78 m 1
 713 78 762 92 795 120 c 0
 828 148 845 184 845 228 c 0
 845 273 829 309 797 337 c 0
 765 365 715 379 649 379 c 1
 649 78 l 1
EndSplineSet
Validated: 1
EndChar

StartChar: uniFF05
Encoding: 65285 65285 102
Width: 1176
Flags: HMW
LayerCount: 2
Fore
SplineSet
777 231 m 0
 744 231 716 222 708 198 c 0
 700 173 699 164 699 133 c 0
 699 94 703 56 732 44 c 0
 744 39 759 36 777 36 c 0
 811 36 838 45 846 70 c 0
 854 94 855 102 855 133 c 0
 855 173 852 211 822 223 c 0
 810 228 795 231 777 231 c 0
777 272 m 0
 829 272 873 258 906 230 c 0
 939 202 955 170 955 133 c 0
 955 96 939 64 906 36 c 0
 873 8 829 -6 777 -6 c 0
 725 -6 681 8 648 36 c 0
 615 64 599 96 599 133 c 0
 599 170 615 202 648 230 c 0
 681 258 725 272 777 272 c 0
955 678 m 25
 353 0 l 1
 231 0 l 1
 829 678 l 1
 955 678 l 25
402 641 m 0
 369 641 341 632 333 608 c 0
 325 583 324 576 324 544 c 0
 324 504 327 466 357 454 c 0
 369 449 384 446 402 446 c 0
 436 446 463 455 471 480 c 0
 479 505 480 512 480 544 c 0
 480 584 477 621 447 633 c 0
 435 638 420 641 402 641 c 0
402 684 m 0
 454 684 498 670 531 642 c 0
 564 614 581 581 581 544 c 0
 581 507 564 474 531 446 c 0
 498 418 454 404 402 404 c 0
 350 404 306 418 273 446 c 0
 240 474 223 507 223 544 c 0
 223 581 240 614 273 642 c 0
 306 670 350 684 402 684 c 0
EndSplineSet
Validated: 1
EndChar

StartChar: uniFF06
Encoding: 65286 65286 103
Width: 1176
Flags: HMW
LayerCount: 2
Fore
SplineSet
585 742 m 0
 654 742 711 723 759 686 c 0
 807 649 831 612 831 575 c 0
 831 500 776 431 665 368 c 1
 695 347 719 328 737 308 c 0
 755 288 767 272 773 260 c 0
 779 248 787 228 797 201 c 1
 807 210 816 218 822 224 c 0
 828 230 835 234 843 239 c 0
 851 244 855 248 858 250 c 0
 861 252 865 254 873 257 c 0
 881 260 883 262 885 262 c 0
 887 262 895 263 905 266 c 0
 915 269 922 270 925 271 c 2
 978 209 l 1
 946 208 917 200 885 184 c 0
 853 168 837 153 835 136 c 1
 869 96 916 76 978 75 c 1
 867 -1 l 1
 835 16 813 28 799 38 c 0
 785 48 772 63 756 83 c 1
 747 78 732 71 714 61 c 0
 696 51 682 44 673 39 c 0
 664 34 651 29 633 22 c 0
 615 15 597 9 582 6 c 0
 567 3 546 1 522 -2 c 0
 498 -5 473 -6 445 -6 c 0
 397 -6 345 15 287 58 c 0
 229 101 199 142 199 181 c 0
 201 221 219 257 257 288 c 0
 295 319 368 354 479 391 c 1
 434 414 398 445 372 484 c 0
 346 523 335 554 335 578 c 0
 335 622 361 660 413 693 c 0
 465 726 522 742 585 742 c 0
588 673 m 0
 556 673 525 664 497 647 c 0
 469 630 453 607 453 578 c 0
 453 553 460 530 474 510 c 0
 488 490 503 474 519 463 c 0
 535 452 557 439 585 424 c 1
 623 437 654 459 678 488 c 0
 702 517 715 546 719 575 c 0
 719 601 703 624 673 644 c 0
 643 664 615 673 588 673 c 0
552 335 m 1
 528 324 497 313 463 302 c 0
 429 291 401 282 385 276 c 0
 369 270 353 258 339 242 c 0
 325 226 318 206 318 181 c 0
 318 157 336 132 372 106 c 0
 408 80 443 66 477 66 c 0
 504 66 528 68 549 72 c 0
 570 76 592 85 613 97 c 0
 634 109 649 118 657 123 c 0
 665 128 681 140 703 157 c 1
 687 202 669 238 647 266 c 0
 625 294 592 318 552 335 c 1
EndSplineSet
Validated: 1
EndChar

StartChar: uniFF07
Encoding: 65287 65287 104
Width: 1176
Flags: HMW
LayerCount: 2
Fore
SplineSet
587 799 m 0
 609 799 631 794 647 785 c 0
 663 776 672 765 672 753 c 0
 672 736 670 711 666 679 c 0
 662 647 653 612 639 574 c 0
 625 536 608 518 587 518 c 0
 571 518 557 529 545 550 c 0
 533 571 525 596 519 626 c 0
 513 656 509 682 507 703 c 0
 505 724 504 741 504 753 c 0
 504 765 512 776 528 785 c 0
 544 794 565 799 587 799 c 0
EndSplineSet
Validated: 1
EndChar

StartChar: uniFF08
Encoding: 65288 65288 105
Width: 1176
Flags: HMW
LayerCount: 2
Fore
SplineSet
771 888 m 13
 771 806 l 5
 629 806 558 659 558 365 c 4
 558 79 629 -64 771 -64 c 5
 771 -146 l 5
 547 -146 435 24 435 365 c 4
 435 713 547 887 771 888 c 13
EndSplineSet
Validated: 1
EndChar

StartChar: uniFF09
Encoding: 65289 65289 106
Width: 1176
Flags: HMW
LayerCount: 2
Fore
SplineSet
405 888 m 21
 629 888 741 714 741 365 c 4
 741 24 629 -146 405 -146 c 5
 405 -64 l 5
 547 -64 618 79 618 365 c 4
 618 659 547 806 405 806 c 5
 405 888 l 21
EndSplineSet
Validated: 1
EndChar

StartChar: uniFF0A
Encoding: 65290 65290 107
Width: 1176
Flags: HMW
LayerCount: 2
Fore
SplineSet
675 742 m 1
 630 612 l 1
 821 683 l 1
 869 592 l 1
 655 569 l 1
 827 467 l 1
 705 414 l 1
 589 539 l 1
 474 414 l 1
 349 467 l 1
 523 569 l 1
 311 592 l 1
 355 683 l 1
 549 612 l 1
 501 742 l 1
 675 742 l 1
EndSplineSet
Validated: 1
EndChar

StartChar: uniFF0B
Encoding: 65291 65291 108
Width: 1176
Flags: HMW
LayerCount: 2
Fore
SplineSet
589 587 m 4
 629 587 651 578 651 559 c 2
 651 397 l 1
 889 397 l 2
 903 397 915 394 923 386 c 0
 931 378 935 368 935 356 c 0
 935 344 931 334 923 326 c 0
 915 318 903 315 889 315 c 2
 651 315 l 1
 651 157 l 2
 651 148 645 140 633 134 c 0
 621 128 607 126 589 126 c 0
 571 126 558 128 546 134 c 0
 534 140 528 148 528 157 c 2
 528 315 l 1
 285 315 l 2
 258 315 245 329 245 356 c 0
 245 383 258 397 285 397 c 2
 528 397 l 1
 528 559 l 2
 528 578 549 587 589 587 c 4
EndSplineSet
Validated: 1
EndChar

StartChar: uniFF0C
Encoding: 65292 65292 109
Width: 1176
Flags: HMW
LayerCount: 2
Fore
SplineSet
593 130 m 0
 621 130 645 123 667 110 c 0
 689 97 701 81 701 61 c 0
 699 37 693 12 681 -16 c 0
 669 -44 648 -70 618 -94 c 0
 588 -118 551 -129 511 -129 c 0
 499 -129 493 -126 493 -119 c 0
 493 -116 498 -112 507 -107 c 0
 516 -102 527 -98 541 -92 c 0
 555 -86 569 -75 585 -58 c 0
 601 -41 615 -19 625 6 c 1
 619 -2 603 -6 577 -6 c 0
 555 -6 534 1 513 14 c 0
 492 27 481 42 481 61 c 0
 481 78 492 93 513 108 c 0
 534 123 561 130 593 130 c 0
EndSplineSet
Validated: 1
EndChar

StartChar: uniFF0D
Encoding: 65293 65293 110
Width: 1176
Flags: HMW
LayerCount: 2
Fore
SplineSet
889 397 m 6
 903 397 915 394 923 386 c 0
 931 378 935 368 935 356 c 0
 935 344 931 334 923 326 c 0
 915 318 903 315 889 315 c 2
 285 315 l 2
 258 315 245 329 245 356 c 0
 245 383 258 397 285 397 c 2
 889 397 l 6
EndSplineSet
Validated: 1
EndChar

StartChar: uniFF0E
Encoding: 65294 65294 111
Width: 1176
Flags: HMW
LayerCount: 2
Fore
SplineSet
589 126 m 24
 617 126 645 119 666 106 c 0
 687 93 697 78 697 59 c 0
 697 40 687 24 666 12 c 0
 645 0 617 -6 589 -6 c 0
 559 -6 533 0 511 12 c 0
 489 24 479 40 479 59 c 0
 479 78 489 94 511 107 c 0
 533 120 559 126 589 126 c 24
EndSplineSet
Validated: 1
EndChar

StartChar: uniFF0F
Encoding: 65295 65295 112
Width: 1176
Flags: HMW
LayerCount: 2
Fore
SplineSet
951 888 m 25
 359 -146 l 1
 225 -146 l 1
 817 888 l 1
 951 888 l 25
EndSplineSet
Validated: 1
EndChar

StartChar: uniFF10
Encoding: 65296 65296 113
Width: 1176
Flags: HMW
LayerCount: 2
Fore
SplineSet
942 749 m 1
 849 629 l 1
 917 554 951 468 951 373 c 0
 951 308 938 248 912 192 c 0
 886 136 846 89 789 51 c 0
 732 13 665 -6 589 -6 c 0
 515 -6 451 15 389 57 c 1
 333 0 l 1
 211 0 l 1
 317 120 l 1
 259 190 228 274 228 373 c 0
 228 439 240 500 264 555 c 0
 288 610 330 657 387 694 c 0
 444 731 509 749 589 749 c 0
 655 749 718 729 780 690 c 1
 822 749 l 1
 942 749 l 1
589 675 m 0
 545 675 507 666 474 648 c 0
 441 630 417 606 401 576 c 0
 385 546 371 513 363 480 c 0
 355 447 351 411 351 373 c 0
 351 306 363 250 389 204 c 1
 717 618 l 1
 683 656 639 675 589 675 c 0
449 129 m 1
 465 115 479 105 489 98 c 0
 499 91 515 84 533 78 c 0
 551 72 569 68 589 68 c 0
 633 68 669 78 702 96 c 0
 735 114 759 139 777 170 c 0
 795 201 808 232 816 266 c 0
 824 300 828 336 828 373 c 0
 828 435 812 493 780 547 c 1
 449 129 l 1
EndSplineSet
Validated: 1
EndChar

StartChar: uniFF11
Encoding: 65297 65297 114
Width: 1176
Flags: HMW
LayerCount: 2
Fore
SplineSet
651 742 m 29
 651 0 l 1
 528 0 l 1
 528 568 l 1
 402 568 l 1
 559 742 l 1
 651 742 l 29
EndSplineSet
Validated: 1
EndChar

StartChar: uniFF12
Encoding: 65298 65298 115
Width: 1176
Flags: HMW
LayerCount: 2
Fore
SplineSet
589 749 m 4
 699 749 787 728 851 686 c 0
 915 644 947 594 949 539 c 0
 947 506 930 472 894 436 c 0
 858 400 814 367 762 336 c 0
 710 305 654 274 600 245 c 0
 546 216 495 186 450 156 c 0
 405 126 375 99 361 75 c 1
 823 75 l 1
 823 141 l 1
 949 141 l 1
 949 1 l 1
 228 1 l 1
 228 75 l 1
 242 104 272 136 318 170 c 0
 364 204 415 237 471 268 c 0
 527 299 582 330 636 361 c 0
 690 392 735 423 771 454 c 0
 807 485 827 514 827 539 c 0
 827 581 805 614 763 638 c 0
 721 662 663 675 589 675 c 0
 513 675 454 659 414 628 c 0
 374 597 353 557 351 507 c 1
 228 507 l 1
 230 572 263 628 327 676 c 0
 391 724 479 748 589 749 c 4
EndSplineSet
Validated: 1
EndChar

StartChar: uniFF13
Encoding: 65299 65299 116
Width: 1176
Flags: HMW
LayerCount: 2
Fore
SplineSet
933 742 m 29
 933 669 l 1
 667 507 l 1
 711 506 749 502 783 493 c 0
 817 484 843 473 863 459 c 0
 883 445 897 431 909 417 c 0
 921 403 932 388 936 372 c 0
 940 356 943 345 945 338 c 0
 947 331 948 324 948 319 c 0
 948 278 937 242 915 208 c 0
 893 174 864 146 831 124 c 0
 798 102 759 84 713 67 c 0
 667 50 621 37 579 28 c 0
 537 19 493 12 447 7 c 0
 401 2 363 -2 336 -4 c 0
 309 -6 281 -6 259 -6 c 0
 251 -6 243 -3 234 3 c 0
 225 9 221 14 219 18 c 0
 219 23 221 28 229 35 c 0
 237 42 244 46 253 49 c 0
 291 54 320 58 336 60 c 0
 352 62 380 67 419 74 c 0
 458 81 487 87 507 92 c 0
 527 97 554 103 588 112 c 0
 622 121 648 129 666 138 c 0
 684 147 705 157 729 170 c 0
 753 183 771 197 783 211 c 0
 795 225 806 241 815 259 c 0
 824 277 828 296 828 317 c 0
 825 345 810 372 783 396 c 0
 756 420 713 432 651 433 c 0
 583 433 524 421 468 397 c 1
 384 434 l 1
 469 483 l 1
 780 669 l 1
 353 669 l 1
 353 606 l 1
 229 606 l 1
 229 742 l 1
 933 742 l 29
EndSplineSet
Validated: 1
EndChar

StartChar: uniFF14
Encoding: 65300 65300 117
Width: 1176
Flags: HMW
LayerCount: 2
Fore
SplineSet
678 603 m 5
 427 305 l 1
 678 305 l 1
 678 603 l 5
801 742 m 5
 801 305 l 1
 951 305 l 1
 951 231 l 1
 801 231 l 1
 801 0 l 1
 678 0 l 1
 678 231 l 1
 228 231 l 1
 678 742 l 1
 801 742 l 5
EndSplineSet
Validated: 1
EndChar

StartChar: uniFF15
Encoding: 65301 65301 118
Width: 1176
Flags: HMW
LayerCount: 2
Fore
SplineSet
935 742 m 25
 935 669 l 1
 354 669 l 1
 354 434 l 1
 366 442 l 2
 370 445 384 451 402 460 c 0
 420 469 441 476 462 482 c 0
 483 488 513 495 549 500 c 0
 585 505 625 508 665 508 c 0
 711 508 750 502 786 492 c 0
 822 482 850 470 870 456 c 0
 890 442 906 425 918 406 c 0
 930 387 939 371 943 357 c 0
 947 343 949 330 949 319 c 0
 949 278 937 240 915 206 c 0
 893 172 863 145 829 123 c 0
 795 101 753 82 705 65 c 0
 657 48 614 36 570 27 c 0
 526 18 481 11 435 6 c 0
 389 1 353 -3 327 -4 c 0
 301 -5 279 -6 261 -6 c 0
 253 -6 243 -3 234 3 c 0
 225 9 221 14 219 18 c 0
 219 23 223 28 231 35 c 0
 239 42 246 46 255 49 c 0
 366 64 461 82 537 101 c 0
 613 120 674 141 714 164 c 0
 754 187 785 209 801 232 c 0
 817 255 827 280 827 307 c 0
 825 342 812 371 785 396 c 0
 758 421 715 433 653 434 c 0
 589 434 533 424 483 405 c 0
 433 386 396 363 369 337 c 1
 231 379 l 1
 231 742 l 1
 935 742 l 25
EndSplineSet
Validated: 1
EndChar

StartChar: uniFF16
Encoding: 65302 65302 119
Width: 1176
Flags: HMW
LayerCount: 2
Fore
SplineSet
351 220 m 28
 351 178 375 142 423 112 c 0
 471 82 530 68 599 68 c 0
 663 68 718 84 762 114 c 0
 806 144 827 179 827 220 c 0
 827 261 806 298 762 329 c 0
 718 360 663 376 599 376 c 0
 529 376 471 361 423 330 c 0
 375 299 351 263 351 220 c 28
840 724 m 4
 840 703 816 693 768 693 c 1
 688 688 605 652 519 586 c 0
 433 520 387 456 377 391 c 1
 379 392 383 396 393 402 c 0
 403 408 410 412 414 414 c 0
 418 416 425 419 435 424 c 0
 445 429 456 433 465 435 c 0
 474 437 485 439 499 442 c 0
 513 445 530 447 546 448 c 0
 562 449 579 450 599 450 c 0
 671 450 733 438 787 414 c 0
 841 390 880 360 906 326 c 0
 932 292 945 257 949 220 c 1
 949 159 915 106 846 61 c 0
 777 16 693 -6 599 -6 c 0
 501 -6 417 16 345 61 c 0
 273 106 232 159 228 220 c 1
 228 271 228 309 231 333 c 0
 234 357 243 387 259 422 c 0
 275 457 302 497 336 540 c 0
 380 597 444 647 528 688 c 0
 612 729 688 749 757 749 c 0
 813 748 840 740 840 724 c 4
EndSplineSet
Validated: 1
EndChar

StartChar: uniFF17
Encoding: 65303 65303 120
Width: 1176
Flags: HMW
LayerCount: 2
Fore
SplineSet
949 742 m 25
 949 545 l 2
 946 527 930 502 897 469 c 0
 864 436 829 404 793 373 c 0
 757 342 726 304 696 260 c 0
 666 216 651 176 651 138 c 2
 651 0 l 1
 521 0 l 1
 521 138 l 2
 521 177 531 215 552 252 c 0
 573 289 596 320 623 346 c 0
 650 372 684 406 726 446 c 0
 768 486 801 523 827 556 c 1
 827 669 l 1
 351 669 l 1
 351 588 l 1
 228 588 l 1
 228 742 l 1
 949 742 l 25
EndSplineSet
Validated: 1
EndChar

StartChar: uniFF18
Encoding: 65304 65304 121
Width: 1176
Flags: HMW
LayerCount: 2
Fore
SplineSet
351 206 m 24
 351 166 375 132 423 106 c 0
 471 80 525 67 589 67 c 0
 652 67 708 80 756 106 c 0
 804 132 827 166 827 206 c 0
 827 247 802 281 756 308 c 0
 710 335 653 349 589 349 c 0
 525 349 471 335 423 308 c 0
 375 281 351 247 351 206 c 24
384 548 m 24
 384 512 404 482 444 458 c 0
 484 434 533 422 589 422 c 0
 645 422 693 434 733 458 c 0
 773 482 793 512 793 548 c 0
 793 584 773 614 733 639 c 0
 693 664 645 676 589 676 c 0
 533 676 484 664 444 639 c 0
 404 614 384 584 384 548 c 24
589 749 m 24
 677 749 755 730 819 691 c 0
 883 652 917 605 917 548 c 0
 917 478 869 424 771 385 c 1
 889 343 949 283 949 206 c 0
 949 145 915 94 843 54 c 0
 771 14 687 -6 589 -6 c 0
 491 -6 408 14 336 54 c 0
 264 94 228 145 228 206 c 0
 228 284 287 344 405 385 c 1
 309 423 261 477 261 548 c 0
 261 605 295 652 359 691 c 0
 423 730 501 749 589 749 c 24
EndSplineSet
Validated: 1
EndChar

StartChar: uniFF19
Encoding: 65305 65305 122
Width: 1176
Flags: HMW
LayerCount: 2
Fore
SplineSet
827 519 m 28
 827 562 801 600 753 630 c 0
 705 660 649 675 581 675 c 0
 518 675 464 660 419 629 c 0
 374 598 351 562 351 519 c 0
 351 476 372 438 417 407 c 0
 462 376 517 360 581 360 c 0
 649 360 705 375 753 406 c 0
 801 437 827 475 827 519 c 28
581 749 m 28
 679 749 762 726 834 680 c 0
 906 634 945 580 949 519 c 1
 949 448 945 394 933 356 c 0
 921 318 890 268 840 205 c 0
 795 148 730 98 648 56 c 0
 566 14 490 -6 421 -6 c 0
 365 -5 339 3 339 19 c 0
 339 28 348 34 366 40 c 0
 384 46 399 49 411 49 c 0
 463 52 519 69 577 100 c 0
 635 131 687 169 729 214 c 0
 771 259 797 302 803 344 c 1
 801 343 796 340 787 335 c 0
 778 330 774 326 771 325 c 0
 768 324 762 321 753 316 c 0
 744 311 735 308 729 306 c 0
 723 304 714 302 702 299 c 0
 690 296 679 293 669 292 c 0
 659 291 645 289 630 288 c 0
 615 287 597 287 581 287 c 0
 476 287 392 310 330 358 c 0
 268 406 234 460 228 519 c 1
 228 581 264 634 333 680 c 0
 402 726 485 749 581 749 c 28
EndSplineSet
Validated: 1
EndChar

StartChar: uniFF1A
Encoding: 65306 65306 123
Width: 1176
Flags: HMW
LayerCount: 2
Fore
SplineSet
588 469 m 28
 616 469 642 463 663 450 c 0
 684 437 696 421 696 402 c 0
 696 383 684 368 663 356 c 0
 642 344 616 337 588 337 c 0
 558 337 532 344 510 356 c 0
 488 368 477 383 477 402 c 0
 477 421 488 437 510 450 c 0
 532 463 558 469 588 469 c 28
588 126 m 24
 616 126 642 120 663 107 c 0
 684 94 696 79 696 60 c 0
 696 41 684 26 663 13 c 0
 642 0 616 -6 588 -6 c 0
 558 -6 532 0 510 12 c 0
 488 24 477 41 477 60 c 0
 477 79 488 96 510 108 c 0
 532 120 558 126 588 126 c 24
EndSplineSet
Validated: 1
EndChar

StartChar: uniFF1B
Encoding: 65307 65307 124
Width: 1176
Flags: HMW
LayerCount: 2
Fore
SplineSet
594 130 m 0
 622 130 647 123 669 110 c 0
 691 97 702 81 702 61 c 0
 700 37 695 12 683 -16 c 0
 671 -44 649 -70 619 -94 c 0
 589 -118 553 -129 513 -129 c 0
 501 -129 495 -126 495 -119 c 0
 495 -116 501 -112 510 -107 c 0
 519 -102 529 -98 543 -92 c 0
 557 -86 572 -75 588 -58 c 0
 604 -41 619 -19 629 6 c 1
 623 -2 606 -6 579 -6 c 0
 557 -6 534 1 513 14 c 0
 492 27 483 42 483 61 c 0
 483 78 494 93 515 108 c 0
 536 123 562 130 594 130 c 0
591 469 m 24
 619 469 645 463 666 450 c 0
 687 437 699 421 699 402 c 0
 699 383 687 368 666 356 c 0
 645 344 619 337 591 337 c 0
 561 337 535 344 513 356 c 0
 491 368 480 383 480 402 c 0
 480 421 491 437 513 450 c 0
 535 463 561 469 591 469 c 24
EndSplineSet
Validated: 1
EndChar

StartChar: uniFF1C
Encoding: 65308 65308 125
Width: 1176
Flags: HMW
LayerCount: 2
Fore
SplineSet
924 888 m 29
 924 756 l 1
 451 371 l 1
 924 -14 l 1
 924 -146 l 1
 277 371 l 1
 924 888 l 29
EndSplineSet
Validated: 1
EndChar

StartChar: uniFF1D
Encoding: 65309 65309 126
Width: 1176
Flags: HMW
LayerCount: 2
Fore
SplineSet
889 285 m 2
 903 285 915 282 923 274 c 0
 931 266 935 256 935 244 c 0
 935 232 931 222 923 214 c 0
 915 206 903 203 889 203 c 2
 285 203 l 2
 258 203 245 217 245 244 c 0
 245 271 258 285 285 285 c 2
 889 285 l 2
889 510 m 2
 903 510 915 506 923 498 c 0
 931 490 935 481 935 469 c 0
 935 457 931 448 923 440 c 0
 915 432 903 428 889 428 c 2
 285 428 l 2
 258 428 245 442 245 469 c 0
 245 496 258 510 285 510 c 2
 889 510 l 2
EndSplineSet
Validated: 1
EndChar

StartChar: uniFF1E
Encoding: 65310 65310 127
Width: 1176
Flags: HMW
LayerCount: 2
Fore
SplineSet
252 888 m 25
 899 371 l 1
 252 -146 l 1
 252 -14 l 1
 725 371 l 1
 252 756 l 1
 252 888 l 25
EndSplineSet
Validated: 1
EndChar

StartChar: uniFF1F
Encoding: 65311 65311 128
Width: 1176
Flags: HMW
LayerCount: 2
Fore
SplineSet
589 126 m 24
 617 126 645 119 666 106 c 0
 687 93 697 78 697 59 c 0
 697 40 687 24 666 12 c 0
 645 0 617 -6 589 -6 c 0
 559 -6 533 0 511 12 c 0
 489 24 479 40 479 59 c 0
 479 78 489 94 511 107 c 0
 533 120 559 126 589 126 c 24
589 749 m 0
 705 749 795 730 857 694 c 0
 919 658 949 614 949 561 c 0
 949 539 935 516 903 492 c 0
 871 468 837 449 799 433 c 0
 761 417 728 401 696 385 c 0
 664 369 649 357 649 348 c 2
 649 205 l 2
 649 188 629 180 589 180 c 0
 547 180 527 188 527 205 c 2
 527 376 l 2
 529 385 545 398 577 415 c 0
 609 432 645 449 681 465 c 0
 717 481 750 498 780 516 c 0
 810 534 827 550 827 561 c 0
 827 564 827 569 825 574 c 0
 823 579 819 588 810 601 c 0
 801 614 790 626 775 636 c 0
 760 646 738 656 705 664 c 0
 672 672 633 677 589 677 c 0
 544 677 507 673 474 665 c 0
 441 657 417 647 402 636 c 0
 387 625 375 613 366 602 c 0
 357 591 355 581 353 573 c 2
 351 561 l 1
 228 561 l 1
 228 614 259 658 321 694 c 0
 383 730 472 749 589 749 c 0
EndSplineSet
Validated: 1
EndChar

StartChar: uniFF20
Encoding: 65312 65312 129
Width: 1176
Flags: HMW
LayerCount: 2
Fore
SplineSet
579 659 m 4
 663 659 741 642 813 608 c 4
 885 574 940 532 979 482 c 4
 1018 432 1038 386 1038 344 c 4
 1038 302 1026 260 1002 222 c 4
 978 184 946 151 907 123 c 5
 841 137 l 6
 813 143 779 161 741 190 c 4
 738 192 732 198 723 207 c 5
 714 194 696 185 669 178 c 4
 641 171 611 168 579 168 c 4
 523 168 479 186 441 223 c 4
 403 260 385 295 385 328 c 4
 385 355 403 387 439 426 c 4
 475 466 521 486 577 486 c 4
 641 486 692 467 726 430 c 4
 760 394 778 360 780 328 c 4
 782 293 790 267 804 250 c 4
 818 234 840 224 870 219 c 5
 904 262 923 300 923 333 c 4
 921 399 894 453 840 496 c 4
 770 551 684 578 582 579 c 4
 478 578 395 551 333 498 c 4
 283 455 259 400 259 333 c 4
 259 295 270 255 291 214 c 4
 312 173 344 139 384 112 c 4
 424 85 463 71 499 71 c 5
 599 119 l 5
 839 0 l 5
 516 0 l 6
 446 0 379 18 319 54 c 4
 259 90 213 132 183 182 c 4
 153 232 138 283 138 333 c 4
 138 383 157 433 191 482 c 4
 225 531 278 574 348 608 c 4
 418 642 495 659 579 659 c 4
582 424 m 4
 548 424 522 412 504 389 c 4
 486 367 477 347 477 328 c 4
 477 305 482 287 492 274 c 4
 516 245 544 230 577 230 c 4
 643 230 677 263 679 328 c 4
 679 343 671 363 655 388 c 4
 639 412 615 424 582 424 c 4
EndSplineSet
Validated: 1
EndChar

StartChar: uniFF21
Encoding: 65313 65313 130
Width: 1176
Flags: HMW
LayerCount: 2
Fore
SplineSet
647 742 m 5
 993 33 l 1
 993 0 l 1
 863 0 l 1
 863 33 l 1
 774 215 l 1
 402 215 l 1
 313 33 l 1
 313 0 l 1
 185 0 l 1
 185 33 l 1
 531 742 l 1
 647 742 l 5
438 288 m 5
 738 288 l 1
 588 595 l 1
 438 288 l 5
EndSplineSet
Validated: 1
EndChar

StartChar: uniFF22
Encoding: 65314 65314 131
Width: 1176
Flags: HMW
LayerCount: 2
Fore
SplineSet
852 206 m 0
 852 253 830 292 786 323 c 0
 742 354 695 369 639 369 c 2
 335 369 l 1
 335 74 l 1
 659 74 l 2
 703 74 743 85 787 108 c 0
 831 131 852 164 852 206 c 0
761 563 m 0
 761 590 752 615 732 637 c 0
 712 659 683 670 649 670 c 2
 335 670 l 1
 335 442 l 1
 633 442 l 2
 661 442 691 456 719 484 c 0
 747 512 761 538 761 563 c 0
633 742 m 2
 679 742 719 737 753 726 c 0
 787 715 813 700 831 682 c 0
 849 664 862 646 870 626 c 0
 878 606 882 585 882 563 c 0
 882 533 868 502 841 470 c 0
 814 438 790 419 768 416 c 1
 768 401 l 1
 828 386 878 360 917 322 c 0
 956 284 975 246 975 206 c 0
 975 145 946 96 889 58 c 0
 832 20 755 0 661 0 c 2
 211 0 l 1
 211 742 l 1
 633 742 l 2
EndSplineSet
Validated: 1
EndChar

StartChar: uniFF23
Encoding: 65315 65315 132
Width: 1176
Flags: HMW
LayerCount: 2
Fore
SplineSet
893 742 m 5
 959 670 l 1
 621 670 l 2
 553 670 491 643 431 588 c 0
 371 533 341 472 341 406 c 0
 341 320 375 244 441 176 c 0
 507 108 581 74 667 74 c 2
 893 74 l 1
 959 0 l 1
 687 0 l 2
 551 0 437 38 349 115 c 0
 261 192 217 289 217 406 c 0
 217 457 235 508 269 560 c 0
 303 612 351 655 411 690 c 0
 471 725 533 742 601 742 c 2
 893 742 l 5
EndSplineSet
Validated: 1
EndChar

StartChar: uniFF24
Encoding: 65316 65316 133
Width: 1176
Flags: HMW
LayerCount: 2
Fore
SplineSet
655 742 m 2
 691 742 733 726 779 694 c 0
 825 662 863 625 895 583 c 0
 943 520 967 443 967 353 c 0
 967 271 939 197 881 131 c 0
 853 98 813 68 765 41 c 0
 717 14 679 0 655 0 c 2
 210 0 l 1
 210 742 l 1
 655 742 l 2
845 353 m 0
 845 426 825 488 786 539 c 0
 759 574 727 604 693 630 c 0
 659 656 627 670 599 670 c 2
 333 670 l 1
 333 74 l 1
 599 74 l 2
 619 74 645 86 683 110 c 0
 721 134 749 160 775 187 c 0
 821 239 845 294 845 353 c 0
EndSplineSet
Validated: 1
EndChar

StartChar: uniFF25
Encoding: 65317 65317 134
Width: 1176
Flags: HMW
LayerCount: 2
Fore
SplineSet
906 742 m 25
 972 670 l 1
 339 670 l 1
 339 437 l 1
 715 437 l 1
 781 364 l 1
 339 364 l 1
 339 74 l 1
 906 74 l 1
 972 0 l 1
 216 0 l 1
 216 742 l 1
 906 742 l 25
EndSplineSet
Validated: 1
EndChar

StartChar: uniFF26
Encoding: 65318 65318 135
Width: 1176
Flags: HMW
LayerCount: 2
Fore
SplineSet
901 742 m 25
 967 670 l 1
 335 670 l 1
 335 446 l 1
 711 446 l 1
 777 374 l 1
 335 374 l 1
 335 0 l 1
 211 0 l 1
 211 742 l 1
 901 742 l 25
EndSplineSet
Validated: 1
EndChar

StartChar: uniFF27
Encoding: 65319 65319 136
Width: 1176
Flags: HMW
LayerCount: 2
Fore
SplineSet
895 742 m 29
 961 670 l 1
 599 670 l 2
 549 668 507 658 471 640 c 0
 435 622 409 597 389 568 c 0
 369 539 357 509 348 478 c 0
 339 447 335 414 335 379 c 0
 335 342 339 307 349 273 c 0
 359 239 375 207 396 176 c 0
 417 145 445 121 483 102 c 0
 521 83 565 74 615 74 c 2
 845 74 l 1
 795 371 l 1
 605 371 l 1
 558 446 l 1
 899 446 l 1
 967 74 l 1
 967 0 l 1
 615 0 l 2
 529 0 454 19 391 58 c 0
 328 97 283 144 255 200 c 0
 227 256 211 316 211 379 c 0
 211 440 225 497 251 550 c 0
 277 603 320 649 378 686 c 0
 436 723 507 742 589 742 c 2
 895 742 l 29
EndSplineSet
Validated: 1
EndChar

StartChar: uniFF28
Encoding: 65320 65320 137
Width: 1176
Flags: HMW
LayerCount: 2
Fore
SplineSet
845 437 m 1
 845 742 l 1
 967 742 l 1
 967 0 l 1
 845 0 l 1
 845 364 l 1
 335 364 l 1
 335 0 l 1
 211 0 l 1
 211 742 l 1
 335 742 l 1
 335 437 l 1
 845 437 l 1
EndSplineSet
Validated: 1
EndChar

StartChar: uniFF29
Encoding: 65321 65321 138
Width: 1176
Flags: HMW
LayerCount: 2
Fore
SplineSet
917 742 m 25
 983 670 l 1
 648 670 l 1
 648 74 l 1
 917 74 l 1
 983 0 l 1
 259 0 l 1
 193 74 l 1
 525 74 l 1
 525 670 l 1
 259 670 l 1
 193 742 l 1
 917 742 l 25
EndSplineSet
Validated: 1
EndChar

StartChar: uniFF2A
Encoding: 65322 65322 139
Width: 1176
Flags: HMW
LayerCount: 2
Fore
SplineSet
965 741 m 25
 1031 669 l 1
 897 669 l 1
 897 247 l 2
 897 80 795 -4 589 -4 c 0
 479 -4 402 19 351 64 c 0
 300 109 275 170 275 247 c 1
 397 247 l 1
 397 183 413 137 445 110 c 0
 477 83 525 69 589 69 c 0
 652 69 699 83 729 110 c 0
 759 137 774 182 774 247 c 2
 774 669 l 1
 341 669 l 1
 275 741 l 1
 965 741 l 25
EndSplineSet
Validated: 1
EndChar

StartChar: uniFF2B
Encoding: 65323 65323 140
Width: 1176
Flags: HMW
LayerCount: 2
Fore
SplineSet
960 742 m 5
 601 401 l 5
 977 0 l 5
 843 0 l 5
 497 364 l 5
 335 364 l 5
 335 0 l 5
 211 0 l 5
 211 742 l 5
 335 742 l 5
 335 437 l 5
 497 437 l 5
 827 742 l 5
 960 742 l 5
EndSplineSet
Validated: 1
EndChar

StartChar: uniFF2C
Encoding: 65324 65324 141
Width: 1176
Flags: HMW
LayerCount: 2
Fore
SplineSet
385 742 m 25
 385 74 l 1
 889 74 l 1
 954 0 l 1
 263 0 l 1
 263 742 l 1
 385 742 l 25
EndSplineSet
Validated: 1
EndChar

StartChar: uniFF2D
Encoding: 65325 65325 142
Width: 1176
Flags: HMW
LayerCount: 2
Fore
SplineSet
967 741 m 29
 967 0 l 5
 845 0 l 5
 845 600 l 5
 589 324 l 5
 335 600 l 5
 335 0 l 5
 211 0 l 5
 211 741 l 5
 335 741 l 5
 589 461 l 5
 845 741 l 5
 967 741 l 29
EndSplineSet
Validated: 1
EndChar

StartChar: uniFF2E
Encoding: 65326 65326 143
Width: 1176
Flags: HMW
LayerCount: 2
Fore
SplineSet
967 742 m 29
 967 0 l 5
 845 0 l 5
 335 590 l 5
 335 0 l 5
 211 0 l 5
 211 742 l 5
 335 742 l 5
 845 153 l 5
 845 742 l 5
 967 742 l 29
EndSplineSet
Validated: 1
EndChar

StartChar: uniFF2F
Encoding: 65327 65327 144
Width: 1176
Flags: HMW
LayerCount: 2
Fore
SplineSet
589 749 m 0
 657 749 719 738 771 715 c 0
 821 694 861 665 894 626 c 0
 922 595 941 554 955 504 c 0
 964 471 969 426 971 370 c 0
 971 307 961 248 941 193 c 0
 920 137 878 90 816 52 c 0
 754 13 677 -6 589 -6 c 0
 497 -6 422 13 360 52 c 0
 298 90 256 137 235 193 c 0
 215 248 205 307 205 370 c 0
 207 426 212 471 221 504 c 0
 235 554 254 595 282 626 c 0
 315 665 355 694 405 715 c 0
 457 738 519 749 589 749 c 0
589 679 m 256
 467 679 392 627 360 523 c 0
 344 471 336 420 336 370 c 0
 338 304 345 248 360 202 c 0
 392 110 467 64 589 64 c 256
 711 64 786 110 816 202 c 0
 831 245 838 301 840 370 c 0
 840 417 832 468 816 523 c 0
 786 627 711 679 589 679 c 256
EndSplineSet
Validated: 1
EndChar

StartChar: uniFF30
Encoding: 65328 65328 145
Width: 1176
Flags: HMW
LayerCount: 2
Fore
SplineSet
828 548 m 24
 828 580 814 608 786 633 c 0
 758 658 721 670 677 670 c 2
 349 670 l 1
 349 418 l 1
 677 418 l 2
 723 418 759 431 786 457 c 0
 813 483 828 513 828 548 c 24
701 742 m 26
 775 742 835 723 881 684 c 0
 927 645 951 600 951 548 c 0
 951 494 927 447 881 406 c 0
 835 365 775 344 701 344 c 2
 349 344 l 1
 349 0 l 1
 227 0 l 1
 227 742 l 1
 701 742 l 26
EndSplineSet
Validated: 1
EndChar

StartChar: uniFF31
Encoding: 65329 65329 146
Width: 1176
Flags: HMW
LayerCount: 2
Fore
SplineSet
589 678 m 0
 539 678 498 666 462 644 c 0
 426 622 402 594 384 560 c 0
 366 526 353 492 345 460 c 0
 337 428 335 399 335 370 c 0
 335 163 419 60 589 60 c 0
 641 60 683 70 711 89 c 1
 642 156 l 1
 547 156 l 1
 468 225 l 1
 651 225 l 1
 765 126 l 1
 792 159 810 192 822 225 c 0
 834 258 840 306 840 370 c 0
 840 409 837 445 829 478 c 0
 821 511 809 543 793 575 c 0
 777 607 751 632 717 650 c 0
 683 668 639 678 589 678 c 0
589 752 m 0
 652 752 709 741 759 718 c 0
 809 695 848 664 876 626 c 0
 904 588 927 548 942 504 c 0
 957 460 963 416 963 370 c 0
 963 241 921 142 839 73 c 1
 942 73 l 1
 1035 -13 l 1
 829 -13 l 1
 783 35 l 1
 737 3 671 -13 589 -13 c 0
 526 -13 470 -1 420 22 c 0
 370 45 330 75 300 113 c 0
 270 151 249 192 234 236 c 0
 219 280 211 324 211 370 c 0
 211 416 219 460 234 504 c 0
 249 548 270 588 300 626 c 0
 330 664 370 695 420 718 c 0
 470 741 526 752 589 752 c 0
EndSplineSet
Validated: 1
EndChar

StartChar: uniFF32
Encoding: 65330 65330 147
Width: 1176
Flags: HMW
LayerCount: 2
Fore
SplineSet
641 742 m 6
 731 742 799 725 849 690 c 0
 899 655 923 614 923 569 c 0
 923 502 875 453 781 422 c 1
 781 409 l 1
 841 394 886 368 918 332 c 0
 950 296 966 254 966 206 c 2
 966 0 l 1
 843 0 l 1
 843 206 l 2
 843 249 818 288 768 322 c 0
 718 356 666 374 612 374 c 2
 335 374 l 1
 335 0 l 1
 211 0 l 1
 211 742 l 1
 641 742 l 6
799 569 m 4
 799 594 783 617 753 638 c 0
 723 659 687 670 647 670 c 2
 335 670 l 1
 335 446 l 1
 649 446 l 2
 687 446 719 458 751 482 c 0
 783 506 797 535 799 569 c 4
EndSplineSet
Validated: 1
EndChar

StartChar: uniFF33
Encoding: 65331 65331 148
Width: 1176
Flags: HMW
LayerCount: 2
Fore
SplineSet
901 742 m 25
 967 668 l 1
 558 668 l 2
 420 668 351 628 351 548 c 0
 351 478 415 443 543 443 c 2
 627 443 l 2
 845 443 957 370 967 223 c 257
 947 74 821 0 589 0 c 2
 210 0 l 1
 276 74 l 1
 589 74 l 2
 739 74 825 124 845 223 c 257
 845 320 777 369 643 369 c 2
 549 369 l 2
 336 369 230 428 228 547 c 256
 228 677 338 742 558 742 c 2
 901 742 l 25
EndSplineSet
Validated: 1
EndChar

StartChar: uniFF34
Encoding: 65332 65332 149
Width: 1176
Flags: HMW
LayerCount: 2
Fore
SplineSet
525 669 m 29
 259 669 l 1
 193 742 l 1
 917 742 l 1
 983 669 l 1
 649 669 l 1
 649 0 l 1
 525 0 l 1
 525 669 l 29
EndSplineSet
Validated: 1
EndChar

StartChar: uniFF35
Encoding: 65333 65333 150
Width: 1176
Flags: HMW
LayerCount: 2
Fore
SplineSet
966 740 m 25
 966 289 l 2
 963 195 929 122 863 71 c 0
 797 20 705 -6 589 -6 c 0
 475 -6 386 20 318 72 c 0
 250 124 214 196 211 289 c 2
 211 740 l 1
 335 740 l 1
 335 289 l 2
 337 218 358 164 402 125 c 0
 446 86 507 67 589 67 c 0
 753 67 837 141 843 289 c 1
 843 740 l 1
 966 740 l 25
EndSplineSet
Validated: 1
EndChar

StartChar: uniFF36
Encoding: 65334 65334 151
Width: 1176
Flags: HMW
LayerCount: 2
Fore
SplineSet
967 742 m 29
 588 -15 l 5
 209 742 l 5
 331 742 l 5
 588 223 l 5
 845 742 l 5
 967 742 l 29
EndSplineSet
Validated: 1
EndChar

StartChar: uniFF37
Encoding: 65335 65335 152
Width: 1176
Flags: HMW
LayerCount: 2
Fore
SplineSet
966 741 m 29
 899 0 l 5
 719 0 l 5
 588 279 l 5
 457 0 l 5
 277 0 l 5
 210 741 l 5
 333 741 l 5
 385 99 l 5
 588 494 l 5
 791 99 l 5
 843 741 l 5
 966 741 l 29
EndSplineSet
Validated: 1
EndChar

StartChar: uniFF38
Encoding: 65336 65336 153
Width: 1176
Flags: HMW
LayerCount: 2
Fore
SplineSet
589 463 m 1
 841 742 l 1
 966 742 l 1
 661 396 l 1
 966 0 l 1
 841 0 l 1
 589 332 l 1
 335 0 l 1
 211 0 l 1
 515 396 l 1
 211 742 l 1
 335 742 l 1
 589 463 l 1
EndSplineSet
Validated: 1
EndChar

StartChar: uniFF39
Encoding: 65337 65337 154
Width: 1176
Flags: HMW
LayerCount: 2
Fore
SplineSet
967 742 m 25
 651 353 l 1
 651 0 l 1
 528 0 l 1
 528 353 l 1
 210 742 l 1
 333 742 l 1
 589 434 l 1
 845 742 l 1
 967 742 l 25
EndSplineSet
Validated: 1
EndChar

StartChar: uniFF3A
Encoding: 65338 65338 155
Width: 1176
Flags: HMW
LayerCount: 2
Fore
SplineSet
901 742 m 29
 967 669 l 5
 348 74 l 5
 901 74 l 5
 967 0 l 5
 277 0 l 5
 211 74 l 5
 829 669 l 5
 277 669 l 5
 211 742 l 5
 901 742 l 29
EndSplineSet
Validated: 1
EndChar

StartChar: uniFF3B
Encoding: 65339 65339 156
Width: 1176
Flags: HMW
LayerCount: 2
Fore
SplineSet
739 888 m 29
 739 806 l 1
 563 806 l 1
 563 -64 l 1
 739 -64 l 1
 739 -146 l 1
 439 -146 l 1
 439 888 l 1
 739 888 l 29
EndSplineSet
Validated: 1
EndChar

StartChar: uniFF3C
Encoding: 65340 65340 157
Width: 1176
Flags: HMW
LayerCount: 2
Fore
SplineSet
225 888 m 25
 359 888 l 1
 951 -146 l 1
 817 -146 l 1
 225 888 l 25
EndSplineSet
Validated: 1
EndChar

StartChar: uniFF3D
Encoding: 65341 65341 158
Width: 1176
Flags: HMW
LayerCount: 2
Fore
SplineSet
437 888 m 29
 737 888 l 1
 737 -146 l 1
 437 -146 l 1
 437 -64 l 1
 613 -64 l 1
 613 806 l 1
 437 806 l 1
 437 888 l 29
EndSplineSet
Validated: 1
EndChar

StartChar: uniFF3E
Encoding: 65342 65342 159
Width: 1176
Flags: HMW
LayerCount: 2
Fore
SplineSet
589 799 m 29
 954 515 l 5
 793 515 l 5
 589 682 l 5
 384 515 l 5
 223 515 l 5
 589 799 l 29
EndSplineSet
Validated: 1
EndChar

StartChar: uniFF3F
Encoding: 65343 65343 160
Width: 1176
Flags: HMW
LayerCount: 2
Fore
SplineSet
966 0 m 25
 210 0 l 1
 210 73 l 1
 966 73 l 1
 966 0 l 25
EndSplineSet
Validated: 1
EndChar

StartChar: uniFF40
Encoding: 65344 65344 161
Width: 1176
Flags: HMW
LayerCount: 2
Fore
SplineSet
558 799 m 1
 615 786 665 738 709 654 c 1
 709 606 700 582 684 582 c 0
 652 582 609 608 552 660 c 0
 495 712 467 745 467 761 c 0
 467 767 477 774 498 784 c 0
 519 794 538 799 558 799 c 1
EndSplineSet
Validated: 1
EndChar

StartChar: uniFF41
Encoding: 65345 65345 162
Width: 1176
Flags: HMW
LayerCount: 2
Fore
SplineSet
891 473 m 5
 852 446 l 5
 852 152 l 6
 852 103 873 74 917 63 c 5
 995 63 l 5
 906 -8 l 5
 818 0 773 46 773 129 c 5
 734 39 668 -6 575 -6 c 4
 477 -6 395 18 331 67 c 4
 261 120 227 178 227 241 c 4
 227 298 257 352 315 403 c 4
 373 454 445 479 531 479 c 4
 563 479 601 471 645 456 c 4
 689 441 715 430 729 421 c 5
 729 473 l 5
 891 473 l 5
527 410 m 4
 500 410 467 402 433 385 c 4
 411 374 392 358 378 335 c 4
 358 304 349 268 349 227 c 4
 349 180 371 138 413 102 c 4
 441 79 489 67 558 67 c 4
 620 67 674 110 720 196 c 4
 735 225 743 258 743 296 c 4
 743 322 727 344 697 362 c 4
 667 380 641 393 615 400 c 4
 589 407 561 410 527 410 c 4
EndSplineSet
Validated: 1
EndChar

StartChar: uniFF42
Encoding: 65346 65346 163
Width: 1176
Flags: HMW
LayerCount: 2
Fore
SplineSet
267 742 m 1
 427 742 l 1
 427 421 l 1
 437 428 473 439 533 455 c 0
 593 471 635 479 657 479 c 0
 749 479 819 458 870 416 c 0
 921 374 947 315 947 241 c 0
 947 176 904 118 822 68 c 0
 740 18 649 -6 553 -6 c 0
 481 -6 419 22 365 78 c 1
 363 29 336 0 282 -8 c 1
 186 54 l 1
 255 54 l 1
 285 75 302 104 305 142 c 2
 305 717 l 1
 267 742 l 1
685 407 m 0
 661 407 628 403 588 396 c 0
 548 389 510 376 474 358 c 0
 438 340 421 320 421 296 c 0
 421 276 423 260 423 249 c 0
 423 238 424 221 426 200 c 0
 428 179 433 163 437 150 c 0
 441 137 447 123 456 109 c 0
 465 95 477 85 492 78 c 0
 507 71 523 67 543 67 c 0
 613 67 680 84 738 119 c 0
 796 154 825 192 825 234 c 0
 825 349 778 407 685 407 c 0
EndSplineSet
Validated: 1
EndChar

StartChar: uniFF43
Encoding: 65347 65347 164
Width: 1176
Flags: HMW
LayerCount: 2
Fore
SplineSet
593 479 m 31
 661 479 727 462 795 430 c 0
 863 398 897 370 897 345 c 1
 767 263 l 1
 767 331 l 1
 757 350 732 368 696 384 c 0
 660 400 627 407 593 407 c 0
 524 407 471 392 433 360 c 0
 395 328 378 289 378 243 c 0
 378 194 395 152 429 118 c 0
 463 84 519 67 593 67 c 0
 638 67 677 76 715 94 c 0
 753 112 781 133 797 159 c 1
 936 159 l 1
 914 118 868 80 804 46 c 0
 740 12 667 -6 589 -6 c 0
 491 -6 412 18 349 66 c 0
 286 114 255 172 255 243 c 0
 255 314 287 371 351 414 c 0
 415 457 495 479 593 479 c 31
EndSplineSet
Validated: 1
EndChar

StartChar: uniFF44
Encoding: 65348 65348 165
Width: 1176
Flags: HMW
LayerCount: 2
Fore
SplineSet
909 742 m 5
 871 717 l 1
 871 142 l 2
 874 104 891 75 921 54 c 1
 990 54 l 1
 894 -8 l 1
 840 0 813 29 811 78 c 1
 757 22 695 -6 623 -6 c 0
 527 -6 436 18 354 68 c 0
 272 118 229 176 229 241 c 0
 229 315 255 374 306 416 c 0
 357 458 427 479 519 479 c 0
 541 479 583 471 643 455 c 0
 703 439 739 428 749 421 c 1
 749 742 l 1
 909 742 l 5
491 407 m 4
 398 407 351 349 351 234 c 0
 351 192 380 154 438 119 c 0
 496 84 563 67 633 67 c 0
 653 67 669 71 684 78 c 0
 699 85 711 95 720 109 c 0
 729 123 735 137 739 150 c 0
 743 163 748 179 750 200 c 0
 752 221 753 238 753 249 c 0
 753 260 755 276 755 296 c 0
 755 320 738 340 702 358 c 0
 666 376 628 389 588 396 c 0
 548 403 515 407 491 407 c 4
EndSplineSet
Validated: 1
EndChar

StartChar: uniFF45
Encoding: 65349 65349 166
Width: 1176
Flags: HMW
LayerCount: 2
Fore
SplineSet
589 479 m 4
 627 479 662 475 696 467 c 0
 730 459 759 449 781 437 c 0
 803 425 825 412 843 398 c 0
 861 384 875 367 885 350 c 0
 895 333 900 319 900 310 c 1
 411 126 l 1
 415 113 434 99 462 83 c 0
 474 76 493 70 515 64 c 0
 537 58 562 56 589 56 c 0
 645 56 692 65 732 82 c 0
 772 99 793 117 793 134 c 1
 953 165 l 1
 927 121 882 81 819 46 c 0
 756 11 679 -6 589 -6 c 0
 491 -6 411 16 348 62 c 0
 285 108 255 166 255 236 c 0
 255 307 285 366 348 411 c 0
 411 456 491 479 589 479 c 4
759 350 m 5
 759 352 758 355 756 358 c 0
 754 361 752 366 744 374 c 0
 736 382 725 388 715 394 c 0
 705 400 688 405 666 410 c 0
 644 415 617 417 589 417 c 0
 537 417 492 407 459 386 c 0
 426 365 403 342 393 317 c 0
 383 292 378 265 378 236 c 0
 378 215 379 198 381 185 c 1
 759 350 l 5
EndSplineSet
Validated: 1
EndChar

StartChar: uniFF46
Encoding: 65350 65350 167
Width: 1176
Flags: HMW
LayerCount: 2
Fore
SplineSet
713 745 m 0
 747 745 779 740 807 730 c 0
 835 720 858 708 876 694 c 0
 894 680 907 666 917 654 c 0
 927 642 933 631 937 620 c 1
 815 552 l 1
 815 601 l 2
 815 649 781 673 713 673 c 0
 641 673 605 649 605 601 c 2
 605 463 l 1
 895 463 l 1
 839 390 l 1
 605 390 l 1
 605 34 l 1
 648 0 l 1
 438 0 l 1
 481 34 l 1
 481 390 l 1
 271 390 l 1
 271 463 l 1
 481 463 l 1
 481 621 l 2
 481 654 501 683 543 708 c 0
 585 733 643 745 713 745 c 0
EndSplineSet
Validated: 1
EndChar

StartChar: uniFF47
Encoding: 65351 65351 168
Width: 1176
Flags: HMW
LayerCount: 2
Fore
SplineSet
753 118 m 1
 749 111 748 111 744 104 c 0
 728 83 705 66 677 54 c 0
 643 40 603 33 563 33 c 0
 476 33 402 56 342 102 c 0
 282 148 252 200 252 259 c 0
 252 316 283 367 341 412 c 0
 399 457 475 479 563 479 c 0
 603 479 643 472 677 459 c 0
 711 446 737 425 753 397 c 1
 753 473 l 1
 912 473 l 1
 876 446 l 1
 876 -110 l 2
 876 -134 849 -158 792 -182 c 0
 735 -206 659 -217 565 -218 c 0
 481 -218 413 -205 357 -178 c 0
 301 -151 266 -124 252 -99 c 1
 375 -31 l 1
 375 -99 l 1
 384 -106 391 -110 397 -113 c 0
 407 -118 429 -126 462 -134 c 0
 495 -142 529 -146 565 -146 c 0
 623 -145 670 -138 703 -125 c 0
 736 -112 753 -95 753 -75 c 2
 753 118 l 1
563 407 m 256
 495 407 448 394 420 368 c 0
 390 341 375 305 375 259 c 0
 375 213 389 176 421 148 c 0
 453 120 500 105 563 105 c 256
 625 105 669 117 699 140 c 0
 729 163 744 202 744 257 c 0
 744 357 685 407 563 407 c 256
EndSplineSet
Validated: 1
EndChar

StartChar: uniFF48
Encoding: 65352 65352 169
Width: 1176
Flags: HMW
LayerCount: 2
Fore
SplineSet
405 742 m 5
 405 413 l 5
 431 432 463 448 501 460 c 4
 539 472 575 479 609 479 c 4
 703 479 775 457 825 412 c 4
 875 367 898 313 900 252 c 6
 900 30 l 5
 933 0 l 5
 737 0 l 5
 777 30 l 5
 777 252 l 6
 777 355 721 407 609 407 c 4
 557 407 508 394 468 368 c 4
 428 342 408 304 408 255 c 6
 408 30 l 5
 441 0 l 5
 247 0 l 5
 282 30 l 5
 282 720 l 5
 245 742 l 5
 405 742 l 5
EndSplineSet
Validated: 1
EndChar

StartChar: uniFF49
Encoding: 65353 65353 170
Width: 1176
Flags: HMW
LayerCount: 2
Fore
SplineSet
552 693 m 24
 573 693 594 687 615 674 c 0
 636 661 648 647 648 630 c 0
 648 613 636 599 615 586 c 0
 594 573 573 567 552 567 c 0
 531 567 509 574 487 586 c 0
 465 598 455 613 455 630 c 0
 455 647 465 662 487 674 c 0
 509 686 531 693 552 693 c 24
637 473 m 25
 637 83 l 1
 767 83 l 1
 709 0 l 1
 517 0 l 1
 517 390 l 1
 420 390 l 1
 420 473 l 1
 637 473 l 25
EndSplineSet
Validated: 1
EndChar

StartChar: uniFF4A
Encoding: 65354 65354 171
Width: 1176
Flags: HMW
LayerCount: 2
Fore
SplineSet
843 697 m 28
 871 697 897 691 918 678 c 4
 939 665 951 650 951 631 c 4
 951 612 939 597 918 584 c 4
 897 571 871 565 843 565 c 4
 813 565 786 572 765 584 c 4
 744 596 733 612 733 631 c 4
 733 650 744 666 765 678 c 4
 786 690 813 697 843 697 c 28
267 35 m 4
 267 52 274 69 289 85 c 4
 304 101 327 109 357 109 c 4
 372 109 391 106 417 99 c 4
 443 92 455 85 455 78 c 4
 455 71 444 63 423 55 c 4
 402 47 390 37 390 25 c 4
 390 -75 476 -125 587 -125 c 4
 639 -125 711 -112 738 -87 c 4
 765 -62 781 -29 781 12 c 6
 781 443 l 5
 747 473 l 5
 937 473 l 5
 905 443 l 5
 905 12 l 6
 905 -47 875 -100 817 -141 c 4
 759 -182 661 -198 587 -198 c 4
 505 -198 407 -178 351 -140 c 4
 295 -102 267 -44 267 35 c 4
EndSplineSet
Validated: 1
EndChar

StartChar: uniFF4B
Encoding: 65355 65355 172
Width: 1176
Flags: HMW
LayerCount: 2
Fore
SplineSet
729 441 m 5
 693 473 l 1
 887 473 l 1
 852 441 l 1
 850 374 793 319 677 274 c 1
 739 246 787 210 825 166 c 0
 863 122 883 77 887 30 c 1
 921 0 l 1
 729 0 l 1
 768 30 l 1
 765 113 710 182 600 237 c 1
 413 237 l 1
 413 30 l 1
 445 0 l 1
 257 0 l 1
 289 30 l 1
 289 714 l 1
 257 742 l 1
 445 742 l 1
 413 714 l 1
 413 309 l 1
 569 309 l 1
 631 326 673 346 695 368 c 0
 717 390 729 414 729 441 c 5
EndSplineSet
Validated: 1
EndChar

StartChar: uniFF4C
Encoding: 65356 65356 173
Width: 1176
Flags: HMW
LayerCount: 2
Fore
SplineSet
581 742 m 29
 543 714 l 5
 543 158 l 6
 543 135 547 118 555 106 c 4
 563 94 574 85 588 78 c 4
 602 71 619 67 643 67 c 4
 707 67 741 86 741 123 c 6
 741 191 l 5
 864 108 l 5
 854 83 830 58 791 32 c 4
 752 6 700 -6 637 -6 c 4
 563 -6 513 4 483 24 c 4
 467 35 454 45 444 56 c 4
 434 68 427 85 423 106 c 4
 417 138 414 181 414 234 c 6
 414 714 l 5
 377 742 l 5
 581 742 l 29
EndSplineSet
Validated: 1
EndChar

StartChar: uniFF4D
Encoding: 65357 65357 174
Width: 1176
Flags: HMW
LayerCount: 2
Fore
SplineSet
330 473 m 25
 330 432 l 1
 338 443 353 454 379 464 c 0
 405 474 427 479 443 479 c 0
 475 478 500 472 522 462 c 0
 544 452 569 436 593 415 c 1
 641 457 693 478 750 479 c 0
 794 479 834 470 870 451 c 0
 906 432 930 409 942 380 c 0
 954 351 962 326 966 303 c 0
 970 280 973 259 973 240 c 2
 973 30 l 1
 1011 0 l 1
 816 0 l 1
 851 30 l 1
 851 240 l 2
 851 351 818 407 750 407 c 0
 687 407 655 351 655 240 c 2
 655 30 l 1
 687 0 l 1
 493 0 l 1
 533 30 l 1
 533 240 l 2
 533 351 501 407 439 407 c 0
 365 407 330 351 330 240 c 2
 330 30 l 1
 365 0 l 1
 169 0 l 1
 207 30 l 1
 207 448 l 1
 168 473 l 1
 330 473 l 25
EndSplineSet
Validated: 1
EndChar

StartChar: uniFF4E
Encoding: 65358 65358 175
Width: 1176
Flags: HMW
LayerCount: 2
Fore
SplineSet
606 479 m 0
 674 479 731 467 777 442 c 0
 823 417 856 388 876 352 c 0
 896 316 906 276 906 232 c 2
 906 30 l 1
 942 0 l 1
 745 0 l 1
 783 30 l 1
 783 232 l 2
 783 288 768 332 738 364 c 0
 708 396 663 411 606 411 c 0
 537 411 491 396 465 366 c 0
 439 336 426 291 426 232 c 2
 426 30 l 1
 462 0 l 1
 271 0 l 1
 303 30 l 1
 303 448 l 1
 265 473 l 1
 425 473 l 1
 425 420 l 1
 479 459 538 479 606 479 c 0
EndSplineSet
Validated: 1
EndChar

StartChar: uniFF4F
Encoding: 65359 65359 176
Width: 1176
Flags: HMW
LayerCount: 2
Fore
SplineSet
581 417 m 4
 457 417 393 355 393 230 c 0
 393 175 407 132 435 102 c 0
 463 72 512 56 581 56 c 0
 651 56 702 71 735 102 c 0
 768 133 785 176 785 230 c 0
 785 285 768 330 735 365 c 0
 702 400 650 417 581 417 c 4
581 479 m 4
 675 479 756 453 822 402 c 0
 888 351 923 294 923 230 c 0
 923 167 889 112 823 65 c 0
 757 18 677 -6 581 -6 c 0
 487 -6 409 17 347 64 c 0
 285 111 255 166 255 230 c 0
 255 295 286 352 348 403 c 0
 410 454 487 479 581 479 c 4
EndSplineSet
Validated: 1
EndChar

StartChar: uniFF50
Encoding: 65360 65360 177
Width: 1176
Flags: HMW
LayerCount: 2
Fore
SplineSet
629 479 m 0
 715 479 784 453 840 401 c 0
 896 349 924 293 924 234 c 0
 924 176 896 121 840 70 c 0
 784 19 715 -6 629 -6 c 0
 585 -6 544 1 505 14 c 0
 466 27 439 47 423 74 c 1
 423 -181 l 1
 459 -212 l 1
 261 -212 l 1
 300 -181 l 1
 300 448 l 1
 261 473 l 1
 423 473 l 1
 423 401 l 1
 453 453 523 479 629 479 c 0
615 406 m 0
 549 406 502 388 474 353 c 0
 446 318 431 278 431 234 c 0
 431 191 446 152 474 118 c 0
 502 84 549 67 613 67 c 0
 677 67 727 83 755 116 c 0
 783 149 798 189 798 234 c 0
 798 280 784 320 756 354 c 0
 728 388 681 406 615 406 c 0
EndSplineSet
Validated: 1
EndChar

StartChar: uniFF51
Encoding: 65361 65361 178
Width: 1176
Flags: HMW
LayerCount: 2
Fore
SplineSet
905 473 m 1
 870 450 l 1
 870 -9 l 2
 870 -99 896 -144 947 -145 c 0
 999 -145 1026 -116 1026 -59 c 1
 1147 -102 l 1
 1137 -127 1113 -152 1077 -178 c 0
 1041 -204 995 -218 939 -218 c 0
 811 -217 747 -148 747 -9 c 2
 747 74 l 1
 731 47 705 27 666 14 c 0
 627 1 587 -6 543 -6 c 0
 457 -6 387 19 333 70 c 0
 279 121 252 176 252 234 c 0
 252 272 263 309 285 346 c 0
 307 383 342 414 387 440 c 0
 432 466 485 479 543 479 c 0
 649 479 717 453 747 402 c 1
 747 473 l 1
 905 473 l 1
552 406 m 4
 489 406 443 390 417 356 c 4
 391 322 378 281 378 234 c 0
 378 187 391 148 417 116 c 0
 443 84 489 67 552 67 c 0
 615 67 663 84 696 118 c 0
 729 152 744 191 744 234 c 0
 744 278 729 318 696 353 c 4
 663 388 615 406 552 406 c 4
EndSplineSet
Validated: 1
EndChar

StartChar: uniFF52
Encoding: 65362 65362 179
Width: 1176
Flags: HMW
LayerCount: 2
Fore
SplineSet
621 479 m 0
 711 478 782 460 834 424 c 0
 886 388 911 353 913 319 c 0
 913 306 903 294 879 284 c 0
 855 274 826 269 792 269 c 0
 782 269 771 272 765 278 c 0
 759 284 756 289 756 293 c 0
 756 299 762 305 774 312 c 0
 786 319 791 325 791 330 c 0
 791 357 774 376 741 388 c 0
 708 400 667 407 621 407 c 0
 581 407 546 399 516 384 c 0
 486 369 464 351 450 329 c 0
 436 307 426 286 420 267 c 0
 414 248 409 230 409 215 c 2
 409 32 l 1
 447 0 l 1
 253 0 l 1
 287 32 l 1
 287 450 l 1
 263 463 251 470 251 473 c 1
 409 473 l 1
 409 399 l 1
 419 417 447 434 495 452 c 0
 543 470 585 479 621 479 c 0
EndSplineSet
Validated: 1
EndChar

StartChar: uniFF53
Encoding: 65363 65363 180
Width: 1176
Flags: HMW
LayerCount: 2
Fore
SplineSet
726 479 m 6
 746 479 780 471 828 454 c 0
 846 448 862 436 876 418 c 0
 890 400 897 384 899 369 c 0
 899 355 893 344 879 338 c 0
 865 332 842 329 809 329 c 0
 797 329 786 330 777 332 c 0
 768 334 762 338 762 341 c 0
 762 347 768 352 780 356 c 0
 792 360 797 364 797 369 c 0
 797 376 789 385 771 394 c 0
 753 403 734 407 713 407 c 2
 501 407 l 2
 468 407 442 401 426 390 c 0
 410 379 401 364 401 345 c 0
 401 326 410 310 426 298 c 0
 442 286 468 281 501 281 c 2
 684 281 l 2
 744 281 795 267 837 239 c 0
 879 211 899 179 899 142 c 0
 899 105 876 71 834 40 c 0
 792 9 742 -6 684 -6 c 2
 449 -6 l 2
 434 -6 401 2 351 19 c 0
 333 25 316 38 301 56 c 0
 286 74 279 90 277 104 c 0
 277 131 311 144 379 144 c 0
 405 144 417 140 417 132 c 0
 417 126 411 122 399 118 c 0
 387 114 379 109 379 104 c 0
 379 97 390 89 408 80 c 0
 426 71 446 67 467 67 c 2
 687 67 l 2
 745 67 775 90 775 136 c 0
 775 157 768 174 753 188 c 0
 738 202 716 208 684 208 c 2
 515 208 l 2
 453 208 399 222 351 250 c 0
 303 278 277 310 277 345 c 0
 277 380 301 411 349 438 c 0
 397 465 453 479 515 479 c 2
 726 479 l 6
EndSplineSet
Validated: 1
EndChar

StartChar: uniFF54
Encoding: 65364 65364 181
Width: 1176
Flags: HMW
LayerCount: 2
Fore
SplineSet
612 742 m 1
 579 713 l 1
 579 463 l 1
 912 463 l 1
 855 390 l 1
 579 390 l 1
 579 164 l 1
 579 132 l 2
 579 125 581 116 585 106 c 0
 589 96 594 90 600 85 c 0
 606 80 616 76 630 72 c 0
 644 68 658 67 678 67 c 0
 700 67 720 73 738 85 c 0
 756 97 769 109 777 121 c 2
 787 139 l 1
 787 208 l 1
 899 134 l 1
 893 119 881 102 863 82 c 0
 845 62 819 42 783 23 c 0
 747 4 710 -6 671 -6 c 0
 615 -6 566 6 522 28 c 0
 478 50 456 80 456 119 c 2
 456 390 l 1
 264 390 l 1
 264 463 l 1
 456 463 l 1
 456 713 l 1
 414 742 l 1
 612 742 l 1
EndSplineSet
Validated: 1
EndChar

StartChar: uniFF55
Encoding: 65365 65365 182
Width: 1176
Flags: HMW
LayerCount: 2
Fore
SplineSet
927 473 m 25
 894 442 l 1
 894 15 l 1
 930 -6 l 1
 771 -6 l 1
 771 63 l 1
 708 17 645 -6 581 -6 c 0
 482 -6 407 18 357 66 c 0
 307 114 282 173 282 242 c 2
 282 442 l 1
 247 473 l 1
 444 473 l 1
 405 442 l 1
 405 248 l 2
 405 191 420 147 450 115 c 0
 480 83 524 67 581 67 c 0
 645 67 691 83 723 116 c 0
 755 149 771 193 771 248 c 2
 771 442 l 1
 737 473 l 1
 927 473 l 25
EndSplineSet
Validated: 1
EndChar

StartChar: uniFF56
Encoding: 65366 65366 183
Width: 1176
Flags: HMW
LayerCount: 2
Fore
SplineSet
929 473 m 29
 891 441 l 1
 891 369 l 2
 891 315 858 246 795 163 c 0
 732 80 663 23 589 -6 c 1
 515 23 447 80 383 163 c 0
 319 246 287 315 287 369 c 2
 287 441 l 1
 249 473 l 1
 450 473 l 1
 409 441 l 1
 409 369 l 2
 409 332 429 280 468 213 c 0
 507 146 545 100 589 75 c 1
 631 100 672 146 711 213 c 0
 750 280 768 332 768 369 c 2
 768 441 l 1
 725 473 l 1
 929 473 l 29
EndSplineSet
Validated: 1
EndChar

StartChar: uniFF57
Encoding: 65367 65367 184
Width: 1176
Flags: HMW
LayerCount: 2
Fore
SplineSet
981 473 m 25
 948 441 l 1
 948 217 l 2
 948 97 881 23 747 -6 c 1
 705 8 672 23 645 39 c 0
 618 55 598 75 588 99 c 1
 567 54 519 19 443 -6 c 1
 301 25 229 99 229 217 c 2
 229 441 l 1
 197 473 l 1
 389 473 l 1
 353 441 l 1
 353 217 l 2
 353 176 357 146 367 125 c 0
 377 104 403 85 443 67 c 1
 481 90 504 111 513 130 c 0
 522 149 528 178 528 217 c 2
 528 441 l 1
 489 473 l 1
 683 473 l 1
 649 441 l 1
 649 217 l 2
 649 181 657 153 669 133 c 0
 681 113 707 91 747 67 c 1
 773 78 789 92 801 109 c 0
 813 126 820 140 822 153 c 0
 824 166 823 187 825 217 c 2
 825 441 l 1
 787 473 l 1
 981 473 l 25
EndSplineSet
Validated: 1
EndChar

StartChar: uniFF58
Encoding: 65368 65368 185
Width: 1176
Flags: HMW
LayerCount: 2
Fore
SplineSet
585 292 m 1
 777 447 l 1
 785 489 l 1
 923 399 l 1
 864 394 l 1
 666 236 l 1
 863 78 l 1
 923 74 l 1
 785 -27 l 1
 777 25 l 1
 585 180 l 1
 397 25 l 1
 390 -27 l 1
 252 74 l 1
 312 78 l 1
 509 236 l 1
 311 394 l 1
 252 399 l 1
 390 489 l 1
 397 447 l 1
 585 292 l 1
EndSplineSet
Validated: 1
EndChar

StartChar: uniFF59
Encoding: 65369 65369 186
Width: 1176
Flags: HMW
LayerCount: 2
Fore
SplineSet
925 473 m 29
 891 442 l 5
 891 10 l 6
 891 -62 864 -116 810 -152 c 4
 756 -188 678 -205 579 -205 c 4
 509 -204 446 -191 390 -166 c 4
 334 -141 304 -105 301 -59 c 5
 396 -23 l 5
 396 -96 457 -132 579 -132 c 4
 648 -132 697 -120 727 -95 c 4
 757 -70 773 -32 773 20 c 6
 773 110 l 5
 761 87 735 70 696 58 c 4
 657 46 619 41 579 41 c 4
 480 41 405 64 357 108 c 4
 309 152 285 207 285 272 c 6
 285 442 l 5
 251 473 l 5
 449 473 l 5
 408 442 l 5
 408 272 l 6
 408 217 422 177 450 152 c 4
 478 127 521 114 579 114 c 4
 705 114 768 167 768 272 c 6
 768 442 l 5
 733 473 l 5
 925 473 l 29
EndSplineSet
Validated: 1
EndChar

StartChar: uniFF5A
Encoding: 65370 65370 187
Width: 1176
Flags: HMW
LayerCount: 2
Fore
SplineSet
923 471 m 21
 920 401 748 270 408 78 c 1
 741 65 l 1
 779 70 797 76 797 84 c 0
 797 89 791 94 779 97 c 0
 767 100 761 105 761 111 c 0
 761 120 773 124 797 124 c 0
 829 124 855 118 873 106 c 0
 891 94 900 82 900 67 c 0
 898 34 879 12 843 -1 c 0
 817 -10 789 -14 757 -14 c 0
 585 -1 457 5 375 5 c 0
 295 5 255 29 255 78 c 1
 277 97 324 129 396 172 c 0
 468 215 538 257 606 298 c 0
 674 339 717 373 737 399 c 1
 427 399 l 1
 393 394 375 388 375 380 c 0
 375 375 381 370 391 366 c 0
 401 362 408 357 408 351 c 0
 408 342 397 337 375 337 c 0
 343 337 319 343 299 354 c 0
 279 365 270 378 270 393 c 0
 272 422 292 444 330 457 c 0
 357 466 385 471 413 471 c 2
 923 471 l 21
EndSplineSet
Validated: 1
EndChar

StartChar: uniFF5B
Encoding: 65371 65371 188
Width: 1176
Flags: HMW
LayerCount: 2
Fore
SplineSet
499 372 m 5
 514 355 537 333 569 306 c 4
 601 279 624 256 642 238 c 4
 660 220 667 203 667 189 c 6
 615 0 l 6
 615 -1 617 -5 625 -14 c 4
 646 -40 683 -53 739 -53 c 5
 739 -146 l 5
 703 -146 667 -140 629 -128 c 4
 591 -116 554 -93 516 -58 c 4
 500 -42 490 -31 486 -24 c 6
 480 -11 l 5
 513 100 529 164 529 182 c 4
 529 200 521 218 501 236 c 4
 481 254 454 278 420 305 c 4
 386 332 358 355 342 372 c 5
 358 389 386 411 420 438 c 4
 454 465 481 488 501 506 c 4
 521 524 531 543 531 561 c 4
 531 579 514 643 480 754 c 5
 486 767 l 6
 489 774 500 785 516 801 c 4
 574 859 647 888 739 888 c 5
 739 796 l 5
 685 796 647 783 625 758 c 4
 617 749 615 744 615 743 c 6
 667 554 l 6
 667 540 660 524 642 506 c 4
 624 488 601 465 569 438 c 4
 537 411 514 389 499 372 c 5
EndSplineSet
Validated: 1
EndChar

StartChar: uniFF5C
Encoding: 65372 65372 189
Width: 1176
Flags: HMW
LayerCount: 2
Fore
SplineSet
649 888 m 29
 649 -146 l 1
 527 -146 l 1
 527 888 l 1
 649 888 l 29
EndSplineSet
Validated: 1
EndChar

StartChar: uniFF5D
Encoding: 65373 65373 190
Width: 1176
Flags: HMW
LayerCount: 2
Fore
SplineSet
677 372 m 5
 662 389 639 411 607 438 c 4
 575 465 552 488 534 506 c 4
 516 524 509 540 509 554 c 6
 561 743 l 6
 561 744 559 749 551 758 c 4
 529 783 491 796 437 796 c 5
 437 888 l 5
 529 888 602 859 660 801 c 4
 676 785 687 774 690 767 c 6
 696 754 l 5
 662 643 645 579 645 561 c 4
 645 543 655 524 675 506 c 4
 695 488 722 465 756 438 c 4
 790 411 818 389 834 372 c 5
 818 355 790 332 756 305 c 4
 722 278 695 254 675 236 c 4
 655 218 647 200 647 182 c 4
 647 164 663 100 696 -11 c 5
 690 -24 l 6
 686 -31 676 -42 660 -58 c 4
 622 -93 585 -116 547 -128 c 4
 509 -140 473 -146 437 -146 c 5
 437 -53 l 5
 493 -53 530 -40 551 -14 c 4
 559 -5 561 -1 561 0 c 6
 509 189 l 6
 509 203 516 220 534 238 c 4
 552 256 575 279 607 306 c 4
 639 333 662 355 677 372 c 5
EndSplineSet
Validated: 1
EndChar

StartChar: uniFF5E
Encoding: 65374 65374 191
Width: 1176
Flags: HMW
LayerCount: 2
Fore
SplineSet
905 424 m 1
 937 424 951 412 951 387 c 0
 951 370 928 350 883 327 c 0
 838 304 795 293 753 293 c 0
 731 293 672 309 582 342 c 0
 492 375 440 391 425 391 c 0
 410 390 389 385 363 376 c 0
 337 367 315 357 297 347 c 2
 270 332 l 1
 242 332 228 344 228 369 c 0
 228 386 249 406 294 429 c 0
 339 452 383 463 425 463 c 0
 447 463 504 446 594 414 c 0
 684 382 738 366 753 366 c 0
 768 366 787 371 813 380 c 0
 839 391 859 401 877 410 c 2
 905 424 l 1
EndSplineSet
Validated: 1
EndChar

StartChar: SF430000
Encoding: 9552 9552 192
Width: 588
Flags: HMW
LayerCount: 2
Fore
SplineSet
0 401 m 1
 0 474 l 1
 588 474 l 1
 588 401 l 1
 0 401 l 1
0 253 m 1
 0 327 l 1
 588 327 l 1
 588 253 l 1
 0 253 l 1
EndSplineSet
Validated: 1
EndChar

StartChar: SF240000
Encoding: 9553 9553 193
Width: 588
Flags: HMW
LayerCount: 2
Fore
SplineSet
256 -277 m 1
 162 -277 l 1
 162 1004 l 1
 256 1004 l 1
 256 -277 l 1
426 -277 m 1
 332 -277 l 1
 332 1004 l 1
 426 1004 l 1
 426 -277 l 1
EndSplineSet
Validated: 1
EndChar

StartChar: SF510000
Encoding: 9554 9554 194
Width: 588
Flags: HMW
LayerCount: 2
Fore
SplineSet
247 -277 m 1
 247 474 l 1
 588 474 l 1
 588 401 l 1
 341 401 l 1
 341 327 l 1
 588 327 l 1
 588 253 l 1
 341 253 l 1
 341 -277 l 1
 247 -277 l 1
EndSplineSet
Validated: 1
EndChar

StartChar: SF520000
Encoding: 9555 9555 195
Width: 588
Flags: HMW
LayerCount: 2
Fore
SplineSet
162 -277 m 1
 162 401 l 1
 588 401 l 1
 588 327 l 1
 426 327 l 1
 426 -277 l 1
 332 -277 l 1
 332 327 l 1
 256 327 l 1
 256 -277 l 1
 162 -277 l 1
EndSplineSet
Validated: 1
EndChar

StartChar: SF390000
Encoding: 9556 9556 196
Width: 588
Flags: HMW
LayerCount: 2
Fore
SplineSet
256 -277 m 1
 162 -277 l 1
 162 474 l 1
 588 474 l 1
 588 401 l 1
 256 401 l 1
 256 -277 l 1
332 -277 m 1
 332 327 l 1
 588 327 l 1
 588 253 l 1
 426 253 l 1
 426 -277 l 1
 332 -277 l 1
EndSplineSet
Validated: 1
EndChar

StartChar: SF220000
Encoding: 9557 9557 197
Width: 588
Flags: HMW
LayerCount: 2
Fore
SplineSet
341 -277 m 1
 247 -277 l 1
 247 253 l 1
 0 253 l 1
 0 327 l 1
 247 327 l 1
 247 401 l 1
 0 401 l 1
 0 474 l 1
 341 474 l 1
 341 -277 l 1
EndSplineSet
Validated: 1
EndChar

StartChar: SF210000
Encoding: 9558 9558 198
Width: 588
Flags: HMW
LayerCount: 2
Fore
SplineSet
256 -277 m 1
 162 -277 l 1
 162 327 l 1
 0 327 l 1
 0 401 l 1
 426 401 l 1
 426 -277 l 1
 332 -277 l 1
 332 327 l 1
 256 327 l 1
 256 -277 l 1
EndSplineSet
Validated: 1
EndChar

StartChar: SF250000
Encoding: 9559 9559 199
Width: 588
Flags: HMW
LayerCount: 2
Fore
SplineSet
426 -277 m 1
 332 -277 l 1
 332 401 l 1
 0 401 l 1
 0 474 l 1
 426 474 l 1
 426 -277 l 1
256 -277 m 1
 162 -277 l 1
 162 253 l 1
 0 253 l 1
 0 327 l 1
 256 327 l 1
 256 -277 l 1
EndSplineSet
Validated: 1
EndChar

StartChar: SF500000
Encoding: 9560 9560 200
Width: 588
Flags: HMW
LayerCount: 2
Fore
SplineSet
588 253 m 1
 247 253 l 1
 247 1004 l 1
 341 1004 l 1
 341 474 l 1
 588 474 l 1
 588 401 l 1
 341 401 l 1
 341 327 l 1
 588 327 l 1
 588 253 l 1
EndSplineSet
Validated: 1
EndChar

StartChar: SF490000
Encoding: 9561 9561 201
Width: 588
Flags: HMW
LayerCount: 2
Fore
SplineSet
162 327 m 1
 162 1004 l 1
 256 1004 l 1
 256 401 l 1
 332 401 l 1
 332 1004 l 1
 426 1004 l 1
 426 401 l 1
 588 401 l 1
 588 327 l 1
 162 327 l 1
EndSplineSet
Validated: 1
EndChar

StartChar: SF280000
Encoding: 9563 9563 202
Width: 588
Flags: HMW
LayerCount: 2
Fore
SplineSet
0 253 m 1
 0 327 l 1
 247 327 l 1
 247 401 l 1
 0 401 l 1
 0 474 l 1
 247 474 l 1
 247 1004 l 1
 341 1004 l 1
 341 253 l 1
 0 253 l 1
EndSplineSet
Validated: 1
EndChar

StartChar: SF270000
Encoding: 9564 9564 203
Width: 588
Flags: HMW
LayerCount: 2
Fore
SplineSet
0 327 m 1
 0 401 l 1
 162 401 l 1
 162 1004 l 1
 256 1004 l 1
 256 401 l 1
 332 401 l 1
 332 1004 l 1
 426 1004 l 1
 426 327 l 1
 0 327 l 1
EndSplineSet
Validated: 1
EndChar

StartChar: SF260000
Encoding: 9565 9565 204
Width: 588
Flags: HMW
LayerCount: 2
Fore
SplineSet
0 401 m 1
 0 474 l 1
 162 474 l 1
 162 1004 l 1
 256 1004 l 1
 256 401 l 1
 0 401 l 1
0 253 m 1
 0 327 l 1
 332 327 l 1
 332 1004 l 1
 426 1004 l 1
 426 253 l 1
 0 253 l 1
EndSplineSet
Validated: 1
EndChar

StartChar: SF360000
Encoding: 9566 9566 205
Width: 588
Flags: HMW
LayerCount: 2
Fore
SplineSet
247 -277 m 1
 247 1004 l 1
 341 1004 l 1
 341 474 l 1
 588 474 l 1
 588 401 l 1
 341 401 l 1
 341 327 l 1
 588 327 l 1
 588 253 l 1
 341 253 l 1
 341 -277 l 1
 247 -277 l 1
EndSplineSet
Validated: 1
EndChar

StartChar: SF370000
Encoding: 9567 9567 206
Width: 588
Flags: HMW
LayerCount: 2
Fore
SplineSet
256 -277 m 1
 162 -277 l 1
 162 1004 l 1
 256 1004 l 1
 256 -277 l 1
332 -277 m 1
 332 1004 l 1
 426 1004 l 1
 426 401 l 1
 588 401 l 1
 588 327 l 1
 426 327 l 1
 426 -277 l 1
 332 -277 l 1
EndSplineSet
Validated: 1
EndChar

StartChar: SF420000
Encoding: 9568 9568 207
Width: 588
Flags: HMW
LayerCount: 2
Fore
SplineSet
256 -277 m 1
 162 -277 l 1
 162 1004 l 1
 256 1004 l 1
 256 -277 l 1
332 401 m 1
 332 1004 l 1
 426 1004 l 1
 426 474 l 1
 588 474 l 1
 588 401 l 1
 332 401 l 1
332 -277 m 1
 332 327 l 1
 588 327 l 1
 588 253 l 1
 426 253 l 1
 426 -277 l 1
 332 -277 l 1
EndSplineSet
Validated: 1
EndChar

StartChar: SF190000
Encoding: 9569 9569 208
Width: 588
Flags: HMW
LayerCount: 2
Fore
SplineSet
341 -277 m 1
 247 -277 l 1
 247 253 l 1
 0 253 l 1
 0 327 l 1
 247 327 l 1
 247 401 l 1
 0 401 l 1
 0 474 l 1
 247 474 l 1
 247 1004 l 1
 341 1004 l 1
 341 -277 l 1
EndSplineSet
Validated: 1
EndChar

StartChar: SF200000
Encoding: 9570 9570 209
Width: 588
Flags: HMW
LayerCount: 2
Fore
SplineSet
256 -277 m 1
 162 -277 l 1
 162 327 l 1
 0 327 l 1
 0 401 l 1
 162 401 l 1
 162 1004 l 1
 256 1004 l 1
 256 -277 l 1
426 -277 m 1
 332 -277 l 1
 332 1004 l 1
 426 1004 l 1
 426 -277 l 1
EndSplineSet
Validated: 1
EndChar

StartChar: SF230000
Encoding: 9571 9571 210
Width: 588
Flags: HMW
LayerCount: 2
Fore
SplineSet
0 401 m 1
 0 474 l 1
 162 474 l 1
 162 1004 l 1
 256 1004 l 1
 256 401 l 1
 0 401 l 1
426 -277 m 1
 332 -277 l 1
 332 1004 l 1
 426 1004 l 1
 426 -277 l 1
256 -277 m 1
 162 -277 l 1
 162 253 l 1
 0 253 l 1
 0 327 l 1
 256 327 l 1
 256 -277 l 1
EndSplineSet
Validated: 1
EndChar

StartChar: SF470000
Encoding: 9572 9572 211
Width: 588
Flags: HMW
LayerCount: 2
Fore
SplineSet
0 401 m 1
 0 474 l 1
 588 474 l 1
 588 401 l 1
 0 401 l 1
341 -277 m 1
 247 -277 l 1
 247 253 l 1
 0 253 l 1
 0 327 l 1
 588 327 l 1
 588 253 l 1
 341 253 l 1
 341 -277 l 1
EndSplineSet
Validated: 1
EndChar

StartChar: SF480000
Encoding: 9573 9573 212
Width: 588
Flags: HMW
LayerCount: 2
Fore
SplineSet
256 -277 m 1
 162 -277 l 1
 162 327 l 1
 0 327 l 1
 0 401 l 1
 588 401 l 1
 588 327 l 1
 426 327 l 1
 426 -277 l 1
 332 -277 l 1
 332 327 l 1
 256 327 l 1
 256 -277 l 1
EndSplineSet
Validated: 1
EndChar

StartChar: SF410000
Encoding: 9574 9574 213
Width: 588
Flags: HMW
LayerCount: 2
Fore
SplineSet
0 401 m 1
 0 474 l 1
 588 474 l 1
 588 401 l 1
 0 401 l 1
256 -277 m 1
 162 -277 l 1
 162 253 l 1
 0 253 l 1
 0 327 l 1
 256 327 l 1
 256 -277 l 1
332 -277 m 1
 332 327 l 1
 588 327 l 1
 588 253 l 1
 426 253 l 1
 426 -277 l 1
 332 -277 l 1
EndSplineSet
Validated: 1
EndChar

StartChar: SF450000
Encoding: 9575 9575 214
Width: 588
Flags: HMW
LayerCount: 2
Fore
SplineSet
0 401 m 1
 0 474 l 1
 247 474 l 1
 247 1004 l 1
 341 1004 l 1
 341 474 l 1
 588 474 l 1
 588 401 l 1
 0 401 l 1
0 253 m 1
 0 327 l 1
 588 327 l 1
 588 253 l 1
 0 253 l 1
EndSplineSet
Validated: 1
EndChar

StartChar: SF460000
Encoding: 9576 9576 215
Width: 588
Flags: HMW
LayerCount: 2
Fore
SplineSet
0 327 m 1
 0 401 l 1
 162 401 l 1
 162 1004 l 1
 256 1004 l 1
 256 401 l 1
 332 401 l 1
 332 1004 l 1
 426 1004 l 1
 426 401 l 1
 588 401 l 1
 588 327 l 1
 0 327 l 1
EndSplineSet
Validated: 1
EndChar

StartChar: SF400000
Encoding: 9577 9577 216
Width: 588
Flags: HMW
LayerCount: 2
Fore
SplineSet
0 401 m 1
 0 474 l 1
 162 474 l 1
 162 1004 l 1
 256 1004 l 1
 256 401 l 1
 0 401 l 1
332 401 m 1
 332 1004 l 1
 426 1004 l 1
 426 474 l 1
 588 474 l 1
 588 401 l 1
 332 401 l 1
0 253 m 1
 0 327 l 1
 588 327 l 1
 588 253 l 1
 0 253 l 1
EndSplineSet
Validated: 1
EndChar

StartChar: SF540000
Encoding: 9578 9578 217
Width: 588
Flags: HMW
LayerCount: 2
Fore
SplineSet
0 401 m 1
 0 474 l 1
 247 474 l 1
 247 1004 l 1
 341 1004 l 1
 341 474 l 1
 588 474 l 1
 588 401 l 1
 0 401 l 1
341 -277 m 1
 247 -277 l 1
 247 253 l 1
 0 253 l 1
 0 327 l 1
 588 327 l 1
 588 253 l 1
 341 253 l 1
 341 -277 l 1
EndSplineSet
Validated: 1
EndChar

StartChar: SF530000
Encoding: 9579 9579 218
Width: 588
Flags: HMW
LayerCount: 2
Fore
SplineSet
256 -277 m 1
 162 -277 l 1
 162 327 l 1
 0 327 l 1
 0 401 l 1
 162 401 l 1
 162 1004 l 1
 256 1004 l 1
 256 -277 l 1
332 -277 m 1
 332 1004 l 1
 426 1004 l 1
 426 401 l 1
 588 401 l 1
 588 327 l 1
 426 327 l 1
 426 -277 l 1
 332 -277 l 1
EndSplineSet
Validated: 1
EndChar

StartChar: SF440000
Encoding: 9580 9580 219
Width: 588
Flags: HMW
LayerCount: 2
Fore
SplineSet
0 401 m 1
 0 474 l 1
 162 474 l 1
 162 1004 l 1
 256 1004 l 1
 256 401 l 1
 0 401 l 1
332 401 m 1
 332 1004 l 1
 426 1004 l 1
 426 474 l 1
 588 474 l 1
 588 401 l 1
 332 401 l 1
256 -277 m 1
 162 -277 l 1
 162 253 l 1
 0 253 l 1
 0 327 l 1
 256 327 l 1
 256 -277 l 1
332 -277 m 1
 332 327 l 1
 588 327 l 1
 588 253 l 1
 426 253 l 1
 426 -277 l 1
 332 -277 l 1
EndSplineSet
Validated: 1
EndChar

StartChar: uni256D
Encoding: 9581 9581 221
Width: 588
Flags: HMW
LayerCount: 2
Fore
SplineSet
247 -277 m 1
 247 124 l 2
 247 183 261 233 289 275 c 0
 313 312 347 342 390 364 c 0
 439 388 499 401 569 401 c 2
 588 401 l 1
 588 327 l 1
 569 327 l 2
 521 327 480 318 445 301 c 0
 415 285 391 265 372 238 c 0
 351 206 341 167 341 124 c 2
 341 -277 l 1
 247 -277 l 1
EndSplineSet
Validated: 1
EndChar

StartChar: uni256E
Encoding: 9582 9582 222
Width: 588
Flags: HMW
LayerCount: 2
Fore
SplineSet
247 -277 m 1
 247 124 l 2
 247 167 237 206 216 238 c 0
 197 265 173 285 143 301 c 0
 108 318 66 327 19 327 c 2
 0 327 l 1
 0 401 l 1
 19 401 l 2
 89 401 149 388 198 364 c 0
 241 342 275 312 299 275 c 0
 327 233 341 183 341 124 c 2
 341 -277 l 1
 247 -277 l 1
EndSplineSet
Validated: 1
EndChar

StartChar: uni256F
Encoding: 9583 9583 223
Width: 588
Flags: HMW
LayerCount: 2
Fore
SplineSet
0 327 m 1
 0 401 l 1
 19 401 l 2
 67 401 108 410 143 428 c 0
 173 444 197 464 216 491 c 0
 237 522 247 560 247 604 c 2
 247 1004 l 1
 341 1004 l 1
 341 604 l 2
 341 545 327 495 299 453 c 0
 275 416 241 386 198 365 c 0
 149 339 89 328 19 327 c 2
 0 327 l 1
EndSplineSet
Validated: 1
EndChar

StartChar: uni2570
Encoding: 9584 9584 224
Width: 588
Flags: HMW
LayerCount: 2
Fore
SplineSet
569 327 m 2
 499 327 439 339 390 365 c 0
 347 387 313 416 289 453 c 0
 261 494 247 545 247 604 c 2
 247 1004 l 1
 341 1004 l 1
 341 604 l 2
 341 561 351 523 372 491 c 0
 391 464 415 444 445 428 c 0
 480 410 522 401 569 401 c 2
 588 401 l 1
 588 327 l 1
 569 327 l 2
EndSplineSet
Validated: 1
EndChar

StartChar: upblock
Encoding: 9600 9600 225
Width: 588
Flags: HMW
LayerCount: 2
Fore
SplineSet
588 364 m 1
 0 364 l 1
 0 1004 l 1
 588 1004 l 1
 588 364 l 1
EndSplineSet
Validated: 1
EndChar

StartChar: uni2581
Encoding: 9601 9601 226
Width: 588
Flags: HMW
LayerCount: 2
Fore
SplineSet
588 -277 m 1
 0 -277 l 1
 0 -116 l 1
 588 -116 l 1
 588 -277 l 1
EndSplineSet
Validated: 1
EndChar

StartChar: uni2582
Encoding: 9602 9602 227
Width: 588
Flags: HMW
LayerCount: 2
Fore
SplineSet
588 -277 m 1
 0 -277 l 1
 0 44 l 1
 588 44 l 1
 588 -277 l 1
EndSplineSet
Validated: 1
EndChar

StartChar: uni2583
Encoding: 9603 9603 228
Width: 588
Flags: HMW
LayerCount: 2
Fore
SplineSet
588 -277 m 1
 0 -277 l 1
 0 204 l 1
 588 204 l 1
 588 -277 l 1
EndSplineSet
Validated: 1
EndChar

StartChar: dnblock
Encoding: 9604 9604 229
Width: 588
Flags: HMW
LayerCount: 2
Fore
SplineSet
588 -277 m 1
 0 -277 l 1
 0 364 l 1
 588 364 l 1
 588 -277 l 1
EndSplineSet
Validated: 1
EndChar

StartChar: uni2585
Encoding: 9605 9605 230
Width: 588
Flags: HMW
LayerCount: 2
Fore
SplineSet
588 -277 m 1
 0 -277 l 1
 0 525 l 1
 588 525 l 1
 588 -277 l 1
EndSplineSet
Validated: 1
EndChar

StartChar: uni2586
Encoding: 9606 9606 231
Width: 588
Flags: HMW
LayerCount: 2
Fore
SplineSet
588 -277 m 1
 0 -277 l 1
 0 684 l 1
 588 684 l 1
 588 -277 l 1
EndSplineSet
Validated: 1
EndChar

StartChar: uni2587
Encoding: 9607 9607 232
Width: 588
Flags: HMW
LayerCount: 2
Fore
SplineSet
588 -277 m 1
 0 -277 l 1
 0 844 l 1
 588 844 l 1
 588 -277 l 1
EndSplineSet
Validated: 1
EndChar

StartChar: block
Encoding: 9608 9608 233
Width: 588
Flags: HMW
LayerCount: 2
Fore
SplineSet
588 -277 m 1
 0 -277 l 1
 0 1004 l 1
 588 1004 l 1
 588 -277 l 1
EndSplineSet
Validated: 1
EndChar

StartChar: uni2589
Encoding: 9609 9609 234
Width: 588
Flags: HMW
LayerCount: 2
Fore
SplineSet
515 -277 m 1
 0 -277 l 1
 0 1004 l 1
 515 1004 l 1
 515 -277 l 1
EndSplineSet
Validated: 1
EndChar

StartChar: uni258A
Encoding: 9610 9610 235
Width: 588
Flags: HMW
LayerCount: 2
Fore
SplineSet
441 -277 m 1
 0 -277 l 1
 0 1004 l 1
 441 1004 l 1
 441 -277 l 1
EndSplineSet
Validated: 1
EndChar

StartChar: uni258B
Encoding: 9611 9611 236
Width: 588
Flags: HMW
LayerCount: 2
Fore
SplineSet
368 -277 m 1
 0 -277 l 1
 0 1004 l 1
 368 1004 l 1
 368 -277 l 1
EndSplineSet
Validated: 1
EndChar

StartChar: lfblock
Encoding: 9612 9612 237
Width: 588
Flags: HMW
LayerCount: 2
Fore
SplineSet
294 -277 m 1
 0 -277 l 1
 0 1004 l 1
 294 1004 l 1
 294 -277 l 1
EndSplineSet
Validated: 1
EndChar

StartChar: uni258D
Encoding: 9613 9613 238
Width: 588
Flags: HMW
LayerCount: 2
Fore
SplineSet
221 -277 m 1
 0 -277 l 1
 0 1004 l 1
 221 1004 l 1
 221 -277 l 1
EndSplineSet
Validated: 1
EndChar

StartChar: uni258E
Encoding: 9614 9614 239
Width: 588
Flags: HMW
LayerCount: 2
Fore
SplineSet
147 -277 m 1
 0 -277 l 1
 0 1004 l 1
 147 1004 l 1
 147 -277 l 1
EndSplineSet
Validated: 1
EndChar

StartChar: uni258F
Encoding: 9615 9615 240
Width: 588
Flags: HMW
LayerCount: 2
Fore
SplineSet
74 -277 m 1
 0 -277 l 1
 0 1004 l 1
 74 1004 l 1
 74 -277 l 1
EndSplineSet
Validated: 1
EndChar

StartChar: rtblock
Encoding: 9616 9616 241
Width: 588
Flags: HMW
LayerCount: 2
Fore
SplineSet
588 -277 m 1
 294 -277 l 1
 294 1004 l 1
 588 1004 l 1
 588 -277 l 1
EndSplineSet
Validated: 1
EndChar

StartChar: ltshade
Encoding: 9617 9617 242
Width: 588
Flags: HMW
LayerCount: 2
Fore
SplineSet
0 -277 m 1
 0 -237 l 1
 569 1004 l 1
 588 1004 l 1
 588 964 l 1
 19 -277 l 1
 0 -277 l 1
0 324 m 1
 0 404 l 1
 275 1004 l 1
 313 1004 l 1
 0 324 l 1
0 964 m 1
 0 1004 l 1
 19 1004 l 1
 0 964 l 1
275 -277 m 1
 588 404 l 1
 588 324 l 1
 313 -277 l 1
 275 -277 l 1
569 -277 m 1
 588 -237 l 1
 588 -277 l 1
 569 -277 l 1
EndSplineSet
Validated: 1
EndChar

StartChar: shade
Encoding: 9618 9618 243
Width: 588
Flags: HMW
LayerCount: 2
Fore
SplineSet
0 -277 m 1
 0 -237 l 1
 569 1004 l 1
 588 1004 l 1
 588 964 l 1
 19 -277 l 1
 0 -277 l 1
0 4 m 1
 0 84 l 1
 422 1004 l 1
 460 1004 l 1
 0 4 l 1
0 324 m 1
 0 404 l 1
 275 1004 l 1
 313 1004 l 1
 0 324 l 1
0 644 m 1
 0 724 l 1
 128 1004 l 1
 166 1004 l 1
 0 644 l 1
0 964 m 1
 0 1004 l 1
 19 1004 l 1
 0 964 l 1
128 -277 m 1
 588 724 l 1
 588 644 l 1
 166 -277 l 1
 128 -277 l 1
275 -277 m 1
 588 404 l 1
 588 324 l 1
 313 -277 l 1
 275 -277 l 1
422 -277 m 1
 588 84 l 1
 588 4 l 1
 460 -277 l 1
 422 -277 l 1
569 -277 m 1
 588 -237 l 1
 588 -277 l 1
 569 -277 l 1
EndSplineSet
Validated: 1
EndChar

StartChar: dkshade
Encoding: 9619 9619 244
Width: 588
Flags: HMW
LayerCount: 2
Fore
SplineSet
0 -277 m 1
 0 -237 l 1
 569 1004 l 1
 588 1004 l 1
 588 964 l 1
 19 -277 l 1
 0 -277 l 1
0 -156 m 1
 0 -76 l 1
 496 1004 l 1
 533 1004 l 1
 0 -156 l 1
0 4 m 1
 0 84 l 1
 422 1004 l 1
 460 1004 l 1
 0 4 l 1
0 164 m 1
 0 244 l 1
 349 1004 l 1
 386 1004 l 1
 0 164 l 1
0 324 m 1
 0 404 l 1
 275 1004 l 1
 313 1004 l 1
 0 324 l 1
0 485 m 1
 0 564 l 1
 202 1004 l 1
 239 1004 l 1
 0 485 l 1
0 644 m 1
 0 724 l 1
 128 1004 l 1
 166 1004 l 1
 0 644 l 1
0 804 m 1
 0 884 l 1
 55 1004 l 1
 92 1004 l 1
 0 804 l 1
0 964 m 1
 0 1004 l 1
 19 1004 l 1
 0 964 l 1
55 -277 m 1
 588 884 l 1
 588 804 l 1
 92 -277 l 1
 55 -277 l 1
128 -277 m 1
 588 724 l 1
 588 644 l 1
 166 -277 l 1
 128 -277 l 1
202 -277 m 1
 588 564 l 1
 588 485 l 1
 239 -277 l 1
 202 -277 l 1
275 -277 m 1
 588 404 l 1
 588 324 l 1
 313 -277 l 1
 275 -277 l 1
349 -277 m 1
 588 244 l 1
 588 164 l 1
 386 -277 l 1
 349 -277 l 1
422 -277 m 1
 588 84 l 1
 588 4 l 1
 460 -277 l 1
 422 -277 l 1
496 -277 m 1
 588 -76 l 1
 588 -156 l 1
 533 -277 l 1
 496 -277 l 1
569 -277 m 1
 588 -237 l 1
 588 -277 l 1
 569 -277 l 1
EndSplineSet
Validated: 1
EndChar

StartChar: uni2594
Encoding: 9620 9620 245
Width: 588
Flags: HMW
LayerCount: 2
Fore
SplineSet
588 844 m 1
 0 844 l 1
 0 1004 l 1
 588 1004 l 1
 588 844 l 1
EndSplineSet
Validated: 1
EndChar

StartChar: uni2595
Encoding: 9621 9621 246
Width: 588
Flags: HMW
LayerCount: 2
Fore
SplineSet
588 -277 m 1
 515 -277 l 1
 515 1004 l 1
 588 1004 l 1
 588 -277 l 1
EndSplineSet
Validated: 1
EndChar

StartChar: uni2596
Encoding: 9622 9622 247
Width: 588
Flags: HMW
LayerCount: 2
Fore
SplineSet
0 -277 m 1
 0 364 l 1
 294 364 l 1
 294 -277 l 1
 0 -277 l 1
EndSplineSet
Validated: 1
EndChar

StartChar: uni2597
Encoding: 9623 9623 248
Width: 588
Flags: HMW
LayerCount: 2
Fore
SplineSet
294 -277 m 1
 294 364 l 1
 588 364 l 1
 588 -277 l 1
 294 -277 l 1
EndSplineSet
Validated: 1
EndChar

StartChar: uni2598
Encoding: 9624 9624 249
Width: 588
Flags: HMW
LayerCount: 2
Fore
SplineSet
0 364 m 1
 0 1004 l 1
 294 1004 l 1
 294 364 l 1
 0 364 l 1
EndSplineSet
Validated: 1
EndChar

StartChar: uni2599
Encoding: 9625 9625 250
Width: 588
Flags: HMW
LayerCount: 2
Fore
SplineSet
588 -277 m 1
 0 -277 l 1
 0 1004 l 1
 294 1004 l 1
 294 364 l 1
 588 364 l 1
 588 -277 l 1
EndSplineSet
Validated: 1
EndChar

StartChar: uni259A
Encoding: 9626 9626 251
Width: 588
Flags: HMW
LayerCount: 2
Fore
SplineSet
0 365 m 5
 0 1004 l 1
 294 1004 l 1
 294 365 l 1
 0 365 l 5
294 -277 m 5
 294 364 l 1
 588 364 l 1
 588 -277 l 1
 294 -277 l 5
EndSplineSet
Validated: 1
EndChar

StartChar: uni259B
Encoding: 9627 9627 252
Width: 588
Flags: HMW
LayerCount: 2
Fore
SplineSet
0 -277 m 1
 0 1004 l 1
 588 1004 l 1
 588 364 l 1
 294 364 l 1
 294 -277 l 1
 0 -277 l 1
EndSplineSet
Validated: 1
EndChar

StartChar: uni259C
Encoding: 9628 9628 253
Width: 588
Flags: HMW
LayerCount: 2
Fore
SplineSet
294 -277 m 1
 294 364 l 1
 0 364 l 1
 0 1004 l 1
 588 1004 l 1
 588 -277 l 1
 294 -277 l 1
EndSplineSet
Validated: 1
EndChar

StartChar: uni259D
Encoding: 9629 9629 254
Width: 588
Flags: HMW
LayerCount: 2
Fore
SplineSet
294 364 m 1
 294 1004 l 1
 588 1004 l 1
 588 364 l 1
 294 364 l 1
EndSplineSet
Validated: 1
EndChar

StartChar: uni259E
Encoding: 9630 9630 255
Width: 588
Flags: HMW
LayerCount: 2
Fore
SplineSet
294 365 m 5
 294 1005 l 1
 588 1004 l 1
 588 365 l 1
 294 365 l 5
0 -277 m 5
 0 364 l 1
 294 364 l 1
 294 -277 l 1
 0 -277 l 5
EndSplineSet
Validated: 1
EndChar

StartChar: uni259F
Encoding: 9631 9631 256
Width: 588
Flags: HMW
LayerCount: 2
Fore
SplineSet
0 -277 m 1
 0 364 l 1
 294 364 l 1
 294 1004 l 1
 588 1004 l 1
 588 -277 l 1
 0 -277 l 1
EndSplineSet
Validated: 1
EndChar

StartChar: filledbox
Encoding: 9632 9632 257
Width: 588
Flags: HMW
LayerCount: 2
Fore
SplineSet
48 119 m 1
 48 504 l 1
 540 504 l 1
 540 119 l 1
 48 119 l 1
EndSplineSet
Validated: 1
EndChar

StartChar: H22073
Encoding: 9633 9633 258
Width: 588
Flags: HMW
LayerCount: 2
Fore
SplineSet
48 119 m 1
 48 504 l 1
 540 504 l 1
 540 119 l 1
 48 119 l 1
475 170 m 1
 475 454 l 1
 113 454 l 1
 113 170 l 1
 475 170 l 1
EndSplineSet
Validated: 1
EndChar

StartChar: uni25A2
Encoding: 9634 9634 259
Width: 588
Flags: HMW
LayerCount: 2
Fore
SplineSet
178 119 m 2
 151 119 127 124 106 133 c 0
 89 141 75 151 66 164 c 0
 54 179 48 198 48 220 c 2
 48 403 l 2
 48 425 54 444 66 459 c 0
 77 474 90 484 106 491 c 0
 127 500 151 504 178 504 c 2
 410 504 l 2
 437 504 461 500 482 491 c 0
 499 483 513 472 522 459 c 0
 534 444 540 425 540 403 c 2
 540 220 l 2
 540 198 534 179 522 164 c 0
 513 151 499 141 482 133 c 0
 461 124 437 119 410 119 c 2
 178 119 l 2
178 170 m 2
 410 170 l 2
 427 170 440 174 450 182 c 0
 462 191 468 204 468 220 c 2
 468 403 l 2
 468 420 462 433 450 442 c 0
 440 450 427 454 410 454 c 2
 178 454 l 2
 161 454 148 450 138 442 c 0
 126 433 120 420 120 403 c 2
 120 220 l 2
 120 203 126 191 138 182 c 0
 148 174 161 170 178 170 c 2
EndSplineSet
Validated: 1
EndChar

StartChar: uni25A3
Encoding: 9635 9635 260
Width: 588
Flags: HMW
LayerCount: 2
Fore
SplineSet
48 119 m 1
 48 504 l 1
 540 504 l 1
 540 119 l 1
 48 119 l 1
96 157 m 1
 492 157 l 1
 492 467 l 1
 96 467 l 1
 96 157 l 1
195 234 m 1
 195 389 l 1
 393 389 l 1
 393 234 l 1
 195 234 l 1
EndSplineSet
Validated: 1
EndChar

StartChar: H18543
Encoding: 9642 9642 261
Width: 588
Flags: HMW
LayerCount: 2
Fore
SplineSet
441 196 m 1
 147 196 l 1
 147 427 l 1
 441 427 l 1
 441 196 l 1
EndSplineSet
Validated: 1
EndChar

StartChar: H18551
Encoding: 9643 9643 262
Width: 588
Flags: HMW
LayerCount: 2
Fore
SplineSet
147 196 m 1
 147 427 l 1
 441 427 l 1
 441 196 l 1
 147 196 l 1
211 246 m 1
 377 246 l 1
 377 377 l 1
 211 377 l 1
 211 246 l 1
EndSplineSet
Validated: 1
EndChar

StartChar: filledrect
Encoding: 9644 9644 263
Width: 588
Flags: HMW
LayerCount: 2
Fore
SplineSet
540 183 m 1
 48 183 l 1
 48 440 l 1
 540 440 l 1
 540 183 l 1
EndSplineSet
Validated: 1
EndChar

StartChar: uni25AD
Encoding: 9645 9645 264
Width: 588
Flags: HMW
LayerCount: 2
Fore
SplineSet
540 183 m 1
 48 183 l 1
 48 440 l 1
 540 440 l 1
 540 183 l 1
113 234 m 1
 475 234 l 1
 475 389 l 1
 113 389 l 1
 113 234 l 1
EndSplineSet
Validated: 1
EndChar

StartChar: uni25AE
Encoding: 9646 9646 265
Width: 588
Flags: HMW
LayerCount: 2
Fore
SplineSet
48 23 m 1
 48 601 l 1
 540 601 l 1
 540 23 l 1
 48 23 l 1
EndSplineSet
Validated: 1
EndChar

StartChar: triagup
Encoding: 9650 9650 266
Width: 588
Flags: HMW
LayerCount: 2
Fore
SplineSet
11 119 m 1
 294 504 l 1
 577 119 l 1
 11 119 l 1
EndSplineSet
Validated: 1
EndChar

StartChar: triagdn
Encoding: 9660 9660 267
Width: 588
Flags: HMW
LayerCount: 2
Fore
SplineSet
294 119 m 1
 11 504 l 1
 577 504 l 1
 294 119 l 1
EndSplineSet
Validated: 1
EndChar

StartChar: uni25C6
Encoding: 9670 9670 268
Width: 588
Flags: HMW
LayerCount: 2
Fore
SplineSet
294 119 m 1
 48 312 l 1
 294 504 l 1
 540 312 l 1
 294 119 l 1
EndSplineSet
Validated: 1
EndChar

StartChar: uni25C7
Encoding: 9671 9671 269
Width: 588
Flags: HMW
LayerCount: 2
Fore
SplineSet
294 119 m 1
 48 312 l 1
 294 504 l 1
 540 312 l 1
 294 119 l 1
294 191 m 1
 448 312 l 1
 294 433 l 1
 140 312 l 1
 294 191 l 1
EndSplineSet
Validated: 1
EndChar

StartChar: uni25C8
Encoding: 9672 9672 270
Width: 588
Flags: HMW
LayerCount: 2
Fore
SplineSet
294 119 m 1
 48 312 l 1
 294 504 l 1
 540 312 l 1
 294 119 l 1
294 172 m 1
 472 312 l 1
 294 451 l 1
 116 312 l 1
 294 172 l 1
294 242 m 1
 206 312 l 1
 294 381 l 1
 382 312 l 1
 294 242 l 1
EndSplineSet
Validated: 1
EndChar

StartChar: uni25C9
Encoding: 9673 9673 271
Width: 588
Flags: HMW
LayerCount: 2
Fore
SplineSet
294 119 m 256
 250 119 209 128 171 145 c 0
 134 162 104 186 81 215 c 0
 59 246 48 278 48 312 c 0
 48 346 59 378 81 409 c 0
 104 440 134 463 171 479 c 0
 209 496 250 504 294 504 c 256
 338 504 379 496 417 479 c 0
 454 462 484 438 507 409 c 0
 529 378 540 346 540 312 c 0
 540 278 529 246 507 215 c 0
 485 186 455 162 417 145 c 0
 379 128 338 119 294 119 c 256
294 157 m 256
 329 157 362 164 393 178 c 0
 424 192 448 210 466 234 c 0
 484 258 492 284 492 312 c 0
 492 340 484 365 466 389 c 0
 448 413 424 432 393 446 c 0
 362 460 329 467 294 467 c 256
 259 467 226 460 195 446 c 0
 164 432 140 413 122 389 c 0
 104 365 96 340 96 312 c 0
 96 284 104 258 122 234 c 0
 140 210 164 192 195 178 c 0
 226 164 259 157 294 157 c 256
294 234 m 256
 277 234 260 237 244 244 c 0
 228 251 217 261 209 273 c 0
 200 285 195 298 195 312 c 0
 195 326 200 339 209 350 c 0
 217 362 228 371 244 378 c 0
 260 385 277 389 294 389 c 256
 311 389 328 385 344 378 c 0
 360 371 371 362 379 350 c 0
 388 338 393 325 393 311 c 0
 393 297 388 284 379 273 c 0
 371 261 360 251 344 244 c 0
 328 237 311 234 294 234 c 256
EndSplineSet
Validated: 1
EndChar

StartChar: lozenge
Encoding: 9674 9674 272
Width: 588
Flags: HMW
LayerCount: 2
Fore
SplineSet
294 119 m 1
 252 168 l 1
 131 312 l 1
 294 504 l 1
 336 456 l 1
 457 312 l 1
 336 168 l 1
 294 119 l 1
294 218 m 1
 374 312 l 1
 294 406 l 1
 214 312 l 1
 294 218 l 1
EndSplineSet
Validated: 1
EndChar

StartChar: circle
Encoding: 9675 9675 273
Width: 588
Flags: HMW
LayerCount: 2
Fore
SplineSet
294 119 m 260
 250 119 209 128 171 145 c 0
 134 162 104 186 81 215 c 0
 59 246 48 278 48 312 c 0
 48 346 59 378 81 409 c 0
 104 440 134 463 171 479 c 0
 210 496 251 504 294 504 c 256
 338 504 379 496 417 479 c 0
 454 462 484 438 507 409 c 0
 529 378 540 346 540 312 c 0
 540 278 529 246 507 215 c 0
 485 186 455 162 417 145 c 0
 379 128 338 119 294 119 c 260
294 170 m 260
 326 170 356 176 384 188 c 0
 412 200 435 218 451 240 c 0
 467 262 475 287 475 312 c 0
 475 337 467 360 451 382 c 0
 435 404 412 422 384 435 c 0
 356 448 326 454 294 454 c 256
 262 454 232 448 204 435 c 0
 176 422 153 404 137 382 c 0
 121 360 113 337 113 312 c 0
 113 287 121 262 137 240 c 0
 153 218 176 200 204 188 c 0
 232 176 262 170 294 170 c 260
EndSplineSet
Validated: 1
EndChar

StartChar: SF100000
Encoding: 9472 9472 274
Width: 588
Flags: HMW
LayerCount: 2
Fore
SplineSet
0 327 m 1
 0 401 l 1
 588 401 l 1
 588 327 l 1
 0 327 l 1
EndSplineSet
Validated: 1
EndChar

StartChar: uni2501
Encoding: 9473 9473 275
Width: 588
Flags: HMW
LayerCount: 2
Fore
SplineSet
0 290 m 1
 0 438 l 1
 588 438 l 1
 588 290 l 1
 0 290 l 1
EndSplineSet
Validated: 1
EndChar

StartChar: SF110000
Encoding: 9474 9474 276
Width: 588
Flags: HMW
LayerCount: 2
Fore
SplineSet
247 -277 m 1
 247 1004 l 1
 341 1004 l 1
 341 -277 l 1
 247 -277 l 1
EndSplineSet
Validated: 1
EndChar

StartChar: uni2503
Encoding: 9475 9475 277
Width: 588
Flags: HMW
LayerCount: 2
Fore
SplineSet
200 -277 m 1
 200 1004 l 1
 388 1004 l 1
 388 -277 l 1
 200 -277 l 1
EndSplineSet
Validated: 1
EndChar

StartChar: uni2504
Encoding: 9476 9476 278
Width: 588
Flags: HMW
LayerCount: 2
Fore
SplineSet
432 327 m 1
 432 401 l 1
 549 401 l 1
 549 327 l 1
 432 327 l 1
235 327 m 1
 235 401 l 1
 353 401 l 1
 353 327 l 1
 235 327 l 1
39 327 m 1
 39 401 l 1
 156 401 l 1
 156 327 l 1
 39 327 l 1
EndSplineSet
Validated: 1
EndChar

StartChar: uni2505
Encoding: 9477 9477 279
Width: 588
Flags: HMW
LayerCount: 2
Fore
SplineSet
432 290 m 1
 432 438 l 1
 549 438 l 1
 549 290 l 1
 432 290 l 1
235 290 m 1
 235 438 l 1
 353 438 l 1
 353 290 l 1
 235 290 l 1
39 290 m 1
 39 438 l 1
 156 438 l 1
 156 290 l 1
 39 290 l 1
EndSplineSet
Validated: 1
EndChar

StartChar: uni2506
Encoding: 9478 9478 280
Width: 588
Flags: HMW
LayerCount: 2
Fore
SplineSet
247 663 m 1
 247 920 l 1
 341 920 l 1
 341 663 l 1
 247 663 l 1
247 235 m 1
 247 492 l 1
 341 492 l 1
 341 235 l 1
 247 235 l 1
247 -190 m 1
 247 65 l 1
 341 65 l 1
 341 -190 l 1
 247 -190 l 1
EndSplineSet
Validated: 1
EndChar

StartChar: uni2507
Encoding: 9479 9479 281
Width: 588
Flags: HMW
LayerCount: 2
Fore
SplineSet
200 663 m 1
 200 920 l 1
 388 920 l 1
 388 663 l 1
 200 663 l 1
200 235 m 1
 200 492 l 1
 388 492 l 1
 388 235 l 1
 200 235 l 1
200 -190 m 1
 200 65 l 1
 388 65 l 1
 388 -190 l 1
 200 -190 l 1
EndSplineSet
Validated: 1
EndChar

StartChar: uni2508
Encoding: 9480 9480 282
Width: 588
Flags: HMW
LayerCount: 2
Fore
SplineSet
470 327 m 1
 470 401 l 1
 559 401 l 1
 559 327 l 1
 470 327 l 1
323 327 m 1
 323 401 l 1
 412 401 l 1
 412 327 l 1
 323 327 l 1
176 327 m 1
 176 401 l 1
 265 401 l 1
 265 327 l 1
 176 327 l 1
29 327 m 1
 29 401 l 1
 118 401 l 1
 118 327 l 1
 29 327 l 1
EndSplineSet
Validated: 1
EndChar

StartChar: uni2509
Encoding: 9481 9481 283
Width: 588
Flags: HMW
LayerCount: 2
Fore
SplineSet
470 290 m 1
 470 438 l 1
 559 438 l 1
 559 290 l 1
 470 290 l 1
323 290 m 1
 323 438 l 1
 412 438 l 1
 412 290 l 1
 323 290 l 1
176 290 m 1
 176 438 l 1
 265 438 l 1
 265 290 l 1
 176 290 l 1
29 290 m 1
 29 438 l 1
 118 438 l 1
 118 290 l 1
 29 290 l 1
EndSplineSet
Validated: 1
EndChar

StartChar: uni250A
Encoding: 9482 9482 284
Width: 588
Flags: HMW
LayerCount: 2
Fore
SplineSet
247 749 m 1
 247 941 l 1
 341 941 l 1
 341 749 l 1
 247 749 l 1
247 429 m 1
 247 620 l 1
 341 620 l 1
 341 429 l 1
 247 429 l 1
247 108 m 1
 247 300 l 1
 341 300 l 1
 341 108 l 1
 247 108 l 1
247 -212 m 1
 247 -20 l 1
 341 -20 l 1
 341 -212 l 1
 247 -212 l 1
EndSplineSet
Validated: 1
EndChar

StartChar: uni250B
Encoding: 9483 9483 285
Width: 588
Flags: HMW
LayerCount: 2
Fore
SplineSet
200 749 m 1
 200 941 l 1
 388 941 l 1
 388 749 l 1
 200 749 l 1
200 429 m 1
 200 620 l 1
 388 620 l 1
 388 429 l 1
 200 429 l 1
200 108 m 1
 200 300 l 1
 388 300 l 1
 388 108 l 1
 200 108 l 1
200 -212 m 1
 200 -20 l 1
 388 -20 l 1
 388 -212 l 1
 200 -212 l 1
EndSplineSet
Validated: 1
EndChar

StartChar: SF010000
Encoding: 9484 9484 286
Width: 588
Flags: HMW
LayerCount: 2
Fore
SplineSet
247 -277 m 1
 247 401 l 1
 588 401 l 1
 588 327 l 1
 341 327 l 1
 341 -277 l 1
 247 -277 l 1
EndSplineSet
Validated: 1
EndChar

StartChar: uni250D
Encoding: 9485 9485 287
Width: 588
Flags: HMW
LayerCount: 2
Fore
SplineSet
247 -277 m 1
 247 438 l 1
 588 438 l 1
 588 290 l 1
 341 290 l 1
 341 -277 l 1
 247 -277 l 1
EndSplineSet
Validated: 1
EndChar

StartChar: uni250E
Encoding: 9486 9486 288
Width: 588
Flags: HMW
LayerCount: 2
Fore
SplineSet
200 -277 m 1
 200 401 l 1
 588 401 l 1
 588 327 l 1
 388 327 l 1
 388 -277 l 1
 200 -277 l 1
EndSplineSet
Validated: 1
EndChar

StartChar: uni250F
Encoding: 9487 9487 289
Width: 588
Flags: HMW
LayerCount: 2
Fore
SplineSet
200 -277 m 1
 200 438 l 1
 588 438 l 1
 588 290 l 1
 388 290 l 1
 388 -277 l 1
 200 -277 l 1
EndSplineSet
Validated: 1
EndChar

StartChar: SF030000
Encoding: 9488 9488 290
Width: 588
Flags: HMW
LayerCount: 2
Fore
SplineSet
341 -277 m 1
 247 -277 l 1
 247 327 l 1
 0 327 l 1
 0 401 l 1
 341 401 l 1
 341 -277 l 1
EndSplineSet
Validated: 1
EndChar

StartChar: uni2511
Encoding: 9489 9489 291
Width: 588
Flags: HMW
LayerCount: 2
Fore
SplineSet
341 -277 m 1
 247 -277 l 1
 247 290 l 1
 0 290 l 1
 0 438 l 1
 341 438 l 1
 341 -277 l 1
EndSplineSet
Validated: 1
EndChar

StartChar: uni2512
Encoding: 9490 9490 292
Width: 588
Flags: HMW
LayerCount: 2
Fore
SplineSet
388 -277 m 1
 200 -277 l 1
 200 327 l 1
 0 327 l 1
 0 401 l 1
 388 401 l 1
 388 -277 l 1
EndSplineSet
Validated: 1
EndChar

StartChar: uni2513
Encoding: 9491 9491 293
Width: 588
Flags: HMW
LayerCount: 2
Fore
SplineSet
388 -277 m 1
 200 -277 l 1
 200 290 l 1
 0 290 l 1
 0 438 l 1
 388 438 l 1
 388 -277 l 1
EndSplineSet
Validated: 1
EndChar

StartChar: SF020000
Encoding: 9492 9492 294
Width: 588
Flags: HMW
LayerCount: 2
Fore
SplineSet
247 327 m 1
 247 1004 l 1
 341 1004 l 1
 341 401 l 1
 588 401 l 1
 588 327 l 1
 247 327 l 1
EndSplineSet
Validated: 1
EndChar

StartChar: uni2515
Encoding: 9493 9493 295
Width: 588
Flags: HMW
LayerCount: 2
Fore
SplineSet
247 290 m 1
 247 1004 l 1
 341 1004 l 1
 341 438 l 1
 588 438 l 1
 588 290 l 1
 247 290 l 1
EndSplineSet
Validated: 1
EndChar

StartChar: uni2516
Encoding: 9494 9494 296
Width: 588
Flags: HMW
LayerCount: 2
Fore
SplineSet
200 327 m 1
 200 1004 l 1
 388 1004 l 1
 388 401 l 1
 588 401 l 1
 588 327 l 1
 200 327 l 1
EndSplineSet
Validated: 1
EndChar

StartChar: uni2517
Encoding: 9495 9495 297
Width: 588
Flags: HMW
LayerCount: 2
Fore
SplineSet
200 290 m 1
 200 1004 l 1
 388 1004 l 1
 388 438 l 1
 588 438 l 1
 588 290 l 1
 200 290 l 1
EndSplineSet
Validated: 1
EndChar

StartChar: SF040000
Encoding: 9496 9496 298
Width: 588
Flags: HMW
LayerCount: 2
Fore
SplineSet
0 327 m 1
 0 401 l 1
 247 401 l 1
 247 1004 l 1
 341 1004 l 1
 341 327 l 1
 0 327 l 1
EndSplineSet
Validated: 1
EndChar

StartChar: uni2519
Encoding: 9497 9497 299
Width: 588
Flags: HMW
LayerCount: 2
Fore
SplineSet
0 290 m 1
 0 438 l 1
 247 438 l 1
 247 1004 l 1
 341 1004 l 1
 341 290 l 1
 0 290 l 1
EndSplineSet
Validated: 1
EndChar

StartChar: uni251A
Encoding: 9498 9498 300
Width: 588
Flags: HMW
LayerCount: 2
Fore
SplineSet
0 327 m 1
 0 401 l 1
 200 401 l 1
 200 1004 l 1
 388 1004 l 1
 388 327 l 1
 0 327 l 1
EndSplineSet
Validated: 1
EndChar

StartChar: uni251B
Encoding: 9499 9499 301
Width: 588
Flags: HMW
LayerCount: 2
Fore
SplineSet
0 290 m 1
 0 438 l 1
 200 438 l 1
 200 1004 l 1
 388 1004 l 1
 388 290 l 1
 0 290 l 1
EndSplineSet
Validated: 1
EndChar

StartChar: SF080000
Encoding: 9500 9500 302
Width: 588
Flags: HMW
LayerCount: 2
Fore
SplineSet
247 -277 m 1
 247 1004 l 1
 341 1004 l 1
 341 401 l 1
 588 401 l 1
 588 327 l 1
 341 327 l 1
 341 -277 l 1
 247 -277 l 1
EndSplineSet
Validated: 1
EndChar

StartChar: uni251D
Encoding: 9501 9501 303
Width: 588
Flags: HMW
LayerCount: 2
Fore
SplineSet
247 -277 m 1
 247 1004 l 1
 341 1004 l 1
 341 438 l 1
 588 438 l 1
 588 290 l 1
 341 290 l 1
 341 -277 l 1
 247 -277 l 1
EndSplineSet
Validated: 1
EndChar

StartChar: uni251E
Encoding: 9502 9502 304
Width: 588
Flags: HMW
LayerCount: 2
Fore
SplineSet
341 -277 m 1
 247 -277 l 1
 247 327 l 1
 200 327 l 1
 200 1004 l 1
 388 1004 l 1
 388 401 l 1
 588 401 l 1
 588 327 l 1
 341 327 l 1
 341 -277 l 1
EndSplineSet
Validated: 1
EndChar

StartChar: uni251F
Encoding: 9503 9503 305
Width: 588
Flags: HMW
LayerCount: 2
Fore
SplineSet
200 -277 m 1
 200 401 l 1
 247 401 l 1
 247 1004 l 1
 341 1004 l 1
 341 401 l 1
 588 401 l 1
 588 327 l 1
 388 327 l 1
 388 -277 l 1
 200 -277 l 1
EndSplineSet
Validated: 1
EndChar

StartChar: uni2520
Encoding: 9504 9504 306
Width: 588
Flags: HMW
LayerCount: 2
Fore
SplineSet
200 -277 m 1
 200 1004 l 1
 388 1004 l 1
 388 401 l 1
 588 401 l 1
 588 327 l 1
 388 327 l 1
 388 -277 l 1
 200 -277 l 1
EndSplineSet
Validated: 1
EndChar

StartChar: uni2521
Encoding: 9505 9505 307
Width: 588
Flags: HMW
LayerCount: 2
Fore
SplineSet
341 -277 m 1
 247 -277 l 1
 247 290 l 1
 200 290 l 1
 200 1004 l 1
 388 1004 l 1
 388 438 l 1
 588 438 l 1
 588 290 l 1
 341 290 l 1
 341 -277 l 1
EndSplineSet
Validated: 1
EndChar

StartChar: uni2522
Encoding: 9506 9506 308
Width: 588
Flags: HMW
LayerCount: 2
Fore
SplineSet
200 -277 m 1
 200 438 l 1
 247 438 l 1
 247 1004 l 1
 341 1004 l 1
 341 438 l 1
 588 438 l 1
 588 290 l 1
 388 290 l 1
 388 -277 l 1
 200 -277 l 1
EndSplineSet
Validated: 1
EndChar

StartChar: uni2523
Encoding: 9507 9507 309
Width: 588
Flags: HMW
LayerCount: 2
Fore
SplineSet
200 -277 m 1
 200 1004 l 1
 388 1004 l 1
 388 438 l 1
 588 438 l 1
 588 290 l 1
 388 290 l 1
 388 -277 l 1
 200 -277 l 1
EndSplineSet
Validated: 1
EndChar

StartChar: SF090000
Encoding: 9508 9508 310
Width: 588
Flags: HMW
LayerCount: 2
Fore
SplineSet
341 -277 m 1
 247 -277 l 1
 247 327 l 1
 0 327 l 1
 0 401 l 1
 247 401 l 1
 247 1004 l 1
 341 1004 l 1
 341 -277 l 1
EndSplineSet
Validated: 1
EndChar

StartChar: uni2525
Encoding: 9509 9509 311
Width: 588
Flags: HMW
LayerCount: 2
Fore
SplineSet
341 -277 m 1
 247 -277 l 1
 247 290 l 1
 0 290 l 1
 0 438 l 1
 247 438 l 1
 247 1004 l 1
 341 1004 l 1
 341 -277 l 1
EndSplineSet
Validated: 1
EndChar

StartChar: uni2526
Encoding: 9510 9510 312
Width: 588
Flags: HMW
LayerCount: 2
Fore
SplineSet
341 -277 m 1
 247 -277 l 1
 247 327 l 1
 0 327 l 1
 0 401 l 1
 200 401 l 1
 200 1004 l 1
 388 1004 l 1
 388 327 l 1
 341 327 l 1
 341 -277 l 1
EndSplineSet
Validated: 1
EndChar

StartChar: uni2527
Encoding: 9511 9511 313
Width: 588
Flags: HMW
LayerCount: 2
Fore
SplineSet
388 -277 m 1
 200 -277 l 1
 200 327 l 1
 0 327 l 1
 0 401 l 1
 247 401 l 1
 247 1004 l 1
 341 1004 l 1
 341 401 l 1
 388 401 l 1
 388 -277 l 1
EndSplineSet
Validated: 1
EndChar

StartChar: uni2528
Encoding: 9512 9512 314
Width: 588
Flags: HMW
LayerCount: 2
Fore
SplineSet
388 -277 m 1
 200 -277 l 1
 200 327 l 1
 0 327 l 1
 0 401 l 1
 200 401 l 1
 200 1004 l 1
 388 1004 l 1
 388 -277 l 1
EndSplineSet
Validated: 1
EndChar

StartChar: uni2529
Encoding: 9513 9513 315
Width: 588
Flags: HMW
LayerCount: 2
Fore
SplineSet
341 -277 m 1
 247 -277 l 1
 247 290 l 1
 0 290 l 1
 0 438 l 1
 200 438 l 1
 200 1004 l 1
 388 1004 l 1
 388 290 l 1
 341 290 l 1
 341 -277 l 1
EndSplineSet
Validated: 1
EndChar

StartChar: uni252A
Encoding: 9514 9514 316
Width: 588
Flags: HMW
LayerCount: 2
Fore
SplineSet
388 -277 m 1
 200 -277 l 1
 200 290 l 1
 0 290 l 1
 0 438 l 1
 247 438 l 1
 247 1004 l 1
 341 1004 l 1
 341 438 l 1
 388 438 l 1
 388 -277 l 1
EndSplineSet
Validated: 1
EndChar

StartChar: uni252B
Encoding: 9515 9515 317
Width: 588
Flags: HMW
LayerCount: 2
Fore
SplineSet
388 -277 m 1
 200 -277 l 1
 200 290 l 1
 0 290 l 1
 0 438 l 1
 200 438 l 1
 200 1004 l 1
 388 1004 l 1
 388 -277 l 1
EndSplineSet
Validated: 1
EndChar

StartChar: SF060000
Encoding: 9516 9516 318
Width: 588
Flags: HMW
LayerCount: 2
Fore
SplineSet
341 -277 m 1
 247 -277 l 1
 247 327 l 1
 0 327 l 1
 0 401 l 1
 588 401 l 1
 588 327 l 1
 341 327 l 1
 341 -277 l 1
EndSplineSet
Validated: 1
EndChar

StartChar: uni252D
Encoding: 9517 9517 319
Width: 588
Flags: HMW
LayerCount: 2
Fore
SplineSet
341 -277 m 1
 247 -277 l 1
 247 290 l 1
 0 290 l 1
 0 438 l 1
 341 438 l 1
 341 401 l 1
 588 401 l 1
 588 327 l 1
 341 327 l 1
 341 -277 l 1
EndSplineSet
Validated: 1
EndChar

StartChar: uni252E
Encoding: 9518 9518 320
Width: 588
Flags: HMW
LayerCount: 2
Fore
SplineSet
341 -277 m 1
 247 -277 l 1
 247 327 l 1
 0 327 l 1
 0 401 l 1
 247 401 l 1
 247 438 l 1
 588 438 l 1
 588 290 l 1
 341 290 l 1
 341 -277 l 1
EndSplineSet
Validated: 1
EndChar

StartChar: uni252F
Encoding: 9519 9519 321
Width: 588
Flags: HMW
LayerCount: 2
Fore
SplineSet
341 -277 m 1
 247 -277 l 1
 247 290 l 1
 0 290 l 1
 0 438 l 1
 588 438 l 1
 588 290 l 1
 341 290 l 1
 341 -277 l 1
EndSplineSet
Validated: 1
EndChar

StartChar: uni2530
Encoding: 9520 9520 322
Width: 588
Flags: HMW
LayerCount: 2
Fore
SplineSet
388 -277 m 1
 200 -277 l 1
 200 327 l 1
 0 327 l 1
 0 401 l 1
 588 401 l 1
 588 327 l 1
 388 327 l 1
 388 -277 l 1
EndSplineSet
Validated: 1
EndChar

StartChar: uni2531
Encoding: 9521 9521 323
Width: 588
Flags: HMW
LayerCount: 2
Fore
SplineSet
388 -277 m 1
 200 -277 l 1
 200 290 l 1
 0 290 l 1
 0 438 l 1
 388 438 l 1
 388 401 l 1
 588 401 l 1
 588 327 l 1
 388 327 l 1
 388 -277 l 1
EndSplineSet
Validated: 1
EndChar

StartChar: uni2532
Encoding: 9522 9522 324
Width: 588
Flags: HMW
LayerCount: 2
Fore
SplineSet
388 -277 m 1
 200 -277 l 1
 200 327 l 1
 0 327 l 1
 0 401 l 1
 200 401 l 1
 200 438 l 1
 588 438 l 1
 588 290 l 1
 388 290 l 1
 388 -277 l 1
EndSplineSet
Validated: 1
EndChar

StartChar: uni2533
Encoding: 9523 9523 325
Width: 588
Flags: HMW
LayerCount: 2
Fore
SplineSet
388 -277 m 1
 200 -277 l 1
 200 290 l 1
 0 290 l 1
 0 438 l 1
 588 438 l 1
 588 290 l 1
 388 290 l 1
 388 -277 l 1
EndSplineSet
Validated: 1
EndChar

StartChar: SF070000
Encoding: 9524 9524 326
Width: 588
Flags: HMW
LayerCount: 2
Fore
SplineSet
0 327 m 1
 0 401 l 1
 247 401 l 1
 247 1004 l 1
 341 1004 l 1
 341 401 l 1
 588 401 l 1
 588 327 l 1
 0 327 l 1
EndSplineSet
Validated: 1
EndChar

StartChar: uni2535
Encoding: 9525 9525 327
Width: 588
Flags: HMW
LayerCount: 2
Fore
SplineSet
0 290 m 1
 0 438 l 1
 247 438 l 1
 247 1004 l 1
 341 1004 l 1
 341 401 l 1
 588 401 l 1
 588 327 l 1
 341 327 l 1
 341 290 l 1
 0 290 l 1
EndSplineSet
Validated: 1
EndChar

StartChar: uni2536
Encoding: 9526 9526 328
Width: 588
Flags: HMW
LayerCount: 2
Fore
SplineSet
247 290 m 1
 247 327 l 1
 0 327 l 1
 0 401 l 1
 247 401 l 1
 247 1004 l 1
 341 1004 l 1
 341 438 l 1
 588 438 l 1
 588 290 l 1
 247 290 l 1
EndSplineSet
Validated: 1
EndChar

StartChar: uni2537
Encoding: 9527 9527 329
Width: 588
Flags: HMW
LayerCount: 2
Fore
SplineSet
0 290 m 1
 0 438 l 1
 247 438 l 1
 247 1004 l 1
 341 1004 l 1
 341 438 l 1
 588 438 l 1
 588 290 l 1
 0 290 l 1
EndSplineSet
Validated: 1
EndChar

StartChar: uni2538
Encoding: 9528 9528 330
Width: 588
Flags: HMW
LayerCount: 2
Fore
SplineSet
0 327 m 1
 0 401 l 1
 200 401 l 1
 200 1004 l 1
 388 1004 l 1
 388 401 l 1
 588 401 l 1
 588 327 l 1
 0 327 l 1
EndSplineSet
Validated: 1
EndChar

StartChar: uni2539
Encoding: 9529 9529 331
Width: 588
Flags: HMW
LayerCount: 2
Fore
SplineSet
0 290 m 1
 0 438 l 1
 200 438 l 1
 200 1004 l 1
 388 1004 l 1
 388 401 l 1
 588 401 l 1
 588 327 l 1
 388 327 l 1
 388 290 l 1
 0 290 l 1
EndSplineSet
Validated: 1
EndChar

StartChar: uni253A
Encoding: 9530 9530 332
Width: 588
Flags: HMW
LayerCount: 2
Fore
SplineSet
200 290 m 1
 200 327 l 1
 0 327 l 1
 0 401 l 1
 200 401 l 1
 200 1004 l 1
 388 1004 l 1
 388 438 l 1
 588 438 l 1
 588 290 l 1
 200 290 l 1
EndSplineSet
Validated: 1
EndChar

StartChar: uni253B
Encoding: 9531 9531 333
Width: 588
Flags: HMW
LayerCount: 2
Fore
SplineSet
0 290 m 1
 0 438 l 1
 200 438 l 1
 200 1004 l 1
 388 1004 l 1
 388 438 l 1
 588 438 l 1
 588 290 l 1
 0 290 l 1
EndSplineSet
Validated: 1
EndChar

StartChar: SF050000
Encoding: 9532 9532 334
Width: 588
Flags: HMW
LayerCount: 2
Fore
SplineSet
341 -277 m 1
 247 -277 l 1
 247 327 l 1
 0 327 l 1
 0 401 l 1
 247 401 l 1
 247 1004 l 1
 341 1004 l 1
 341 401 l 1
 588 401 l 1
 588 327 l 1
 341 327 l 1
 341 -277 l 1
EndSplineSet
Validated: 1
EndChar

StartChar: uni253D
Encoding: 9533 9533 335
Width: 588
Flags: HMW
LayerCount: 2
Fore
SplineSet
341 -277 m 1
 247 -277 l 1
 247 290 l 1
 0 290 l 1
 0 438 l 1
 247 438 l 1
 247 1004 l 1
 341 1004 l 1
 341 401 l 1
 588 401 l 1
 588 327 l 1
 341 327 l 1
 341 -277 l 1
EndSplineSet
Validated: 1
EndChar

StartChar: uni253E
Encoding: 9534 9534 336
Width: 588
Flags: HMW
LayerCount: 2
Fore
SplineSet
247 -277 m 1
 247 327 l 1
 0 327 l 1
 0 401 l 1
 247 401 l 1
 247 1004 l 1
 341 1004 l 1
 341 438 l 1
 588 438 l 1
 588 290 l 1
 341 290 l 1
 341 -277 l 1
 247 -277 l 1
EndSplineSet
Validated: 1
EndChar

StartChar: uni253F
Encoding: 9535 9535 337
Width: 588
Flags: HMW
LayerCount: 2
Fore
SplineSet
341 -277 m 1
 247 -277 l 1
 247 290 l 1
 0 290 l 1
 0 438 l 1
 247 438 l 1
 247 1004 l 1
 341 1004 l 1
 341 438 l 1
 588 438 l 1
 588 290 l 1
 341 290 l 1
 341 -277 l 1
EndSplineSet
Validated: 1
EndChar

StartChar: uni2540
Encoding: 9536 9536 338
Width: 588
Flags: HMW
LayerCount: 2
Fore
SplineSet
341 -277 m 1
 247 -277 l 1
 247 327 l 1
 0 327 l 1
 0 401 l 1
 200 401 l 1
 200 1004 l 1
 388 1004 l 1
 388 401 l 1
 588 401 l 1
 588 327 l 1
 341 327 l 1
 341 -277 l 1
EndSplineSet
Validated: 1
EndChar

StartChar: uni2541
Encoding: 9537 9537 339
Width: 588
Flags: HMW
LayerCount: 2
Fore
SplineSet
388 -277 m 1
 200 -277 l 1
 200 327 l 1
 0 327 l 1
 0 401 l 1
 247 401 l 1
 247 1004 l 1
 341 1004 l 1
 341 401 l 1
 588 401 l 1
 588 327 l 1
 388 327 l 1
 388 -277 l 1
EndSplineSet
Validated: 1
EndChar

StartChar: uni2542
Encoding: 9538 9538 340
Width: 588
Flags: HMW
LayerCount: 2
Fore
SplineSet
388 -277 m 1
 200 -277 l 1
 200 327 l 1
 0 327 l 1
 0 401 l 1
 200 401 l 1
 200 1004 l 1
 388 1004 l 1
 388 401 l 1
 588 401 l 1
 588 327 l 1
 388 327 l 1
 388 -277 l 1
EndSplineSet
Validated: 1
EndChar

StartChar: uni2543
Encoding: 9539 9539 341
Width: 588
Flags: HMW
LayerCount: 2
Fore
SplineSet
341 -277 m 1
 247 -277 l 1
 247 290 l 1
 0 290 l 1
 0 438 l 1
 200 438 l 1
 200 1004 l 1
 388 1004 l 1
 388 401 l 1
 588 401 l 1
 588 327 l 1
 388 327 l 1
 388 290 l 1
 341 290 l 1
 341 -277 l 1
EndSplineSet
Validated: 1
EndChar

StartChar: uni2544
Encoding: 9540 9540 342
Width: 588
Flags: HMW
LayerCount: 2
Fore
SplineSet
341 -277 m 1
 247 -277 l 1
 247 290 l 1
 200 290 l 1
 200 327 l 1
 0 327 l 1
 0 401 l 1
 200 401 l 1
 200 1004 l 1
 388 1004 l 1
 388 438 l 1
 588 438 l 1
 588 290 l 1
 341 290 l 1
 341 -277 l 1
EndSplineSet
Validated: 1
EndChar

StartChar: uni2545
Encoding: 9541 9541 343
Width: 588
Flags: HMW
LayerCount: 2
Fore
SplineSet
388 -277 m 1
 200 -277 l 1
 200 290 l 1
 0 290 l 1
 0 438 l 1
 247 438 l 1
 247 1004 l 1
 341 1004 l 1
 341 438 l 1
 388 438 l 1
 388 401 l 1
 588 401 l 1
 588 327 l 1
 388 327 l 1
 388 -277 l 1
EndSplineSet
Validated: 1
EndChar

StartChar: uni2546
Encoding: 9542 9542 344
Width: 588
Flags: HMW
LayerCount: 2
Fore
SplineSet
388 -277 m 1
 200 -277 l 1
 200 327 l 1
 0 327 l 1
 0 401 l 1
 200 401 l 1
 200 438 l 1
 247 438 l 1
 247 1004 l 1
 341 1004 l 1
 341 438 l 1
 588 438 l 1
 588 290 l 1
 388 290 l 1
 388 -277 l 1
EndSplineSet
Validated: 1
EndChar

StartChar: uni2547
Encoding: 9543 9543 345
Width: 588
Flags: HMW
LayerCount: 2
Fore
SplineSet
341 -277 m 1
 247 -277 l 1
 247 290 l 1
 0 290 l 1
 0 438 l 1
 200 438 l 1
 200 1004 l 1
 388 1004 l 1
 388 438 l 1
 588 438 l 1
 588 290 l 1
 341 290 l 1
 341 -277 l 1
EndSplineSet
Validated: 1
EndChar

StartChar: uni2548
Encoding: 9544 9544 346
Width: 588
Flags: HMW
LayerCount: 2
Fore
SplineSet
388 -277 m 1
 200 -277 l 1
 200 290 l 1
 0 290 l 1
 0 438 l 1
 247 438 l 1
 247 1004 l 1
 341 1004 l 1
 341 438 l 1
 588 438 l 1
 588 290 l 1
 388 290 l 1
 388 -277 l 1
EndSplineSet
Validated: 1
EndChar

StartChar: uni2549
Encoding: 9545 9545 347
Width: 588
Flags: HMW
LayerCount: 2
Fore
SplineSet
388 -277 m 1
 200 -277 l 1
 200 290 l 1
 0 290 l 1
 0 438 l 1
 200 438 l 1
 200 1004 l 1
 388 1004 l 1
 388 401 l 1
 588 401 l 1
 588 327 l 1
 388 327 l 1
 388 -277 l 1
EndSplineSet
Validated: 1
EndChar

StartChar: uni254A
Encoding: 9546 9546 348
Width: 588
Flags: HMW
LayerCount: 2
Fore
SplineSet
200 -277 m 1
 200 327 l 1
 0 327 l 1
 0 401 l 1
 200 401 l 1
 200 1004 l 1
 388 1004 l 1
 388 438 l 1
 588 438 l 1
 588 290 l 1
 388 290 l 1
 388 -277 l 1
 200 -277 l 1
EndSplineSet
Validated: 1
EndChar

StartChar: uni254B
Encoding: 9547 9547 349
Width: 588
Flags: HMW
LayerCount: 2
Fore
SplineSet
388 -277 m 1
 200 -277 l 1
 200 290 l 1
 0 290 l 1
 0 438 l 1
 200 438 l 1
 200 1004 l 1
 388 1004 l 1
 388 438 l 1
 588 438 l 1
 588 290 l 1
 388 290 l 1
 388 -277 l 1
EndSplineSet
Validated: 1
EndChar

StartChar: uni254C
Encoding: 9548 9548 350
Width: 588
Flags: HMW
LayerCount: 2
Fore
SplineSet
353 327 m 1
 353 401 l 1
 529 401 l 1
 529 327 l 1
 353 327 l 1
59 327 m 1
 59 401 l 1
 235 401 l 1
 235 327 l 1
 59 327 l 1
EndSplineSet
Validated: 1
EndChar

StartChar: uni254D
Encoding: 9549 9549 351
Width: 588
Flags: HMW
LayerCount: 2
Fore
SplineSet
353 290 m 1
 353 438 l 1
 529 438 l 1
 529 290 l 1
 353 290 l 1
59 290 m 1
 59 438 l 1
 235 438 l 1
 235 290 l 1
 59 290 l 1
EndSplineSet
Validated: 1
EndChar

StartChar: uni254E
Encoding: 9550 9550 352
Width: 588
Flags: HMW
LayerCount: 2
Fore
SplineSet
247 492 m 1
 247 876 l 1
 341 876 l 1
 341 492 l 1
 247 492 l 1
247 -149 m 1
 247 235 l 1
 341 235 l 1
 341 -149 l 1
 247 -149 l 1
EndSplineSet
Validated: 1
EndChar

StartChar: uni254F
Encoding: 9551 9551 353
Width: 588
Flags: HMW
LayerCount: 2
Fore
SplineSet
200 492 m 1
 200 876 l 1
 388 876 l 1
 388 492 l 1
 200 492 l 1
200 -149 m 1
 200 235 l 1
 388 235 l 1
 388 -149 l 1
 200 -149 l 1
EndSplineSet
Validated: 1
EndChar

StartChar: uni2571
Encoding: 9585 9585 354
Width: 588
Flags: HMW
LayerCount: 2
Fore
SplineSet
44 -290 m 1
 -44 -262 l 1
 544 1019 l 1
 632 991 l 1
 44 -290 l 1
EndSplineSet
Validated: 1
EndChar

StartChar: uni2572
Encoding: 9586 9586 355
Width: 588
Flags: HMW
LayerCount: 2
Fore
SplineSet
544 -290 m 1
 -44 991 l 1
 44 1019 l 1
 632 -262 l 1
 544 -290 l 1
EndSplineSet
Validated: 1
EndChar

StartChar: uni2573
Encoding: 9587 9587 356
Width: 588
Flags: HMW
LayerCount: 2
Fore
SplineSet
544 -290 m 1
 294 257 l 1
 44 -290 l 1
 -44 -262 l 1
 245 364 l 1
 -44 991 l 1
 44 1019 l 1
 294 472 l 1
 544 1019 l 1
 632 991 l 1
 343 364 l 1
 632 -262 l 1
 544 -290 l 1
EndSplineSet
Validated: 1
EndChar

StartChar: uni2574
Encoding: 9588 9588 357
Width: 588
Flags: HMW
LayerCount: 2
Fore
SplineSet
0 327 m 1
 0 401 l 1
 294 401 l 1
 294 327 l 1
 0 327 l 1
EndSplineSet
Validated: 1
EndChar

StartChar: uni2575
Encoding: 9589 9589 358
Width: 588
Flags: HMW
LayerCount: 2
Fore
SplineSet
247 364 m 1
 247 1004 l 1
 341 1004 l 1
 341 364 l 1
 247 364 l 1
EndSplineSet
Validated: 1
EndChar

StartChar: uni2576
Encoding: 9590 9590 359
Width: 588
Flags: HMW
LayerCount: 2
Fore
SplineSet
294 327 m 1
 294 401 l 1
 588 401 l 1
 588 327 l 1
 294 327 l 1
EndSplineSet
Validated: 1
EndChar

StartChar: uni2577
Encoding: 9591 9591 360
Width: 588
Flags: HMW
LayerCount: 2
Fore
SplineSet
247 -277 m 1
 247 364 l 1
 341 364 l 1
 341 -277 l 1
 247 -277 l 1
EndSplineSet
Validated: 1
EndChar

StartChar: uni2578
Encoding: 9592 9592 361
Width: 588
Flags: HMW
LayerCount: 2
Fore
SplineSet
0 290 m 1
 0 438 l 1
 294 438 l 1
 294 290 l 1
 0 290 l 1
EndSplineSet
Validated: 1
EndChar

StartChar: uni2579
Encoding: 9593 9593 362
Width: 588
Flags: HMW
LayerCount: 2
Fore
SplineSet
200 364 m 1
 200 1004 l 1
 388 1004 l 1
 388 364 l 1
 200 364 l 1
EndSplineSet
Validated: 1
EndChar

StartChar: uni257A
Encoding: 9594 9594 363
Width: 588
Flags: HMW
LayerCount: 2
Fore
SplineSet
294 290 m 1
 294 438 l 1
 588 438 l 1
 588 290 l 1
 294 290 l 1
EndSplineSet
Validated: 1
EndChar

StartChar: uni257B
Encoding: 9595 9595 364
Width: 588
Flags: HMW
LayerCount: 2
Fore
SplineSet
200 -277 m 1
 200 364 l 1
 388 364 l 1
 388 -277 l 1
 200 -277 l 1
EndSplineSet
Validated: 1
EndChar

StartChar: uni257C
Encoding: 9596 9596 365
Width: 588
Flags: HMW
LayerCount: 2
Fore
SplineSet
588 290 m 1
 294 290 l 1
 294 327 l 1
 0 327 l 1
 0 401 l 1
 294 401 l 1
 294 438 l 1
 588 438 l 1
 588 290 l 1
EndSplineSet
Validated: 1
EndChar

StartChar: uni257D
Encoding: 9597 9597 366
Width: 588
Flags: HMW
LayerCount: 2
Fore
SplineSet
200 -277 m 1
 200 364 l 1
 247 364 l 1
 247 1004 l 1
 341 1004 l 1
 341 364 l 1
 388 364 l 1
 388 -277 l 1
 200 -277 l 1
EndSplineSet
Validated: 1
EndChar

StartChar: uni257E
Encoding: 9598 9598 367
Width: 588
Flags: HMW
LayerCount: 2
Fore
SplineSet
0 290 m 1
 0 438 l 1
 294 438 l 1
 294 401 l 1
 588 401 l 1
 588 327 l 1
 294 327 l 1
 294 290 l 1
 0 290 l 1
EndSplineSet
Validated: 1
EndChar

StartChar: uni257F
Encoding: 9599 9599 368
Width: 588
Flags: HMW
LayerCount: 2
Fore
SplineSet
247 -277 m 1
 247 364 l 1
 200 364 l 1
 200 1004 l 1
 388 1004 l 1
 388 364 l 1
 341 364 l 1
 341 -277 l 1
 247 -277 l 1
EndSplineSet
Validated: 1
EndChar

StartChar: uni25A4
Encoding: 9636 9636 369
Width: 588
Flags: HMW
LayerCount: 2
Fore
SplineSet
48 119 m 1
 48 504 l 1
 540 504 l 1
 540 119 l 1
 48 119 l 1
113 402 m 1
 475 402 l 1
 475 454 l 1
 113 454 l 1
 113 402 l 1
113 325 m 1
 475 325 l 1
 475 376 l 1
 113 376 l 1
 113 325 l 1
113 247 m 1
 475 247 l 1
 475 299 l 1
 113 299 l 1
 113 247 l 1
113 170 m 1
 475 170 l 1
 475 221 l 1
 113 221 l 1
 113 170 l 1
EndSplineSet
Validated: 1
EndChar

StartChar: uni25A5
Encoding: 9637 9637 370
Width: 588
Flags: HMW
LayerCount: 2
Fore
SplineSet
48 119 m 1
 48 504 l 1
 540 504 l 1
 540 119 l 1
 48 119 l 1
475 170 m 1
 475 454 l 1
 412 454 l 1
 412 170 l 1
 475 170 l 1
313 170 m 1
 374 170 l 1
 374 454 l 1
 313 454 l 1
 313 170 l 1
214 170 m 1
 275 170 l 1
 275 454 l 1
 214 454 l 1
 214 170 l 1
113 170 m 1
 176 170 l 1
 176 454 l 1
 113 454 l 1
 113 170 l 1
EndSplineSet
Validated: 1
EndChar

StartChar: uni25A6
Encoding: 9638 9638 371
Width: 588
Flags: HMW
LayerCount: 2
Fore
SplineSet
48 119 m 1
 48 504 l 1
 540 504 l 1
 540 119 l 1
 48 119 l 1
412 402 m 1
 475 402 l 1
 475 454 l 1
 412 454 l 1
 412 402 l 1
313 402 m 1
 374 402 l 1
 374 454 l 1
 313 454 l 1
 313 402 l 1
214 402 m 1
 275 402 l 1
 275 454 l 1
 214 454 l 1
 214 402 l 1
113 402 m 1
 176 402 l 1
 176 454 l 1
 113 454 l 1
 113 402 l 1
412 325 m 1
 475 325 l 1
 475 376 l 1
 412 376 l 1
 412 325 l 1
313 325 m 1
 374 325 l 1
 374 376 l 1
 313 376 l 1
 313 325 l 1
214 325 m 1
 275 325 l 1
 275 376 l 1
 214 376 l 1
 214 325 l 1
113 325 m 1
 176 325 l 1
 176 376 l 1
 113 376 l 1
 113 325 l 1
412 247 m 1
 475 247 l 1
 475 299 l 1
 412 299 l 1
 412 247 l 1
313 247 m 1
 374 247 l 1
 374 299 l 1
 313 299 l 1
 313 247 l 1
214 247 m 1
 275 247 l 1
 275 299 l 1
 214 299 l 1
 214 247 l 1
113 247 m 1
 176 247 l 1
 176 299 l 1
 113 299 l 1
 113 247 l 1
412 170 m 1
 475 170 l 1
 475 221 l 1
 412 221 l 1
 412 170 l 1
313 170 m 1
 374 170 l 1
 374 221 l 1
 313 221 l 1
 313 170 l 1
214 170 m 1
 275 170 l 1
 275 221 l 1
 214 221 l 1
 214 170 l 1
113 170 m 1
 176 170 l 1
 176 221 l 1
 113 221 l 1
 113 170 l 1
EndSplineSet
Validated: 1
EndChar

StartChar: uni25A7
Encoding: 9639 9639 372
Width: 588
Flags: HMW
LayerCount: 2
Fore
SplineSet
48 119 m 1
 48 504 l 1
 540 504 l 1
 540 119 l 1
 48 119 l 1
475 375 m 1
 475 445 l 1
 465 454 l 1
 375 454 l 1
 475 375 l 1
475 278 m 1
 475 349 l 1
 342 454 l 1
 252 454 l 1
 475 278 l 1
475 183 m 1
 475 253 l 1
 219 454 l 1
 129 454 l 1
 475 183 l 1
369 170 m 1
 459 170 l 1
 113 441 l 1
 113 371 l 1
 369 170 l 1
246 170 m 1
 336 170 l 1
 113 345 l 1
 113 274 l 1
 246 170 l 1
123 170 m 1
 213 170 l 1
 113 248 l 1
 113 178 l 1
 123 170 l 1
EndSplineSet
Validated: 1
EndChar

StartChar: uni25A8
Encoding: 9640 9640 373
Width: 588
Flags: HMW
LayerCount: 2
Fore
SplineSet
48 119 m 1
 48 504 l 1
 540 504 l 1
 540 119 l 1
 48 119 l 1
113 183 m 1
 459 454 l 1
 369 454 l 1
 113 253 l 1
 113 183 l 1
113 278 m 1
 336 454 l 1
 246 454 l 1
 113 349 l 1
 113 278 l 1
113 375 m 1
 213 454 l 1
 123 454 l 1
 113 445 l 1
 113 375 l 1
129 170 m 1
 219 170 l 1
 475 371 l 1
 475 441 l 1
 129 170 l 1
252 170 m 1
 342 170 l 1
 475 274 l 1
 475 345 l 1
 252 170 l 1
375 170 m 1
 465 170 l 1
 475 178 l 1
 475 248 l 1
 375 170 l 1
EndSplineSet
Validated: 1
EndChar

StartChar: uni25A9
Encoding: 9641 9641 374
Width: 588
Flags: HMW
LayerCount: 2
Fore
SplineSet
48 119 m 1
 48 504 l 1
 540 504 l 1
 540 119 l 1
 48 119 l 1
417 421 m 1
 459 454 l 1
 375 454 l 1
 417 421 l 1
294 421 m 1
 336 454 l 1
 252 454 l 1
 294 421 l 1
172 421 m 1
 213 454 l 1
 129 454 l 1
 172 421 l 1
355 373 m 1
 400 409 l 1
 355 444 l 1
 310 409 l 1
 355 373 l 1
233 373 m 1
 278 409 l 1
 233 444 l 1
 188 409 l 1
 233 373 l 1
113 375 m 1
 154 409 l 1
 113 441 l 1
 113 375 l 1
475 375 m 1
 475 441 l 1
 434 409 l 1
 475 375 l 1
417 325 m 1
 462 360 l 1
 417 395 l 1
 372 360 l 1
 417 325 l 1
172 325 m 1
 216 360 l 1
 172 395 l 1
 126 360 l 1
 172 325 l 1
294 325 m 1
 339 360 l 1
 294 395 l 1
 249 360 l 1
 294 325 l 1
355 277 m 1
 400 312 l 1
 355 347 l 1
 310 312 l 1
 355 277 l 1
233 277 m 1
 278 312 l 1
 233 347 l 1
 188 312 l 1
 233 277 l 1
113 278 m 1
 154 312 l 1
 113 345 l 1
 113 278 l 1
475 278 m 1
 475 345 l 1
 434 312 l 1
 475 278 l 1
417 229 m 1
 462 264 l 1
 417 299 l 1
 372 264 l 1
 417 229 l 1
172 229 m 1
 216 264 l 1
 172 299 l 1
 126 264 l 1
 172 229 l 1
294 229 m 1
 339 264 l 1
 294 299 l 1
 249 264 l 1
 294 229 l 1
355 180 m 1
 400 216 l 1
 355 251 l 1
 310 216 l 1
 355 180 l 1
233 180 m 1
 278 216 l 1
 233 251 l 1
 188 216 l 1
 233 180 l 1
113 183 m 1
 154 216 l 1
 113 248 l 1
 113 183 l 1
475 183 m 1
 475 248 l 1
 434 216 l 1
 475 183 l 1
375 170 m 1
 459 170 l 1
 417 202 l 1
 375 170 l 1
129 170 m 1
 213 170 l 1
 172 202 l 1
 129 170 l 1
252 170 m 1
 336 170 l 1
 294 202 l 1
 252 170 l 1
EndSplineSet
Validated: 1
EndChar

StartChar: uni25AF
Encoding: 9647 9647 375
Width: 588
Flags: HMW
LayerCount: 2
Fore
SplineSet
48 23 m 1
 48 601 l 1
 540 601 l 1
 540 23 l 1
 48 23 l 1
475 73 m 1
 475 551 l 1
 113 551 l 1
 113 73 l 1
 475 73 l 1
EndSplineSet
Validated: 1
EndChar

StartChar: uni25B3
Encoding: 9651 9651 376
Width: 588
Flags: HMW
LayerCount: 2
Fore
SplineSet
11 119 m 1
 294 504 l 1
 577 119 l 1
 11 119 l 1
466 170 m 1
 294 403 l 1
 122 170 l 1
 466 170 l 1
EndSplineSet
Validated: 1
EndChar

StartChar: uni25B4
Encoding: 9652 9652 377
Width: 588
Flags: HMW
LayerCount: 2
Fore
SplineSet
81 167 m 1
 294 456 l 1
 507 167 l 1
 81 167 l 1
EndSplineSet
Validated: 1
EndChar

StartChar: uni25B5
Encoding: 9653 9653 378
Width: 588
Flags: HMW
LayerCount: 2
Fore
SplineSet
81 167 m 1
 294 456 l 1
 507 167 l 1
 81 167 l 1
395 218 m 1
 294 355 l 1
 193 218 l 1
 395 218 l 1
EndSplineSet
Validated: 1
EndChar

StartChar: uni25B6
Encoding: 9654 9654 379
Width: 588
Flags: HMW
LayerCount: 2
Fore
SplineSet
48 89 m 1
 48 534 l 1
 540 312 l 1
 48 89 l 1
EndSplineSet
Validated: 1
EndChar

StartChar: uni25B7
Encoding: 9655 9655 380
Width: 588
Flags: HMW
LayerCount: 2
Fore
SplineSet
48 89 m 1
 48 534 l 1
 540 312 l 1
 48 89 l 1
113 177 m 1
 410 312 l 1
 113 446 l 1
 113 177 l 1
EndSplineSet
Validated: 1
EndChar

StartChar: uni25B8
Encoding: 9656 9656 381
Width: 588
Flags: HMW
LayerCount: 2
Fore
SplineSet
109 145 m 1
 109 479 l 1
 479 312 l 1
 109 145 l 1
EndSplineSet
Validated: 1
EndChar

StartChar: uni25B9
Encoding: 9657 9657 382
Width: 588
Flags: HMW
LayerCount: 2
Fore
SplineSet
109 145 m 1
 109 479 l 1
 479 312 l 1
 109 145 l 1
174 232 m 1
 349 312 l 1
 174 391 l 1
 174 232 l 1
EndSplineSet
Validated: 1
EndChar

StartChar: uni25BD
Encoding: 9661 9661 383
Width: 588
Flags: HMW
LayerCount: 2
Fore
SplineSet
294 119 m 1
 11 504 l 1
 577 504 l 1
 294 119 l 1
294 220 m 1
 466 454 l 1
 122 454 l 1
 294 220 l 1
EndSplineSet
Validated: 1
EndChar

StartChar: uni25BE
Encoding: 9662 9662 384
Width: 588
Flags: HMW
LayerCount: 2
Fore
SplineSet
294 167 m 1
 81 456 l 1
 507 456 l 1
 294 167 l 1
EndSplineSet
Validated: 1
EndChar

StartChar: uni25BF
Encoding: 9663 9663 385
Width: 588
Flags: HMW
LayerCount: 2
Fore
SplineSet
294 167 m 1
 81 456 l 1
 507 456 l 1
 294 167 l 1
294 268 m 1
 395 406 l 1
 193 406 l 1
 294 268 l 1
EndSplineSet
Validated: 1
EndChar

StartChar: uni25C0
Encoding: 9664 9664 386
Width: 588
Flags: HMW
LayerCount: 2
Fore
SplineSet
540 89 m 1
 48 312 l 1
 540 534 l 1
 540 89 l 1
EndSplineSet
Validated: 1
EndChar

StartChar: uni25C1
Encoding: 9665 9665 387
Width: 588
Flags: HMW
LayerCount: 2
Fore
SplineSet
540 89 m 1
 48 312 l 1
 540 534 l 1
 540 89 l 1
475 177 m 1
 475 446 l 1
 178 312 l 1
 475 177 l 1
EndSplineSet
Validated: 1
EndChar

StartChar: uni25C2
Encoding: 9666 9666 388
Width: 588
Flags: HMW
LayerCount: 2
Fore
SplineSet
479 145 m 1
 109 312 l 1
 479 479 l 1
 479 145 l 1
EndSplineSet
Validated: 1
EndChar

StartChar: uni25C3
Encoding: 9667 9667 389
Width: 588
Flags: HMW
LayerCount: 2
Fore
SplineSet
479 145 m 1
 109 312 l 1
 479 479 l 1
 479 145 l 1
414 232 m 1
 414 391 l 1
 239 312 l 1
 414 232 l 1
EndSplineSet
Validated: 1
EndChar

StartChar: uni25CC
Encoding: 9676 9676 390
Width: 588
Flags: HMW
LayerCount: 2
Fore
SplineSet
294 480 m 256
 285 480 277 482 272 487 c 0
 265 492 261 497 262 504 c 0
 261 511 265 517 272 522 c 0
 277 527 285 529 294 529 c 256
 303 529 311 527 316 522 c 0
 323 517 327 511 326 504 c 0
 327 497 323 492 316 487 c 0
 311 482 303 480 294 480 c 256
172 454 m 0
 163 454 154 456 148 461 c 0
 142 466 139 471 139 478 c 0
 139 485 142 491 148 496 c 0
 154 501 163 504 172 504 c 0
 181 504 188 501 194 496 c 0
 200 491 203 485 203 478 c 0
 203 471 200 466 194 461 c 0
 188 456 181 454 172 454 c 0
417 454 m 0
 408 454 400 456 394 461 c 0
 388 466 385 471 385 478 c 0
 385 485 388 491 394 496 c 0
 400 501 408 504 417 504 c 0
 426 504 434 501 440 496 c 0
 446 491 449 485 449 478 c 0
 449 471 446 466 440 461 c 0
 434 456 426 454 417 454 c 0
81 383 m 256
 72 383 64 385 59 390 c 0
 52 395 48 401 49 409 c 0
 48 416 52 421 59 426 c 0
 64 431 72 433 81 433 c 256
 90 433 98 431 103 426 c 0
 110 421 114 416 113 409 c 0
 114 402 110 395 103 390 c 0
 98 385 90 383 81 383 c 256
507 383 m 256
 498 383 490 385 485 390 c 0
 478 395 474 401 475 409 c 0
 474 416 478 421 485 426 c 0
 490 431 498 433 507 433 c 256
 516 433 524 431 529 426 c 0
 536 421 540 416 539 409 c 0
 540 402 536 395 529 390 c 0
 524 385 516 383 507 383 c 256
48 287 m 256
 39 287 31 289 26 294 c 0
 19 299 15 305 16 312 c 0
 15 319 19 324 26 329 c 0
 31 334 39 336 48 337 c 256
 57 337 65 334 71 329 c 0
 78 324 81 319 80 312 c 0
 81 305 78 299 71 294 c 0
 65 289 57 287 48 287 c 256
540 287 m 256
 531 287 523 289 517 294 c 0
 510 299 507 305 508 312 c 0
 507 319 510 324 517 329 c 0
 522 334 530 336 540 337 c 256
 549 337 557 334 562 329 c 0
 569 324 573 319 572 312 c 0
 573 305 569 299 562 294 c 0
 557 289 549 287 540 287 c 256
507 190 m 256
 498 190 490 192 485 197 c 0
 478 202 474 208 475 215 c 0
 474 222 478 228 485 233 c 0
 490 238 498 240 507 241 c 256
 516 241 524 238 529 233 c 0
 536 228 540 222 539 215 c 0
 540 208 536 202 529 197 c 0
 524 192 516 190 507 190 c 256
81 190 m 256
 72 190 64 192 59 197 c 0
 52 202 48 208 49 216 c 0
 48 223 52 228 59 233 c 0
 64 238 72 240 81 241 c 256
 90 241 98 238 103 233 c 0
 110 228 114 223 113 216 c 0
 114 209 110 202 103 197 c 0
 98 192 90 190 81 190 c 256
417 120 m 0
 408 120 400 123 394 128 c 0
 388 133 385 138 385 145 c 0
 385 152 388 157 394 162 c 0
 400 167 408 170 417 170 c 0
 426 170 434 167 440 162 c 0
 446 157 449 152 449 145 c 0
 449 138 446 133 440 128 c 0
 434 123 426 120 417 120 c 0
171 120 m 0
 162 120 154 123 148 128 c 0
 142 133 139 138 139 145 c 0
 139 152 142 157 148 162 c 0
 154 167 162 170 171 170 c 0
 180 170 188 167 194 162 c 0
 200 157 203 152 203 145 c 0
 203 138 200 133 194 128 c 0
 188 123 180 120 171 120 c 0
294 94 m 256
 285 94 277 96 272 101 c 0
 265 106 261 112 262 119 c 0
 261 126 265 131 272 136 c 0
 277 141 285 143 294 144 c 256
 303 144 311 141 316 136 c 0
 323 131 327 126 326 119 c 0
 327 112 323 106 316 101 c 0
 311 96 303 94 294 94 c 256
EndSplineSet
Validated: 1
EndChar

StartChar: uni25B0
Encoding: 9648 9648 391
Width: 588
Flags: HMW
LayerCount: 2
Fore
SplineSet
479 183 m 1
 -13 183 l 1
 109 440 l 1
 601 440 l 1
 479 183 l 1
EndSplineSet
Validated: 1
EndChar

StartChar: uni25B1
Encoding: 9649 9649 392
Width: 588
Flags: HMW
LayerCount: 2
Fore
SplineSet
-13 183 m 1
 109 440 l 1
 601 440 l 1
 577 389 l 1
 479 183 l 1
 -13 183 l 1
87 234 m 1
 427 234 l 1
 501 389 l 1
 161 389 l 1
 87 234 l 1
EndSplineSet
Validated: 1
EndChar

StartChar: uni25CE
Encoding: 9678 9678 393
Width: 588
Flags: HW
LayerCount: 2
Fore
SplineSet
294 119 m 260
 250 119 209 127.666666667 171 145 c 0
 133.666666667 162.333333333 103.666666667 185.666666667 81 215 c 0
 59 245.666666667 48 277.833333333 48 311.5 c 128
 48 345.166666667 59 377.666666667 81 409 c 0
 104.333333333 439.666666667 134.333333333 463 171 479 c 0
 209.666666667 495.666666667 250.666666667 504 294 504 c 256
 338 504 379 495.666666667 417 479 c 0
 454.333333333 461.666666667 484.333333333 438.333333333 507 409 c 0
 529 378.333333333 540 346 540 312 c 128
 540 278 529 245.666666667 507 215 c 0
 485 185.666666667 455 162.333333333 417 145 c 128
 379 127.666666667 338 119 294 119 c 260
294 157 m 260
 329.333333333 157 362.333333333 163.833333333 393 177.5 c 128
 423.666666667 191.166666667 447.833333333 210 465.5 234 c 128
 483.166666667 258 492 283.833333333 492 311.5 c 128
 492 339.166666667 483.166666667 365 465.5 389 c 128
 447.833333333 413 423.666666667 432 393 446 c 128
 362.333333333 460 329.333333333 467 294 467 c 256
 258.666666667 467 225.666666667 460 195 446 c 128
 164.333333333 432 140.166666667 413 122.5 389 c 128
 104.833333333 365 96 339.166666667 96 311.5 c 128
 96 283.833333333 104.833333333 258 122.5 234 c 128
 140.166666667 210 164.333333333 191.166666667 195 177.5 c 128
 225.666666667 163.833333333 258.666666667 157 294 157 c 260
294 216 m 132
 272 216 251.333333333 220.166666667 232 228.5 c 128
 212.666666667 236.833333333 198 248.666666667 188 264 c 0
 177.333333333 278.666666667 172 294.666666667 172 312 c 128
 172 329.333333333 177.333333333 345.333333333 188 360 c 0
 198 375.333333333 212.666666667 387.333333333 232 396 c 128
 251.333333333 404.666666667 272 409 294 409 c 256
 316 409 336.666666667 404.666666667 356 396 c 128
 375.333333333 387.333333333 390.166666667 375.5 400.5 360.5 c 128
 410.833333333 345.5 416.333333333 329.333333333 417 312 c 0
 416.333333333 294 410.833333333 277.666666667 400.5 263 c 128
 390.166666667 248.333333333 375.333333333 236.833333333 356 228.5 c 128
 336.666666667 220.166666667 316 216 294 216 c 132
294 254 m 260
 307.333333333 254 320 256.333333333 332 261 c 0
 342.666666667 266.333333333 351.333333333 273.666666667 358 283 c 128
 364.666666667 292.333333333 368 301.833333333 368 311.5 c 128
 368 321.166666667 364.666666667 330.666666667 358 340 c 128
 351.333333333 349.333333333 342.666666667 356.666666667 332 362 c 0
 320 366.666666667 307.333333333 369.333333333 294 370 c 256
 280.666666667 370 268 367.333333333 256 362 c 0
 245.333333333 356.666666667 236.666666667 349.333333333 230 340 c 128
 223.333333333 330.666666667 220 321.166666667 220 311.5 c 128
 220 301.833333333 223.333333333 292.333333333 230 283 c 128
 236.666666667 273.666666667 245.333333333 266.333333333 256 261 c 0
 268 256.333333333 280.666666667 254 294 254 c 260
EndSplineSet
Validated: 3073
EndChar

StartChar: H18533
Encoding: 9679 9679 394
Width: 588
Flags: HMW
LayerCount: 2
Fore
SplineSet
294 119 m 256
 250 119 209 128 171 145 c 0
 134 162 104 186 81 215 c 0
 59 246 48 278 48 312 c 0
 48 346 59 378 81 409 c 0
 104 440 134 463 171 479 c 0
 209 496 250 504 294 504 c 256
 338 504 379 496 417 479 c 0
 454 462 484 438 507 409 c 0
 529 378 540 346 540 312 c 0
 540 278 529 246 507 215 c 0
 485 186 455 162 417 145 c 0
 379 128 338 119 294 119 c 256
EndSplineSet
Validated: 1
EndChar

StartChar: uni25D0
Encoding: 9680 9680 395
Width: 588
Flags: HMW
LayerCount: 2
Fore
SplineSet
294 119 m 256
 250 119 209 128 171 145 c 0
 134 162 104 186 81 215 c 0
 59 246 48 278 48 312 c 0
 48 346 59 378 81 409 c 0
 104 440 134 464 171 479 c 0
 211 496 252 504 294 504 c 256
 338 504 379 496 417 479 c 0
 454 462 484 438 507 409 c 0
 529 378 540 346 540 312 c 0
 540 278 529 246 507 215 c 0
 485 186 455 162 417 145 c 0
 379 128 338 119 294 119 c 256
294 170 m 1
 326 170 356 176 384 188 c 0
 412 200 435 218 451 240 c 0
 467 262 475 287 475 312 c 0
 475 337 467 360 451 382 c 0
 435 404 412 422 384 435 c 0
 356 448 326 454 294 454 c 1
 294 170 l 1
EndSplineSet
Validated: 1
EndChar

StartChar: uni25D1
Encoding: 9681 9681 396
Width: 588
Flags: HMW
LayerCount: 2
Fore
SplineSet
294 119 m 256
 250 119 209 128 171 145 c 0
 134 162 104 186 81 215 c 0
 59 246 48 278 48 312 c 0
 48 346 59 378 81 409 c 0
 104 440 134 463 171 479 c 0
 210 496 251 504 294 504 c 256
 338 504 379 496 417 479 c 0
 454 462 484 438 507 409 c 0
 529 378 540 346 540 312 c 0
 540 278 529 246 507 215 c 0
 485 186 455 162 417 145 c 0
 379 128 338 119 294 119 c 256
294 170 m 1
 294 454 l 1
 262 454 232 448 204 435 c 0
 176 422 153 404 137 382 c 0
 121 360 113 337 113 312 c 0
 113 287 121 262 137 240 c 0
 153 218 176 200 204 188 c 0
 232 176 262 170 294 170 c 1
EndSplineSet
Validated: 1
EndChar

StartChar: uni25D2
Encoding: 9682 9682 397
Width: 588
Flags: HMW
LayerCount: 2
Fore
SplineSet
294 119 m 260
 250 119 209 128 171 145 c 0
 131 164 101 187 81 215 c 0
 59 246 48 279 48 312 c 0
 48 348 59 380 81 409 c 0
 102 438 132 461 171 478 c 0
 210 495 251 503 294 503 c 256
 341 503 382 495 417 479 c 0
 457 460 487 437 507 409 c 0
 529 378 540 346 540 312 c 0
 540 278 529 246 507 215 c 0
 485 186 455 162 417 145 c 0
 379 128 338 119 294 119 c 260
113 312 m 5
 475 312 l 1
 475 337 467 361 451 383 c 0
 435 405 412 422 384 435 c 0
 356 448 326 454 294 454 c 256
 262 454 232 448 204 435 c 0
 176 422 153 405 137 383 c 0
 121 361 113 337 113 312 c 5
EndSplineSet
Validated: 1
EndChar

StartChar: uni25D3
Encoding: 9683 9683 398
Width: 588
Flags: HMW
LayerCount: 2
Fore
SplineSet
294 119 m 260
 250 119 209 128 171 145 c 0
 134 162 104 186 81 215 c 0
 59 246 48 278 48 312 c 0
 48 346 59 378 81 409 c 0
 104 440 134 463 171 479 c 0
 210 496 251 504 294 504 c 256
 338 504 379 496 417 479 c 0
 454 462 484 438 507 409 c 0
 529 378 540 346 540 312 c 0
 540 278 529 246 507 215 c 0
 485 186 455 162 417 145 c 0
 379 128 338 119 294 119 c 260
294 170 m 260
 326 170 356 176 384 188 c 0
 412 200 435 218 451 240 c 0
 467 262 475 287 475 312 c 1
 113 312 l 1
 113 287 121 262 137 240 c 0
 153 218 176 200 204 188 c 0
 232 176 262 170 294 170 c 260
EndSplineSet
Validated: 1
EndChar

StartChar: uni25D4
Encoding: 9684 9684 399
Width: 588
Flags: HMW
LayerCount: 2
Fore
SplineSet
294 119 m 260
 250 119 209 128 171 145 c 0
 134 162 104 186 81 215 c 0
 59 246 48 278 48 312 c 0
 48 346 59 378 81 409 c 0
 104 440 134 463 171 479 c 0
 210 496 251 504 294 504 c 256
 338 504 379 496 417 479 c 0
 454 462 484 438 507 409 c 0
 529 378 540 346 540 312 c 0
 540 278 529 246 507 215 c 0
 485 186 455 162 417 145 c 0
 379 128 338 119 294 119 c 260
294 170 m 260
 326 170 356 176 384 188 c 0
 412 200 435 218 451 240 c 0
 467 262 475 287 475 312 c 1
 294 312 l 1
 294 454 l 1
 262 454 232 448 204 435 c 0
 176 422 153 404 137 382 c 0
 121 360 113 337 113 312 c 0
 113 287 121 262 137 240 c 0
 153 218 176 200 204 188 c 0
 232 176 262 170 294 170 c 260
EndSplineSet
Validated: 1
EndChar

StartChar: uni25D5
Encoding: 9685 9685 400
Width: 588
Flags: HMW
LayerCount: 2
Fore
SplineSet
294 119 m 260
 250 119 209 128 171 145 c 0
 134 162 104 186 81 215 c 0
 59 246 48 278 48 312 c 0
 48 346 59 378 81 409 c 0
 104 440 134 463 171 479 c 0
 210 496 251 504 294 504 c 256
 338 504 379 496 417 479 c 0
 454 462 484 438 507 409 c 0
 529 378 540 346 540 312 c 0
 540 278 529 246 507 215 c 0
 485 186 455 162 417 145 c 0
 379 128 338 119 294 119 c 260
113 312 m 5
 294 312 l 1
 294 454 l 1
 262 454 232 448 204 435 c 0
 176 422 153 405 137 383 c 0
 121 361 113 337 113 312 c 5
EndSplineSet
Validated: 1
EndChar

StartChar: uni25E2
Encoding: 9698 9698 401
Width: 588
Flags: HMW
LayerCount: 2
Fore
SplineSet
48 119 m 1
 540 504 l 1
 540 119 l 1
 48 119 l 1
EndSplineSet
Validated: 1
EndChar

StartChar: uni25E3
Encoding: 9699 9699 402
Width: 588
Flags: HMW
LayerCount: 2
Fore
SplineSet
48 119 m 1
 48 504 l 1
 540 119 l 1
 48 119 l 1
EndSplineSet
Validated: 1
EndChar

StartChar: uni25E4
Encoding: 9700 9700 403
Width: 588
Flags: HMW
LayerCount: 2
Fore
SplineSet
48 119 m 1
 48 504 l 1
 540 504 l 1
 48 119 l 1
EndSplineSet
Validated: 1
EndChar

StartChar: uni25E5
Encoding: 9701 9701 404
Width: 588
Flags: HMW
LayerCount: 2
Fore
SplineSet
540 119 m 1
 48 504 l 1
 540 504 l 1
 540 119 l 1
EndSplineSet
Validated: 1
EndChar

StartChar: uni25CE
Encoding: 9678 9678 405
Width: 588
Flags: HMW
LayerCount: 2
Fore
SplineSet
294 119 m 256
 250 119 209 128 171 145 c 0
 134 162 104 186 81 215 c 0
 59 246 48 278 48 312 c 0
 48 346 59 378 81 409 c 0
 104 440 134 463 171 479 c 0
 210 496 251 504 294 504 c 256
 338 504 379 496 417 479 c 0
 454 462 484 438 507 409 c 0
 529 378 540 346 540 312 c 0
 540 278 529 246 507 215 c 0
 485 186 455 162 417 145 c 0
 379 128 338 119 294 119 c 256
294 157 m 256
 329 157 362 164 393 178 c 0
 424 192 448 210 466 234 c 0
 484 258 492 284 492 312 c 0
 492 340 484 365 466 389 c 0
 448 413 424 432 393 446 c 0
 362 460 329 467 294 467 c 256
 259 467 226 460 195 446 c 0
 164 432 140 413 122 389 c 0
 104 365 96 340 96 312 c 0
 96 284 104 258 122 234 c 0
 140 210 164 192 195 178 c 0
 226 164 259 157 294 157 c 256
294 216 m 0
 272 216 251 220 232 228 c 0
 213 236 198 249 188 264 c 0
 177 279 172 295 172 312 c 0
 172 329 177 345 188 360 c 0
 198 375 213 387 232 396 c 0
 251 405 272 409 294 409 c 256
 316 409 337 405 356 396 c 0
 375 387 390 375 400 360 c 0
 410 345 416 329 417 312 c 0
 416 294 410 278 400 263 c 0
 390 248 375 236 356 228 c 0
 337 220 316 216 294 216 c 0
294 254 m 256
 307 254 320 256 332 261 c 0
 343 266 351 274 358 283 c 0
 365 292 368 302 368 312 c 0
 368 322 365 331 358 340 c 0
 351 349 343 357 332 362 c 0
 320 367 307 369 294 370 c 256
 281 370 268 367 256 362 c 0
 245 357 237 349 230 340 c 0
 223 331 220 322 220 312 c 0
 220 302 223 292 230 283 c 0
 237 274 245 266 256 261 c 0
 268 256 281 254 294 254 c 256
EndSplineSet
Validated: 1
EndChar

StartChar: cent
Encoding: 162 162 406
Width: 588
Flags: HMW
LayerCount: 2
Fore
SplineSet
254 -74 m 5
 254 16 l 1
 227 19 203 26 180 36 c 0
 147 50 120 71 100 98 c 0
 75 133 62 174 62 223 c 2
 62 307 l 2
 62 356 75 398 100 432 c 0
 119 458 145 479 180 494 c 0
 203 505 228 511 254 514 c 1
 254 604 l 1
 342 604 l 1
 342 514 l 1
 372 509 397 503 416 494 c 0
 448 479 474 459 494 432 c 0
 509 412 519 390 526 366 c 1
 447 346 l 1
 443 365 435 383 423 398 c 0
 410 415 393 428 373 437 c 0
 354 446 329 450 296 450 c 0
 265 450 240 446 221 437 c 0
 201 428 185 416 173 399 c 0
 154 374 145 344 145 307 c 2
 145 223 l 2
 145 188 154 158 173 131 c 0
 184 116 200 103 221 93 c 0
 240 84 265 80 296 80 c 0
 329 80 354 84 373 93 c 0
 393 102 410 115 423 132 c 0
 435 147 443 165 447 184 c 1
 526 164 l 1
 521 144 511 122 494 98 c 0
 475 71 449 51 416 36 c 0
 393 26 367 19 336 16 c 1
 336 -74 l 1
 254 -74 l 5
EndSplineSet
Validated: 1
EndChar

StartChar: sterling
Encoding: 163 163 407
Width: 588
Flags: HMW
LayerCount: 2
Fore
SplineSet
71 0 m 5
 71 73 l 1
 94 86 112 103 126 123 c 0
 149 154 160 198 160 257 c 2
 160 326 l 1
 93 326 l 1
 93 399 l 1
 160 399 l 1
 160 498 l 2
 160 548 172 589 195 621 c 0
 212 643 232 659 256 670 c 0
 278 680 304 685 334 685 c 0
 363 685 389 680 410 670 c 0
 435 659 456 642 472 621 c 0
 486 602 496 580 501 556 c 1
 414 530 l 1
 411 553 403 572 392 588 c 0
 385 599 375 607 362 613 c 0
 354 617 343 619 328 619 c 0
 314 619 303 617 294 613 c 0
 283 608 274 601 267 590 c 0
 250 568 242 537 242 498 c 2
 242 399 l 1
 383 399 l 1
 383 326 l 1
 242 326 l 1
 242 257 l 2
 242 182 228 126 201 91 c 0
 196 85 191 79 186 73 c 1
 517 73 l 1
 517 0 l 1
 71 0 l 5
EndSplineSet
Validated: 1
EndChar

StartChar: currency
Encoding: 164 164 408
Width: 588
Flags: HMW
LayerCount: 2
Fore
SplineSet
456 160 m 5
 395 221 l 2
 394 220 393 220 392 220 c 0
 365 204 332 196 294 196 c 0
 256 196 223 204 196 220 c 0
 195 220 194 220 193 221 c 2
 132 160 l 1
 76 210 l 1
 140 275 l 2
 140 276 140 276 139 277 c 0
 123 304 115 333 115 365 c 0
 115 397 123 426 139 453 c 0
 140 454 140 454 140 455 c 2
 76 520 l 1
 132 570 l 1
 193 509 l 2
 194 510 195 510 196 510 c 0
 223 526 256 534 294 534 c 0
 332 534 365 526 392 510 c 0
 393 510 394 510 395 509 c 2
 456 570 l 1
 512 520 l 1
 448 455 l 2
 448 454 448 454 449 453 c 0
 465 426 473 397 473 365 c 0
 473 333 465 304 449 277 c 0
 448 276 448 276 448 275 c 2
 512 210 l 1
 456 160 l 5
294 268 m 4
 317 268 336 272 351 281 c 0
 365 289 376 300 383 313 c 0
 393 330 398 347 398 365 c 0
 398 383 393 400 383 417 c 0
 376 430 365 441 351 449 c 0
 336 458 317 462 294 462 c 0
 271 462 252 458 237 449 c 0
 223 441 212 430 205 417 c 0
 195 400 190 383 190 365 c 0
 190 347 195 330 205 313 c 0
 212 300 223 289 237 281 c 0
 252 272 271 268 294 268 c 4
EndSplineSet
Validated: 1
EndChar

StartChar: yen
Encoding: 165 165 409
Width: 588
Flags: HMW
LayerCount: 2
Fore
SplineSet
70 353 m 5
 70 426 l 1
 214 426 l 1
 42 742 l 1
 124 742 l 1
 295 434 l 1
 465 742 l 1
 547 742 l 1
 376 426 l 1
 518 426 l 1
 518 353 l 1
 336 353 l 1
 336 280 l 1
 518 280 l 1
 518 206 l 1
 336 206 l 1
 336 0 l 1
 254 0 l 1
 254 206 l 1
 70 206 l 1
 70 280 l 1
 254 280 l 1
 254 353 l 1
 70 353 l 5
EndSplineSet
Validated: 1
EndChar

StartChar: brokenbar
Encoding: 166 166 410
Width: 588
Flags: HMW
LayerCount: 2
Fore
SplineSet
253 369 m 1
 253 819 l 1
 335 819 l 1
 335 369 l 1
 253 369 l 1
253 -88 m 1
 253 296 l 1
 335 296 l 1
 335 -88 l 1
 253 -88 l 1
EndSplineSet
Validated: 1
EndChar

StartChar: section
Encoding: 167 167 411
Width: 588
Flags: HMW
LayerCount: 2
Fore
SplineSet
287 -40 m 260
 248 -40 212 -33 179 -19 c 0
 150 -7 129 9 114 30 c 0
 105 43 97 66 92 97 c 1
 172 97 l 1
 176 82 181 69 188 60 c 0
 197 48 209 38 226 30 c 0
 242 22 262 18 287 18 c 0
 312 18 333 22 350 30 c 0
 366 37 379 47 388 60 c 0
 399 75 404 92 404 109 c 0
 404 126 398 143 386 159 c 0
 369 180 346 197 317 210 c 0
 308 214 292 220 270 229 c 0
 243 239 222 247 207 254 c 0
 166 272 138 293 121 317 c 0
 105 340 97 363 97 388 c 0
 97 417 106 444 125 470 c 0
 142 495 166 515 196 530 c 1
 163 546 139 566 123 590 c 0
 106 615 97 640 97 667 c 0
 97 696 106 723 123 747 c 0
 138 768 160 784 188 797 c 0
 218 811 254 818 297 818 c 0
 340 818 379 811 414 796 c 0
 439 785 460 769 475 748 c 0
 487 731 494 709 496 682 c 1
 416 682 l 1
 416 695 412 706 403 718 c 0
 394 730 382 740 367 747 c 0
 347 756 324 760 297 760 c 0
 272 760 250 756 233 748 c 0
 217 741 204 730 195 717 c 0
 184 702 179 686 179 669 c 0
 179 650 185 633 196 619 c 0
 213 598 236 581 266 568 c 0
 275 564 291 558 313 549 c 0
 340 539 360 531 374 524 c 0
 415 506 444 485 461 461 c 0
 477 438 485 415 486 390 c 0
 486 361 477 334 458 308 c 0
 441 283 417 263 386 248 c 1
 419 232 443 212 460 188 c 0
 477 163 486 138 486 111 c 0
 486 82 477 55 460 30 c 0
 445 9 424 -7 397 -19 c 0
 367 -33 330 -40 287 -40 c 260
301 280 m 5
 309 283 317 286 325 290 c 0
 350 301 370 316 385 335 c 0
 398 352 404 371 404 390 c 0
 404 406 399 421 388 435 c 0
 375 452 356 467 329 479 c 0
 318 484 303 490 282 498 c 1
 274 495 266 492 257 488 c 0
 230 477 211 462 198 443 c 0
 185 426 179 407 179 388 c 0
 179 372 184 357 195 343 c 0
 208 326 227 311 254 299 c 0
 265 294 280 287 301 280 c 5
EndSplineSet
Validated: 1
EndChar

StartChar: dieresis
Encoding: 168 168 412
Width: 588
Flags: HMW
LayerCount: 2
Back
SplineSet
333 742 m 5,0,-1
 564 33 l 5,1,-1
 564 0 l 5,2,-1
 477 0 l 5,3,-1
 477 33 l 5,4,-1
 418 215 l 5,5,-1
 170 215 l 5,6,-1
 111 33 l 5,7,-1
 111 0 l 5,8,-1
 25 0 l 5,9,-1
 25 33 l 5,10,-1
 256 742 l 5,11,-1
 333 742 l 5,0,-1
194 288 m 5,12,-1
 394 288 l 5,13,-1
 294 595 l 5,14,-1
 194 288 l 5,12,-1
EndSplineSet
Fore
Refer: 458 776 S 1 0 0 1 2 -81 2
Validated: 1
EndChar

StartChar: copyright
Encoding: 169 169 413
Width: 588
Flags: HMW
LayerCount: 2
Fore
SplineSet
298 517 m 27
 327 517 357 507 386 486 c 0
 415 465 430 446 430 430 c 1
 373 377 l 1
 373 421 l 1
 368 434 358 445 343 455 c 0
 328 465 313 470 298 470 c 0
 268 470 245 460 229 440 c 0
 213 420 205 394 205 364 c 0
 205 332 213 304 228 282 c 0
 243 260 266 249 298 249 c 0
 317 249 335 254 351 266 c 0
 367 278 379 292 386 309 c 1
 447 309 l 1
 437 282 418 258 390 236 c 0
 362 214 330 202 296 202 c 0
 254 202 219 217 192 248 c 0
 165 279 151 318 151 364 c 0
 151 410 165 447 193 475 c 0
 221 503 256 517 298 517 c 27
294 69 m 256
 239 69 192 78 153 96 c 0
 117 113 89 135 69 162 c 0
 45 194 33 264 33 371 c 0
 33 468 45 533 69 568 c 0
 88 596 116 618 153 634 c 0
 192 652 239 661 294 661 c 256
 349 661 396 652 435 634 c 0
 471 617 499 595 519 568 c 0
 543 536 555 470 555 371 c 0
 555 266 543 197 519 162 c 0
 500 134 472 112 435 96 c 0
 396 78 349 69 294 69 c 256
294 120 m 256
 333 120 366 126 393 139 c 0
 420 151 440 167 455 188 c 0
 474 213 483 274 483 371 c 0
 483 459 474 516 455 542 c 0
 440 563 420 579 393 591 c 0
 366 604 333 610 294 610 c 256
 255 610 222 604 195 591 c 0
 168 579 148 563 133 542 c 0
 114 517 105 460 105 371 c 0
 105 275 114 214 133 188 c 0
 148 167 168 151 195 139 c 0
 222 126 255 120 294 120 c 256
EndSplineSet
Validated: 1
EndChar

StartChar: ordfeminine
Encoding: 170 170 414
Width: 588
Flags: HMW
LayerCount: 2
Fore
SplineSet
438 731 m 5
 418 711 l 1
 418 484 l 2
 418 447 429 424 451 416 c 1
 491 416 l 1
 446 361 l 1
 400 367 377 402 377 466 c 1
 357 397 323 363 276 363 c 0
 226 363 184 382 151 419 c 0
 115 460 97 504 97 553 c 0
 97 597 112 639 142 678 c 0
 172 717 209 736 253 736 c 0
 270 736 290 730 312 718 c 0
 334 706 348 698 355 691 c 1
 355 731 l 1
 438 731 l 5
251 683 m 4
 237 683 221 677 203 664 c 0
 191 656 182 643 175 625 c 0
 165 601 160 573 160 542 c 0
 160 505 171 473 192 446 c 0
 207 428 232 419 267 419 c 0
 299 419 327 452 350 518 c 0
 358 540 362 566 362 595 c 0
 362 615 354 632 339 646 c 0
 324 660 309 670 296 675 c 0
 283 680 268 683 251 683 c 4
97 217 m 5
 97 290 l 1
 491 290 l 1
 491 217 l 1
 97 217 l 5
EndSplineSet
Validated: 1
EndChar

StartChar: guillemotleft
Encoding: 171 171 415
Width: 588
Flags: HMW
LayerCount: 2
Fore
SplineSet
546 706 m 29
 546 618 l 1
 310 370 l 1
 546 113 l 1
 546 25 l 1
 222 370 l 1
 546 706 l 29
366 706 m 29
 366 618 l 1
 130 370 l 1
 366 113 l 1
 366 25 l 1
 42 370 l 1
 366 706 l 29
EndSplineSet
Validated: 1
EndChar

StartChar: logicalnot
Encoding: 172 172 416
Width: 588
Flags: HMW
LayerCount: 2
Fore
SplineSet
517 166 m 1
 435 166 l 1
 435 322 l 1
 71 322 l 1
 71 395 l 1
 517 395 l 1
 517 166 l 1
EndSplineSet
Validated: 1
EndChar

StartChar: uni00AD
Encoding: 173 173 417
Width: 588
Flags: HMW
LayerCount: 2
Fore
SplineSet
71 322 m 1
 71 395 l 1
 517 395 l 1
 517 322 l 1
 71 322 l 1
EndSplineSet
Validated: 1
EndChar

StartChar: registered
Encoding: 174 174 418
Width: 588
Flags: HMW
LayerCount: 2
Fore
SplineSet
315 534 m 6
 342 534 363 526 378 510 c 0
 393 494 400 477 400 456 c 0
 400 426 386 404 357 390 c 1
 357 384 l 1
 375 377 388 366 398 350 c 0
 408 334 413 314 413 293 c 2
 413 200 l 1
 366 200 l 1
 366 293 l 2
 366 312 359 330 344 345 c 0
 329 360 316 368 306 368 c 2
 233 368 l 1
 233 200 l 1
 186 200 l 1
 186 534 l 1
 315 534 l 6
358 456 m 4
 358 461 353 468 344 478 c 0
 335 488 326 492 317 492 c 2
 233 492 l 1
 233 411 l 1
 318 411 l 2
 326 411 335 416 344 427 c 0
 353 438 358 447 358 456 c 4
447 309 m 1029
294 69 m 260
 239 69 192 78 153 96 c 0
 117 113 89 135 69 162 c 0
 45 194 33 264 33 371 c 0
 33 468 45 533 69 568 c 0
 88 596 116 618 153 634 c 0
 192 652 239 661 294 661 c 256
 349 661 396 652 435 634 c 0
 471 617 499 595 519 568 c 0
 543 536 555 470 555 371 c 0
 555 266 543 197 519 162 c 0
 500 134 472 112 435 96 c 0
 396 78 349 69 294 69 c 260
294 120 m 260
 333 120 366 126 393 139 c 0
 420 151 440 167 455 188 c 0
 474 213 483 274 483 371 c 0
 483 459 474 516 455 542 c 0
 440 563 420 579 393 591 c 0
 366 604 333 610 294 610 c 256
 255 610 222 604 195 591 c 0
 168 579 148 563 133 542 c 0
 114 517 105 460 105 371 c 0
 105 275 114 214 133 188 c 0
 148 167 168 151 195 139 c 0
 222 126 255 120 294 120 c 260
EndSplineSet
Validated: 1
EndChar

StartChar: degree
Encoding: 176 176 420
Width: 588
Flags: HMW
LayerCount: 2
Fore
SplineSet
294 540 m 260
 252 540 218 559 191 597 c 4
 178 615 172 637 172 664 c 4
 172 689 178 712 191 732 c 4
 214 769 249 788 294 788 c 260
 337 788 372 769 397 732 c 4
 410 713 417 691 417 664 c 4
 417 640 410 618 397 597 c 4
 372 559 338 540 294 540 c 260
294 600 m 260
 313 600 329 606 340 616 c 4
 351 626 357 642 357 664 c 4
 357 686 351 702 340 712 c 4
 329 722 313 728 294 728 c 260
 275 728 260 722 249 712 c 4
 238 702 232 686 232 664 c 4
 232 642 238 626 249 616 c 4
 260 606 275 600 294 600 c 260
EndSplineSet
Validated: 1
EndChar

StartChar: uni00B2
Encoding: 178 178 421
Width: 588
Flags: HMW
LayerCount: 2
Fore
SplineSet
291 818 m 4
 340 818 379 804 408 775 c 0
 437 746 451 714 452 677 c 0
 451 655 443 632 427 608 c 0
 411 584 392 561 368 540 c 0
 344 519 320 500 296 480 c 0
 272 460 248 440 228 420 c 0
 208 400 195 382 189 366 c 1
 395 366 l 1
 395 410 l 1
 452 410 l 1
 452 316 l 1
 129 316 l 1
 129 366 l 1
 135 385 148 407 169 430 c 0
 190 453 213 475 238 496 c 0
 263 517 288 538 312 558 c 0
 336 578 356 599 372 620 c 0
 388 641 397 660 397 677 c 0
 397 705 387 728 368 744 c 0
 349 760 324 768 291 768 c 0
 257 768 230 758 212 737 c 0
 194 716 185 689 184 655 c 1
 129 655 l 1
 130 698 145 736 174 768 c 0
 203 800 242 817 291 818 c 4
EndSplineSet
Validated: 1
EndChar

StartChar: uni00B3
Encoding: 179 179 422
Width: 588
Flags: HMW
LayerCount: 2
Fore
SplineSet
456 812 m 29
 456 763 l 1
 338 654 l 1
 357 653 375 650 390 644 c 0
 405 638 416 631 424 622 c 0
 432 613 440 603 446 594 c 0
 452 585 456 575 458 564 c 0
 460 553 461 546 462 541 c 0
 463 536 463 532 463 528 c 0
 463 501 458 476 448 454 c 0
 438 432 425 413 410 398 c 0
 395 383 378 371 358 360 c 0
 338 349 317 340 298 334 c 0
 279 328 260 322 239 319 c 0
 218 316 202 313 190 312 c 0
 178 311 166 310 155 310 c 0
 152 310 148 312 144 316 c 0
 140 321 138 324 137 327 c 0
 137 330 139 334 142 338 c 0
 145 342 149 346 153 347 c 0
 170 350 182 352 189 354 c 0
 196 356 209 359 226 364 c 0
 243 369 257 373 266 376 c 0
 275 379 287 384 302 390 c 0
 317 396 330 401 338 407 c 0
 346 413 356 420 366 429 c 0
 376 438 384 447 389 456 c 0
 394 465 399 476 403 488 c 0
 407 500 409 513 409 527 c 0
 408 546 401 564 389 580 c 0
 377 596 357 604 330 605 c 0
 300 605 273 597 248 580 c 1
 211 605 l 1
 249 638 l 1
 388 763 l 1
 197 763 l 1
 197 720 l 1
 142 720 l 1
 142 812 l 1
 456 812 l 29
EndSplineSet
Validated: 1
EndChar

StartChar: mu
Encoding: 181 181 424
Width: 588
Flags: HMW
LayerCount: 2
Fore
SplineSet
517 31 m 1
 551 0 l 1
 435 0 l 1
 435 83 l 2
 435 82 434 80 432 77 c 0
 419 55 396 37 364 22 c 0
 339 11 306 5 265 5 c 0
 224 5 192 11 169 22 c 2
 153 30 l 1
 153 -196 l 1
 71 -196 l 1
 71 442 l 1
 48 473 l 1
 179 473 l 1
 153 442 l 1
 153 216 l 2
 153 176 162 144 180 120 c 0
 193 103 208 91 226 83 c 0
 243 76 265 72 294 72 c 0
 323 72 346 76 362 83 c 0
 380 91 395 103 408 120 c 0
 426 145 435 175 435 210 c 2
 435 442 l 1
 412 473 l 1
 543 473 l 1
 517 442 l 1
 517 31 l 1
EndSplineSet
Validated: 1
EndChar

StartChar: paragraph
Encoding: 182 182 425
Width: 588
Flags: HMW
LayerCount: 2
Fore
SplineSet
414 29 m 5
 414 706 l 1
 496 706 l 1
 496 29 l 1
 414 29 l 5
274 29 m 5
 274 335 l 1
 235 335 202 341 174 354 c 0
 146 367 123 385 105 409 c 0
 83 439 72 476 72 520 c 0
 72 564 83 601 105 631 c 0
 123 655 146 673 174 686 c 0
 202 699 236 706 274 706 c 2
 356 706 l 1
 356 29 l 1
 274 29 l 5
274 408 m 5
 274 633 l 1
 248 632 228 629 215 623 c 0
 199 616 186 605 176 592 c 0
 161 571 154 547 154 520 c 0
 154 493 161 470 176 450 c 0
 186 436 199 425 215 418 c 0
 229 411 249 408 274 408 c 5
EndSplineSet
Validated: 1
EndChar

StartChar: uni00B9
Encoding: 185 185 427
Width: 588
Flags: HMW
LayerCount: 2
Fore
SplineSet
309 812 m 29
 309 314 l 1
 254 314 l 1
 254 695 l 1
 197 695 l 1
 268 812 l 1
 309 812 l 29
EndSplineSet
Validated: 1
EndChar

StartChar: ordmasculine
Encoding: 186 186 428
Width: 588
Flags: HMW
LayerCount: 2
Fore
SplineSet
290 698 m 4
 219 698 184 646 184 541 c 0
 184 494 192 458 208 433 c 0
 224 408 251 395 290 395 c 0
 329 395 358 408 376 434 c 0
 394 460 404 496 404 541 c 0
 404 588 395 625 376 654 c 0
 357 683 329 698 290 698 c 4
290 750 m 4
 343 750 388 729 425 686 c 0
 462 643 480 595 480 541 c 0
 480 488 462 442 425 402 c 0
 388 362 343 343 290 343 c 0
 237 343 193 363 159 402 c 0
 125 441 108 487 108 541 c 0
 108 595 126 643 160 686 c 0
 194 729 237 750 290 750 c 4
108 197 m 5
 108 270 l 1
 480 270 l 1
 480 197 l 1
 108 197 l 5
EndSplineSet
Validated: 1
EndChar

StartChar: guillemotright
Encoding: 187 187 429
Width: 588
Flags: HMW
LayerCount: 2
Fore
SplineSet
42 25 m 5
 42 113 l 1
 278 370 l 1
 42 618 l 1
 42 706 l 1
 366 370 l 1
 42 25 l 5
222 25 m 5
 222 113 l 1
 458 370 l 1
 222 618 l 1
 222 706 l 1
 546 370 l 1
 222 25 l 5
EndSplineSet
Validated: 1
EndChar

StartChar: onequarter
Encoding: 188 188 430
Width: 588
Flags: HMW
LayerCount: 2
Back
SplineSet
251 340 m 5,0,-1
 251 390 l 5,1,-1
 697 390 l 5,2,-1
 697 340 l 5,3,-1
 251 340 l 5,0,-1
453 463 m 5,4,-1
 453 759 l 5,5,-1
 407 731 l 5,6,-1
 356 776 l 5,7,-1
 453 835 l 5,8,-1
 534 835 l 5,9,-1
 534 463 l 5,10,-1
 453 463 l 5,4,-1
567 -105 m 5,11,-1
 485 -105 l 5,12,-1
 485 -14 l 5,13,-1
 327 -14 l 5,14,-1
 327 43 l 5,15,-1
 466 267 l 5,16,-1
 567 267 l 5,17,-1
 567 43 l 5,18,-1
 616 43 l 5,19,-1
 616 -14 l 5,20,-1
 567 -14 l 5,21,-1
 567 -105 l 5,11,-1
407 43 m 5,22,-1
 485 43 l 5,23,-1
 485 167 l 5,24,-1
 407 43 l 5,22,-1
EndSplineSet
Fore
SplineSet
153 777 m 29
 153 407 l 1
 102 407 l 1
 102 691 l 1
 60 691 l 1
 112 777 l 1
 153 777 l 29
466 301 m 1
 383 152 l 1
 466 152 l 1
 466 301 l 1
508 370 m 1
 508 152 l 1
 558 152 l 1
 558 105 l 1
 508 105 l 1
 508 0 l 1
 466 0 l 1
 466 105 l 1
 306 105 l 1
 456 370 l 1
 508 370 l 1
588 832 m 25
 82 -20 l 1
 0 -20 l 1
 506 832 l 1
 588 832 l 25
EndSplineSet
Validated: 1
EndChar

StartChar: onehalf
Encoding: 189 189 431
Width: 588
Flags: HMW
LayerCount: 2
Back
SplineSet
71 340 m 5,0,-1
 71 390 l 5,1,-1
 517 390 l 5,2,-1
 517 340 l 5,3,-1
 71 340 l 5,0,-1
436 -105 m 5,4,-1
 152 -105 l 5,5,6
 152 -34 152 -34 180 4 c 4,7,8
 205 36 205 36 272 76 c 4,9,10
 328 108 328 108 343 131 c 4,11,12
 357 149 357 149 356 166 c 4,13,14
 357 186 357 186 339.5 200 c 132,-1,15
 322 214 322 214 292 214 c 4,16,17
 260 214 260 214 243 200 c 4,18,19
 229 189 229 189 228 173 c 5,20,-1
 148 189 l 5,21,22
 152 207 152 207 163 221 c 4,23,24
 178 242 178 242 207 255 c 4,25,26
 242 271 242 271 292 271 c 4,27,28
 340 271 340 271 375 256 c 4,29,30
 403 242 403 242 421 220 c 4,31,32
 439 194 439 194 439 165.5 c 132,-1,33
 439 137 439 137 419 109 c 132,-1,34
 399 81 399 81 338.5 44 c 132,-1,35
 278 7 278 7 256 -21 c 4,36,37
 248 -33 248 -33 242 -47 c 5,38,-1
 436 -47 l 5,39,-1
 436 -105 l 5,4,-1
273 463 m 5,40,-1
 273 759 l 5,41,-1
 227 731 l 5,42,-1
 176 776 l 5,43,-1
 273 835 l 5,44,-1
 354 835 l 5,45,-1
 354 463 l 5,46,-1
 273 463 l 5,40,-1
EndSplineSet
Fore
SplineSet
467 374 m 4
 503 374 532 363 554 342 c 0
 575 321 586 296 587 269 c 0
 586 252 580 235 568 218 c 0
 556 201 541 184 524 168 c 0
 507 152 488 137 470 122 c 0
 452 107 435 93 420 80 c 0
 405 67 396 54 391 42 c 1
 545 42 l 1
 545 75 l 1
 587 75 l 1
 587 0 l 1
 346 0 l 1
 346 37 l 1
 354 58 362 73 371 84 c 0
 386 101 403 118 422 134 c 0
 441 150 459 165 477 180 c 0
 492 193 507 209 522 226 c 0
 537 245 545 259 546 269 c 0
 545 286 537 303 520 319 c 0
 506 331 488 337 467 337 c 0
 445 337 427 329 413 314 c 0
 400 298 393 278 392 253 c 1
 346 253 l 1
 347 286 358 314 379 338 c 0
 401 362 430 374 467 374 c 4
153 777 m 29
 153 407 l 1
 102 407 l 1
 102 691 l 1
 60 691 l 1
 112 777 l 1
 153 777 l 29
588 832 m 29
 82 -20 l 1
 0 -20 l 1
 506 832 l 1
 588 832 l 29
EndSplineSet
Validated: 1
EndChar

